<?xml version="1.0" encoding="utf-8"?>
<!-- Generator: Adobe Illustrator 17.0.0, SVG Export Plug-In . SVG Version: 6.00 Build 0)  -->
<!DOCTYPE svg PUBLIC "-//W3C//DTD SVG 1.1//EN" "http://www.w3.org/Graphics/SVG/1.1/DTD/svg11.dtd">
<svg version="1.1" id="Layer_1" xmlns="http://www.w3.org/2000/svg" xmlns:xlink="http://www.w3.org/1999/xlink" x="0px" y="0px"
	 width="314.5px" height="209.75px" viewBox="0 0 314.5 209.75" enable-background="new 0 0 314.5 209.75" xml:space="preserve">
<g id="Deco">
	<g>
		<path fill="none" stroke="#F6F6F6" stroke-miterlimit="10" d="M159.624,128.727"/>
		<path fill="none" stroke="#F6F6F6" stroke-linecap="round" stroke-linejoin="round" stroke-miterlimit="10" d="M285.079,152.398
			c0,0,9.656,6.018,8.443,12.506c-1.223,6.489-13.051,6.918-12.598,1.195c6.529-1.037,4.502,34.386,4.502,34.386
			s17.854-14.42,11.766-17.893c-5.951,3.834,11.402,17.803,11.402,17.803s-2.877-35.333,3.609-34.341
			c0.929,6.425-11.362,4.102-18.646-0.547"/>
		<path fill="none" stroke="#F6F6F6" stroke-miterlimit="10" d="M227.022,180.915c-12.916-3.378-30.25-7.004-36.583,2.893"/>
		<g>
			<path fill="none" stroke="#F6F6F6" stroke-miterlimit="10" d="M171.489,138.55c8.538,4.492,29.002,10.092,51.098,10.186
				l0.004-0.009c11.186,0.56,24.305-2.634,35.305-13.413c8.812-8.811,25.199,1.404,26.532,11.407"/>
			<path fill="none" stroke="#F6F6F6" stroke-miterlimit="10" d="M246.132,143.846c5.628-3.48,17.052-7.16,23.725,1.406"/>
			<path fill="none" stroke="#F6F6F6" stroke-miterlimit="10" d="M239.484,146.594c8.765-2.573,25.312-3.29,31.059,10.551"/>
		</g>
		<circle fill="#F6F6F6" cx="219.334" cy="197.983" r="1.019"/>
		<circle fill="#F6F6F6" cx="248.209" cy="170.483" r="1.019"/>
		<circle fill="#F6F6F6" cx="246.54" cy="173.694" r="1.019"/>
		<circle fill="#F6F6F6" cx="235.395" cy="154.995" r="1.019"/>
		<circle fill="#F6F6F6" cx="198.417" cy="153.976" r="1.019"/>
		<circle fill="#F6F6F6" cx="196.132" cy="142.479" r="1.019"/>
		<path fill="none" stroke="#F6F6F6" stroke-miterlimit="10" d="M161.891,133.066c18.936,5.032,35.149,50.143,83.002,50.143
			c6.677,0,12.09-5.412,12.09-12.089c0-3.84-3.113-6.954-6.954-6.954c-2.209,0-4,1.791-4,4c0,1.271,1.03,2.301,2.301,2.301"/>
		<path fill="none" stroke="#F6F6F6" stroke-miterlimit="10" d="M229.905,148.539c17.271-2.066,29.771,1.713,31.938,14.24"/>
		<path fill="none" stroke="#F6F6F6" stroke-miterlimit="10" d="M222.104,179.409c6.646,2.185,11.439,8.438,11.438,15.812
			c0,6.231-5.053,11.283-11.281,11.282c-4.226,0-7.647-3.423-7.647-7.647c0.001-2.862,2.32-5.183,5.185-5.183
			c1.939,0,3.515,1.573,3.514,3.513c0.001,1.315-1.066,2.381-2.381,2.381c-0.894,0.001-1.615-0.722-1.615-1.614"/>
		<g>
			<path fill="none" stroke="#F6F6F6" stroke-miterlimit="10" d="M190.094,188.983c-1.861,0-3.189,0.11-4.016-0.132
				c-0.271,0.875-0.43,1.85-0.43,2.882c0,3.728,4.443,6.75,4.443,6.75s4.441-3.022,4.441-6.75c0-1.032-0.155-2.007-0.43-2.882
				C193.284,189.094,191.956,188.983,190.094,188.983z"/>
			<path fill="none" stroke="#F6F6F6" stroke-miterlimit="10" d="M195.094,187.395c0,1.981-1.688,1.588-5,1.588
				c-3.313,0-5,0.394-5-1.588s1.687-3.588,5-3.588S195.094,185.414,195.094,187.395z"/>
		</g>
		<g>
			<path fill="none" stroke="#F6F6F6" stroke-miterlimit="10" d="M261.841,164.853c-0.835,0-1.433,0.049-1.8-0.059
				c-0.122,0.392-0.193,0.829-0.193,1.292c0,1.672,1.993,3.027,1.993,3.027s1.993-1.355,1.993-3.027c0-0.463-0.07-0.9-0.193-1.292
				C263.272,164.903,262.676,164.853,261.841,164.853z"/>
			<path fill="none" stroke="#F6F6F6" stroke-miterlimit="10" d="M264.083,164.141c0,0.889-0.758,0.712-2.242,0.712
				c-1.485,0-2.242,0.176-2.242-0.712s0.757-1.609,2.242-1.609C263.328,162.532,264.083,163.252,264.083,164.141z"/>
		</g>
		<g>
			<path fill="none" stroke="#F6F6F6" stroke-miterlimit="10" d="M270.54,159.282c-0.837,0-1.433,0.049-1.802-0.059
				c-0.122,0.392-0.191,0.829-0.191,1.292c0,1.672,1.993,3.027,1.993,3.027s1.991-1.355,1.991-3.027c0-0.463-0.068-0.9-0.191-1.292
				C271.971,159.332,271.375,159.282,270.54,159.282z"/>
			<path fill="none" stroke="#F6F6F6" stroke-miterlimit="10" d="M272.783,158.57c0,0.889-0.756,0.712-2.24,0.712
				c-1.485,0-2.242,0.176-2.242-0.712s0.757-1.609,2.242-1.609C272.027,156.961,272.783,157.681,272.783,158.57z"/>
		</g>
		<g>
			<path fill="none" stroke="#F6F6F6" stroke-miterlimit="10" d="M270.15,147.573c-0.835,0-1.431,0.049-1.8-0.059
				c-0.122,0.392-0.193,0.829-0.193,1.292c0,1.672,1.993,3.027,1.993,3.027s1.993-1.355,1.993-3.027c0-0.463-0.07-0.9-0.193-1.292
				C271.581,147.623,270.985,147.573,270.15,147.573z"/>
			<path fill="none" stroke="#F6F6F6" stroke-miterlimit="10" d="M272.392,146.861c0,0.889-0.756,0.712-2.242,0.712
				c-1.483,0-2.242,0.176-2.242-0.712s0.759-1.609,2.242-1.609C271.636,145.252,272.392,145.972,272.392,146.861z"/>
		</g>
		<g>
			<path fill="none" stroke="#F6F6F6" stroke-miterlimit="10" d="M284.425,148.704c-0.835,0-1.433,0.049-1.8-0.059
				c-0.122,0.392-0.193,0.829-0.193,1.292c0,1.672,1.993,3.027,1.993,3.027s1.993-1.355,1.993-3.027c0-0.463-0.07-0.9-0.193-1.292
				C285.856,148.753,285.26,148.704,284.425,148.704z"/>
			<path fill="none" stroke="#F6F6F6" stroke-miterlimit="10" d="M286.667,147.992c0,0.889-0.758,0.712-2.242,0.712
				c-1.485,0-2.242,0.176-2.242-0.712s0.757-1.609,2.242-1.609C285.912,146.383,286.667,147.103,286.667,147.992z"/>
		</g>
		<path fill="none" stroke="#F6F6F6" stroke-miterlimit="10" d="M234.406,148.004c2.807,0,5.078,2.273,5.078,5.078
			c0,2.244-1.816,4.062-4.062,4.062c-1.795,0-3.25-1.455-3.25-3.25c0-1.436,1.164-2.6,2.6-2.6c1.149,0,2.08,0.931,2.08,2.08
			c0,0.919-0.745,1.664-1.664,1.664"/>
		<path fill="none" stroke="#F6F6F6" stroke-miterlimit="10" d="M172.893,139.464c7.053,3.981,11.934,10.681,25.524,14.512"/>
		<path fill="none" stroke="#F6F6F6" stroke-miterlimit="10" d="M224.799,180.361c12.783,0,15.172-10.574,15.172-17.908"/>
		<g>
			<path fill="none" stroke="#F6F6F6" stroke-miterlimit="10" d="M237.302,161.467c-0.061,1.473,1.17,0.699,2.644,0.758
				c1.476,0.059,2.638,0.928,2.694-0.547c0.059-1.473-2.562-2.773-2.562-2.773S237.361,159.992,237.302,161.467z"/>
		</g>
		<path fill="none" stroke="#F6F6F6" stroke-miterlimit="10" d="M236.322,175.391c2.127-3.816,2.971-8.21-2.654-6.407"/>
		<path fill="none" stroke="#F6F6F6" stroke-miterlimit="10" d="M234.754,177.058c4.911-4.396,8.286-5.396,11.786-3.396"/>
		<circle fill="#F6F6F6" cx="233.665" cy="168.983" r="0.938"/>
		<g>
			<path fill="none" stroke="#F6F6F6" stroke-miterlimit="10" d="M260.44,202.178c-1.612-1.356-2.709-2.97-3.118-4.391
				c-0.729,1.188-0.805,3.305-0.062,5.493c1.008,2.978,4.748,4.4,4.748,4.4s1.178-1.904,1.35-4.109
				C262.338,203.331,261.305,202.907,260.44,202.178z"/>
			<path fill="none" stroke="#F6F6F6" stroke-miterlimit="10" d="M265.12,196.618c0.865,0.728,1.459,1.674,1.871,2.635
				c2.146-0.546,3.818-2.031,3.818-2.031s-2.041-3.441-5.146-3.927c-2.3-0.359-4.391,0.082-5.43,1.018
				C261.71,194.462,263.494,195.249,265.12,196.618z"/>
			<path fill="none" stroke="#F6F6F6" stroke-miterlimit="10" d="M265.12,196.618c-2.832-2.384-6.175-3.07-7.467-1.534
				c-1.293,1.535-0.045,4.712,2.787,7.095c2.832,2.384,7.468,1.535,7.468,1.535S267.952,199,265.12,196.618z"/>
			<line fill="none" stroke="#F6F6F6" stroke-miterlimit="10" x1="257.872" y1="195.269" x2="260.936" y2="197.846"/>
			<path fill="none" stroke="#F6F6F6" stroke-miterlimit="10" d="M222.659,179.653c10.437,2.861,21.365,15.581,35.104,15.581"/>
		</g>
		<path fill="none" stroke="#F6F6F6" stroke-miterlimit="10" d="M169.941,137.429c6.625,3.581,19.691,5.169,26.191,5.044"/>
		<g>
			<path fill="none" stroke="#4A4747" stroke-miterlimit="10" d="M87.593,202.303"/>
			<path fill="none" stroke="#F6F6F6" stroke-miterlimit="10" d="M155.333,128.727"/>
			<path fill="none" stroke="#F6F6F6" stroke-linecap="round" stroke-linejoin="round" stroke-miterlimit="10" d="M29.861,152.398
				c0,0-9.656,6.018-8.443,12.506c1.223,6.489,13.051,6.918,12.598,1.195c-6.531-1.037-4.502,34.386-4.502,34.386
				s-17.854-14.42-11.766-17.893c5.951,3.834-11.402,17.803-11.402,17.803s2.877-35.333-3.611-34.341
				c-0.927,6.425,11.364,4.102,18.646-0.547"/>
			<path fill="none" stroke="#F6F6F6" stroke-miterlimit="10" d="M87.917,180.915c12.916-3.378,30.25-7.004,36.583,2.893"/>
			<g>
				<path fill="none" stroke="#F6F6F6" stroke-miterlimit="10" d="M143.45,138.55c-8.538,4.492-29.002,10.092-51.096,10.186
					l-0.004-0.009c-11.186,0.56-24.305-2.634-35.305-13.413c-8.812-8.811-25.199,1.404-26.532,11.407"/>
				<path fill="none" stroke="#F6F6F6" stroke-miterlimit="10" d="M68.807,143.846c-5.628-3.48-17.052-7.16-23.725,1.406"/>
				<path fill="none" stroke="#F6F6F6" stroke-miterlimit="10" d="M75.455,146.594c-8.763-2.573-25.312-3.29-31.057,10.551"/>
			</g>
			<circle fill="#F6F6F6" cx="95.605" cy="197.983" r="1.019"/>
			<circle fill="#F6F6F6" cx="66.73" cy="170.483" r="1.019"/>
			<circle fill="#F6F6F6" cx="68.399" cy="173.694" r="1.019"/>
			<circle fill="#F6F6F6" cx="79.544" cy="154.995" r="1.019"/>
			<circle fill="#F6F6F6" cx="116.522" cy="153.976" r="1.019"/>
			<circle fill="#F6F6F6" cx="118.807" cy="142.479" r="1.019"/>
			<path fill="none" stroke="#F6F6F6" stroke-miterlimit="10" d="M153.048,133.066c-18.936,5.032-35.149,50.143-83.002,50.143
				c-6.677,0-12.09-5.412-12.09-12.089c0-3.84,3.113-6.954,6.954-6.954c2.209,0,4,1.791,4,4c0,1.271-1.03,2.301-2.301,2.301"/>
			<path fill="none" stroke="#F6F6F6" stroke-miterlimit="10" d="M85.034,148.539c-17.27-2.066-29.771,1.713-31.937,14.24"/>
			<path fill="none" stroke="#F6F6F6" stroke-miterlimit="10" d="M92.835,179.409c-6.644,2.185-11.439,8.438-11.438,15.812
				c0,6.231,5.051,11.283,11.281,11.282c4.224,0,7.647-3.423,7.647-7.647c-0.001-2.862-2.32-5.183-5.183-5.183
				c-1.941,0-3.515,1.573-3.514,3.513c-0.001,1.315,1.066,2.381,2.381,2.381c0.892,0.001,1.615-0.722,1.615-1.614"/>
			<g>
				<path fill="none" stroke="#F6F6F6" stroke-miterlimit="10" d="M124.845,188.983c1.861,0,3.189,0.11,4.014-0.132
					c0.272,0.875,0.43,1.85,0.43,2.882c0,3.728-4.443,6.75-4.443,6.75s-4.443-3.022-4.443-6.75c0-1.032,0.157-2.007,0.43-2.882
					C121.655,189.094,122.984,188.983,124.845,188.983z"/>
				<path fill="none" stroke="#F6F6F6" stroke-miterlimit="10" d="M119.845,187.395c0,1.981,1.687,1.588,5,1.588s5,0.394,5-1.588
					s-1.687-3.588-5-3.588S119.845,185.414,119.845,187.395z"/>
			</g>
			<g>
				<path fill="none" stroke="#F6F6F6" stroke-miterlimit="10" d="M53.098,164.853c0.835,0,1.431,0.049,1.8-0.059
					c0.122,0.392,0.193,0.829,0.193,1.292c0,1.672-1.993,3.027-1.993,3.027s-1.993-1.355-1.993-3.027c0-0.463,0.07-0.9,0.193-1.292
					C51.667,164.903,52.263,164.853,53.098,164.853z"/>
				<path fill="none" stroke="#F6F6F6" stroke-miterlimit="10" d="M50.856,164.141c0,0.889,0.756,0.712,2.242,0.712
					c1.485,0,2.242,0.176,2.242-0.712s-0.757-1.609-2.242-1.609C51.612,162.532,50.856,163.252,50.856,164.141z"/>
			</g>
			<g>
				<path fill="none" stroke="#F6F6F6" stroke-miterlimit="10" d="M44.399,159.282c0.835,0,1.431,0.049,1.8-0.059
					c0.122,0.392,0.193,0.829,0.193,1.292c0,1.672-1.993,3.027-1.993,3.027s-1.993-1.355-1.993-3.027c0-0.463,0.07-0.9,0.193-1.292
					C42.968,159.332,43.564,159.282,44.399,159.282z"/>
				<path fill="none" stroke="#F6F6F6" stroke-miterlimit="10" d="M42.156,158.57c0,0.889,0.756,0.712,2.242,0.712
					c1.485,0,2.242,0.176,2.242-0.712s-0.757-1.609-2.242-1.609C42.912,156.961,42.156,157.681,42.156,158.57z"/>
			</g>
			<g>
				<path fill="none" stroke="#F6F6F6" stroke-miterlimit="10" d="M44.789,147.573c0.835,0,1.431,0.049,1.8-0.059
					c0.122,0.392,0.193,0.829,0.193,1.292c0,1.672-1.993,3.027-1.993,3.027s-1.993-1.355-1.993-3.027c0-0.463,0.07-0.9,0.193-1.292
					C43.359,147.623,43.954,147.573,44.789,147.573z"/>
				<path fill="none" stroke="#F6F6F6" stroke-miterlimit="10" d="M42.547,146.861c0,0.889,0.756,0.712,2.242,0.712
					c1.485,0,2.242,0.176,2.242-0.712s-0.757-1.609-2.242-1.609C43.303,145.252,42.547,145.972,42.547,146.861z"/>
			</g>
			<g>
				<path fill="none" stroke="#F6F6F6" stroke-miterlimit="10" d="M30.514,148.704c0.835,0,1.431,0.049,1.8-0.059
					c0.122,0.392,0.193,0.829,0.193,1.292c0,1.672-1.993,3.027-1.993,3.027s-1.993-1.355-1.993-3.027c0-0.463,0.07-0.9,0.193-1.292
					C29.083,148.753,29.679,148.704,30.514,148.704z"/>
				<path fill="none" stroke="#F6F6F6" stroke-miterlimit="10" d="M28.272,147.992c0,0.889,0.756,0.712,2.242,0.712
					c1.485,0,2.242,0.176,2.242-0.712s-0.757-1.609-2.242-1.609C29.028,146.383,28.272,147.103,28.272,147.992z"/>
			</g>
			<path fill="none" stroke="#F6F6F6" stroke-miterlimit="10" d="M80.533,148.004c-2.805,0-5.078,2.273-5.078,5.078
				c0,2.244,1.818,4.062,4.062,4.062c1.795,0,3.25-1.455,3.25-3.25c0-1.436-1.164-2.6-2.6-2.6c-1.149,0-2.08,0.931-2.08,2.08
				c0,0.919,0.745,1.664,1.664,1.664"/>
			<path fill="none" stroke="#F6F6F6" stroke-miterlimit="10" d="M142.046,139.464c-7.053,3.981-11.934,10.681-25.524,14.512"/>
			<path fill="none" stroke="#F6F6F6" stroke-miterlimit="10" d="M90.14,180.361c-12.783,0-15.172-10.574-15.172-17.908"/>
			<g>
				<path fill="none" stroke="#F6F6F6" stroke-miterlimit="10" d="M77.637,161.467c0.059,1.473-1.17,0.699-2.644,0.758
					s-2.636,0.928-2.694-0.547c-0.059-1.473,2.562-2.773,2.562-2.773S77.578,159.992,77.637,161.467z"/>
			</g>
			<path fill="none" stroke="#F6F6F6" stroke-miterlimit="10" d="M78.617,175.391c-2.127-3.816-2.969-8.21,2.656-6.407"/>
			<path fill="none" stroke="#F6F6F6" stroke-miterlimit="10" d="M80.185,177.058c-4.911-4.396-8.286-5.396-11.786-3.396"/>
			<circle fill="#F6F6F6" cx="81.274" cy="168.983" r="0.938"/>
			<g>
				<path fill="none" stroke="#F6F6F6" stroke-miterlimit="10" d="M54.499,202.178c1.612-1.356,2.709-2.97,3.118-4.391
					c0.729,1.188,0.805,3.305,0.063,5.493c-1.008,2.978-4.748,4.4-4.748,4.4s-1.178-1.904-1.35-4.109
					C52.601,203.331,53.634,202.907,54.499,202.178z"/>
				<path fill="none" stroke="#F6F6F6" stroke-miterlimit="10" d="M49.82,196.618c-0.865,0.728-1.459,1.674-1.871,2.635
					c-2.144-0.546-3.818-2.031-3.818-2.031s2.041-3.441,5.146-3.927c2.3-0.359,4.391,0.082,5.43,1.018
					C53.229,194.462,51.446,195.249,49.82,196.618z"/>
				<path fill="none" stroke="#F6F6F6" stroke-miterlimit="10" d="M49.82,196.618c2.832-2.384,6.175-3.07,7.467-1.534
					c1.293,1.535,0.045,4.712-2.787,7.095c-2.832,2.384-7.468,1.535-7.468,1.535S46.988,199,49.82,196.618z"/>
				<line fill="none" stroke="#F6F6F6" stroke-miterlimit="10" x1="57.067" y1="195.269" x2="54.003" y2="197.846"/>
				<path fill="none" stroke="#F6F6F6" stroke-miterlimit="10" d="M92.28,179.653c-10.435,2.861-21.365,15.581-35.102,15.581"/>
			</g>
			<path fill="none" stroke="#F6F6F6" stroke-miterlimit="10" d="M144.998,137.429c-6.625,3.581-19.691,5.169-26.191,5.044"/>
		</g>
		<g>
			<path fill="none" stroke="#F6F6F6" stroke-miterlimit="10" d="M108.356,115.455c-4.538-0.741-9.333,0.931-12.393,4.789
				c-2.81,3.541-2.218,8.688,1.324,11.497c2.211,1.754,5.425,1.384,7.179-0.827c1.096-1.38,0.864-3.388-0.516-4.483
				c-0.863-0.685-2.116-0.539-2.8,0.322c-0.427,0.539-0.337,1.321,0.2,1.749"/>
			<circle fill="#F6F6F6" cx="101.352" cy="128.501" r="0.832"/>
			<path fill="none" stroke="#F6F6F6" stroke-miterlimit="10" d="M50.077,19.892"/>
			<path fill="none" stroke="#F6F6F6" stroke-miterlimit="10" d="M135.781,99.413c-1.938,1.633-4.229,2.103-5.114,1.051
				c-0.885-1.051-0.029-3.227,1.91-4.858c1.939-1.633,5.113-1.052,5.113-1.052S137.721,97.781,135.781,99.413z"/>
			<line fill="none" stroke="#F6F6F6" stroke-miterlimit="10" x1="130.772" y1="100.668" x2="133.835" y2="98.091"/>
			<path fill="none" stroke="#F6F6F6" stroke-miterlimit="10" d="M117.6,76.277c-1.696,1.883-3.9,2.662-4.921,1.742
				s-0.473-3.192,1.225-5.075c1.698-1.883,4.921-1.742,4.921-1.742S119.297,74.394,117.6,76.277z"/>
			<line fill="none" stroke="#F6F6F6" stroke-miterlimit="10" x1="112.81" y1="78.208" x2="115.489" y2="75.235"/>
			<path fill="none" stroke="#F6F6F6" stroke-miterlimit="10" d="M69.298,55.45c0.652-1.642,2.514-2.443,4.154-1.79
				c1.314,0.523,1.955,2.011,1.432,3.325c-0.418,1.051-1.607,1.563-2.659,1.146c-0.841-0.335-1.251-1.287-0.916-2.129"/>
			<path fill="none" stroke="#F6F6F6" stroke-miterlimit="10" d="M82.767,55.535c-3.655,0.383-1.928-2.793-2.311-6.446
				c-0.383-3.653-2.73-6.402,0.923-6.785s7.31,5.923,7.31,5.923S86.419,55.152,82.767,55.535z"/>
			<path fill="none" stroke="#F6F6F6" stroke-miterlimit="10" d="M86.235,44.942c-0.736-0.079-1.523-0.087-2.34-0.001
				c-1.574,0.165-2.984,0.633-4.061,1.278c0.244,0.861,0.513,1.826,0.621,2.869s0.047,2.042-0.014,2.936
				c1.188,0.408,2.664,0.574,4.239,0.409c0.815-0.086,1.583-0.256,2.288-0.486c1.101-1.851,1.719-3.721,1.719-3.721
				S87.696,46.524,86.235,44.942z"/>
			<path fill="none" stroke="#F6F6F6" stroke-miterlimit="10" d="M65.967,64.927c1.827-11.001,9.827-36.667-2.173-46.334"/>
			<circle fill="#F6F6F6" cx="71.309" cy="56.001" r="0.69"/>
			<path fill="none" stroke="#F6F6F6" stroke-miterlimit="10" d="M98.794,91.212c1.188-1.491,4.85-0.551,4.85-0.551
				s1.739,3.354,0.553,4.845"/>
			<path fill="none" stroke="#F6F6F6" stroke-miterlimit="10" d="M112.868,103.492c-1.302,1.395-4.879,0.17-4.879,0.17
				s-1.471-3.479-0.172-4.873"/>
			<path fill="none" stroke="#F6F6F6" stroke-miterlimit="10" d="M95.2,88.713c-0.998,1.625-4.748,1.136-4.748,1.136
				s-2.133-3.118-1.138-4.741"/>
			<path fill="none" stroke="#F6F6F6" stroke-miterlimit="10" d="M116.424,106.441c1.362-1.334,4.881,0.051,4.881,0.051
				s1.313,3.543-0.048,4.876"/>
			<path fill="none" stroke="#F6F6F6" stroke-miterlimit="10" d="M141.689,128.401c-18.942-5.011-35.151-50.146-83.017-50.146
				c-3.627,0-6.568,2.941-6.568,6.568c0,3.628,2.941,6.568,6.568,6.568s6.568-2.94,6.568-6.568c0-4.812-3.322-35.896,15.553-35.896"
				/>
			<path fill="none" stroke="#F6F6F6" stroke-miterlimit="10" d="M130.235,121.129c-3.607-6.703-5.056-15.633,0.752-20.751"/>
			<path fill="none" stroke="#F6F6F6" stroke-miterlimit="10" d="M64.147,18.888c-2.387-1.846-5.38-2.943-8.63-2.943
				c-6.239,0-11.296,5.058-11.296,11.296c0,4.991,4.045,9.037,9.037,9.037c3.992,0,7.229-3.236,7.229-7.229
				c0-2.904-2.14-5.308-4.93-5.72"/>
			<path fill="none" stroke="#F6F6F6" stroke-miterlimit="10" d="M50.278,29.115c0,0-0.605-4.423,0.287-5.779
				c0.891-1.354,2.713-1.729,4.067-0.838s1.731,2.714,0.839,4.068C54.58,27.92,50.278,29.115,50.278,29.115z"/>
			<path fill="none" stroke="#F6F6F6" stroke-miterlimit="10" d="M69.454,28.374C68.276,18.66,73.699,8.991,83.217,5.195
				c9.072-3.619,19.36,0.803,22.979,9.874"/>
			<path fill="none" stroke="#F6F6F6" stroke-miterlimit="10" d="M106.328,22.698c0,0-2.878-3.413-2.851-5.036
				c0.029-1.621,1.367-2.913,2.988-2.885c1.622,0.028,2.914,1.366,2.886,2.987C109.323,19.386,106.328,22.698,106.328,22.698z"/>
			<path fill="none" stroke="#F6F6F6" stroke-miterlimit="10" d="M67.954,102.661c1.479-1.487,1.879-7.937,4.213-7.938
				c2.336-0.006,2.303,5.993,4.241,7.924c1.653,1.646-4.225,2.199-4.225,2.199S66.306,104.314,67.954,102.661z"/>
			<path fill="none" stroke="#F6F6F6" stroke-miterlimit="10" d="M76.544,80.548c12.917,3.378,30.25,7.004,36.584-2.893"/>
			<path fill="none" stroke="#F6F6F6" stroke-miterlimit="10" d="M45.673,126.15c11-10.779,24.119-13.973,35.305-13.413l0.005-0.009
				c22.093,0.094,42.558,5.693,51.096,10.186"/>
			<path fill="none" stroke="#F6F6F6" stroke-miterlimit="10" d="M63.519,115.059c-8.299,3.765-9.705,13.224-4.405,15.637"/>
			<path fill="none" stroke="#F6F6F6" stroke-miterlimit="10" d="M57.435,117.618c-5.629,3.48-17.053,7.16-23.725-1.406"/>
			<path fill="none" stroke="#F6F6F6" stroke-miterlimit="10" d="M64.083,114.87c-8.763,2.573-25.312,3.29-31.057-10.551"/>
			<path fill="none" stroke="#F6F6F6" stroke-miterlimit="10" d="M30.879,105.413c-0.555-1.206-0.026-2.634,1.18-3.189
				c1.206-0.553,2.632-0.025,3.188,1.181L30.879,105.413z"/>
			<path fill="none" stroke="#F6F6F6" stroke-miterlimit="10" d="M31.815,117.55c-0.796-1.063-0.58-2.569,0.483-3.366
				c1.062-0.796,2.567-0.578,3.364,0.482L31.815,117.55z"/>
			<path fill="none" stroke="#F6F6F6" stroke-miterlimit="10" d="M60.09,128.493c1.181,0.604,1.651,2.052,1.048,3.235
				c-0.604,1.181-2.052,1.648-3.234,1.046L60.09,128.493z"/>
			<path fill="none" stroke="#F6F6F6" stroke-miterlimit="10" d="M47.654,127.713c-0.962,0.914-2.483,0.876-3.398-0.085
				c-0.915-0.96-0.878-2.481,0.082-3.396L47.654,127.713z"/>
			<line fill="none" stroke="#F6F6F6" stroke-miterlimit="10" x1="72.183" y1="79.495" x2="72.183" y2="94.999"/>
			<path fill="none" stroke="#F6F6F6" stroke-miterlimit="10" d="M72.96,97.739"/>
			<line fill="none" stroke="#F6F6F6" stroke-miterlimit="10" x1="73.835" y1="101.024" x2="72.96" y2="97.739"/>
			<circle fill="none" stroke="#F6F6F6" stroke-miterlimit="10" cx="58.961" cy="84.083" r="2.817"/>
			<path fill="none" stroke="#F6F6F6" stroke-miterlimit="10" d="M69.836,30.395C67.961,18.26,63.241,12.26,57.435,10.593"/>
			<path fill="none" stroke="#F6F6F6" stroke-miterlimit="10" d="M69.962,31.247c-0.92-8.429-4.327-22.565-8.168-27.315"/>
			<path fill="none" stroke="#F6F6F6" stroke-miterlimit="10" d="M68.765,25.184c-0.18-4.424-0.221-15.424,2.279-18.258"/>
			<circle fill="#F6F6F6" cx="71.044" cy="6.926" r="0.955"/>
			<circle fill="#F6F6F6" cx="61.794" cy="3.931" r="0.955"/>
			<circle fill="#F6F6F6" cx="57.435" cy="10.593" r="0.955"/>
		</g>
		<g>
			<circle fill="#F6F6F6" cx="214.508" cy="128.501" r="0.832"/>
			<path fill="none" stroke="#F6F6F6" stroke-miterlimit="10" d="M207.425,115.455c4.536-0.741,9.333,0.931,12.393,4.789
				c2.81,3.541,2.218,8.688-1.324,11.497c-2.211,1.754-5.425,1.384-7.179-0.827c-1.096-1.38-0.864-3.388,0.516-4.483
				c0.863-0.685,2.116-0.539,2.8,0.322c0.429,0.539,0.339,1.321-0.198,1.749"/>
			<path fill="none" stroke="#F6F6F6" stroke-miterlimit="10" d="M179.676,99.413c1.938,1.633,4.229,2.103,5.111,1.051
				c0.887-1.051,0.03-3.227-1.907-4.858c-1.939-1.633-5.114-1.052-5.114-1.052S177.737,97.781,179.676,99.413z"/>
			<line fill="none" stroke="#F6F6F6" stroke-miterlimit="10" x1="184.686" y1="100.668" x2="181.623" y2="98.091"/>
			<path fill="none" stroke="#F6F6F6" stroke-miterlimit="10" d="M197.858,76.277c1.696,1.883,3.9,2.662,4.921,1.742
				c1.021-0.92,0.473-3.192-1.225-5.075c-1.698-1.883-4.921-1.742-4.921-1.742S196.161,74.394,197.858,76.277z"/>
			<line fill="none" stroke="#F6F6F6" stroke-miterlimit="10" x1="202.648" y1="78.208" x2="199.967" y2="75.235"/>
			<path fill="none" stroke="#F6F6F6" stroke-miterlimit="10" d="M246.16,55.45c-0.651-1.642-2.515-2.443-4.153-1.79
				c-1.314,0.523-1.955,2.011-1.434,3.325c0.418,1.051,1.608,1.563,2.66,1.146c0.84-0.335,1.25-1.287,0.916-2.129"/>
			<g>
				<path fill="none" stroke="#F6F6F6" stroke-miterlimit="10" d="M232.691,55.535c3.655,0.383,1.927-2.793,2.31-6.446
					c0.385-3.653,2.731-6.402-0.922-6.785c-3.652-0.383-7.311,5.923-7.311,5.923S229.038,55.152,232.691,55.535z"/>
				<path fill="none" stroke="#F6F6F6" stroke-miterlimit="10" d="M229.221,44.942c0.735-0.079,1.521-0.087,2.34-0.001
					c1.574,0.165,2.982,0.633,4.061,1.278c-0.243,0.861-0.512,1.826-0.621,2.869c-0.105,1.043-0.046,2.042,0.016,2.936
					c-1.188,0.408-2.664,0.574-4.238,0.409c-0.816-0.086-1.584-0.256-2.288-0.486c-1.101-1.851-1.72-3.721-1.72-3.721
					S227.76,46.524,229.221,44.942z"/>
			</g>
			<path fill="none" stroke="#F6F6F6" stroke-miterlimit="10" d="M249.491,64.927c-1.828-11.001-9.828-36.667,2.172-46.334"/>
			<circle fill="#F6F6F6" cx="244.148" cy="56.001" r="0.69"/>
			<path fill="none" stroke="#F6F6F6" stroke-miterlimit="10" d="M216.663,91.212c-1.188-1.491-4.85-0.551-4.85-0.551
				s-1.738,3.354-0.553,4.845"/>
			<path fill="none" stroke="#F6F6F6" stroke-miterlimit="10" d="M202.589,103.492c1.303,1.395,4.879,0.17,4.879,0.17
				s1.472-3.479,0.173-4.873"/>
			<path fill="none" stroke="#F6F6F6" stroke-miterlimit="10" d="M220.257,88.713c0.996,1.625,4.745,1.136,4.745,1.136
				s2.136-3.118,1.141-4.741"/>
			<path fill="none" stroke="#F6F6F6" stroke-miterlimit="10" d="M199.034,106.441c-1.363-1.334-4.881,0.051-4.881,0.051
				s-1.312,3.543,0.047,4.876"/>
			<path fill="none" stroke="#F6F6F6" stroke-miterlimit="10" d="M173.782,128.397c18.938-5.032,35.149-50.143,83.002-50.143
				c3.628,0,6.568,2.941,6.568,6.568c0,3.628-2.94,6.568-6.568,6.568c-3.627,0-6.566-2.94-6.566-6.568
				c0-4.812,3.32-35.896-15.555-35.896"/>
			<path fill="none" stroke="#F6F6F6" stroke-miterlimit="10" d="M185.221,121.129c3.606-6.703,5.057-15.633-0.751-20.751"/>
			<path fill="none" stroke="#F6F6F6" stroke-miterlimit="10" d="M251.309,18.888c2.387-1.846,5.381-2.943,8.631-2.943
				c6.238,0,11.296,5.058,11.296,11.296c0,4.991-4.046,9.037-9.037,9.037c-3.993,0-7.229-3.236-7.229-7.229
				c0-3.194,2.59-5.783,5.781-5.783"/>
			<path fill="none" stroke="#F6F6F6" stroke-miterlimit="10" d="M265.179,29.662c0,0,0.604-4.423-0.287-5.779
				c-0.894-1.354-2.713-1.729-4.067-0.838c-1.354,0.892-1.729,2.714-0.84,4.068C260.878,28.468,265.179,29.662,265.179,29.662z"/>
			<path fill="none" stroke="#F6F6F6" stroke-miterlimit="10" d="M246.003,28.374c1.18-9.714-4.242-19.383-13.762-23.179
				c-9.072-3.619-19.36,0.803-22.979,9.874"/>
			<path fill="none" stroke="#F6F6F6" stroke-miterlimit="10" d="M209.13,22.554c0,0,2.877-3.413,2.85-5.036
				c-0.028-1.621-1.366-2.913-2.988-2.885c-1.621,0.028-2.914,1.366-2.885,2.987C206.133,19.243,209.13,22.554,209.13,22.554z"/>
			<path fill="none" stroke="#F6F6F6" stroke-miterlimit="10" d="M247.503,102.661c-1.479-1.487-1.878-7.937-4.212-7.938
				c-2.337-0.006-2.303,5.993-4.239,7.924c-1.653,1.646,4.225,2.199,4.225,2.199S249.152,104.314,247.503,102.661z"/>
			<path fill="none" stroke="#F6F6F6" stroke-miterlimit="10" d="M238.913,80.548c-12.916,3.378-30.25,7.004-36.583-2.893"/>
			<g>
				<path fill="none" stroke="#F6F6F6" stroke-miterlimit="10" d="M269.784,126.15c-11-10.779-24.119-13.973-35.305-13.413
					l-0.004-0.009c-22.094,0.094-42.56,5.693-51.098,10.186"/>
				<path fill="none" stroke="#F6F6F6" stroke-miterlimit="10" d="M251.938,115.059c8.299,3.765,9.705,13.224,4.406,15.637"/>
				<path fill="none" stroke="#F6F6F6" stroke-miterlimit="10" d="M258.023,117.618c5.628,3.48,17.052,7.16,23.725-1.406"/>
				<path fill="none" stroke="#F6F6F6" stroke-miterlimit="10" d="M251.375,114.87c8.765,2.573,25.312,3.29,31.059-10.551"/>
				<path fill="none" stroke="#F6F6F6" stroke-miterlimit="10" d="M284.579,105.413c0.557-1.206,0.026-2.634-1.18-3.189
					c-1.206-0.553-2.632-0.025-3.188,1.181L284.579,105.413z"/>
				<path fill="none" stroke="#F6F6F6" stroke-miterlimit="10" d="M283.641,117.55c0.797-1.063,0.58-2.569-0.482-3.366
					c-1.062-0.796-2.566-0.578-3.364,0.482L283.641,117.55z"/>
				<path fill="none" stroke="#F6F6F6" stroke-miterlimit="10" d="M255.368,128.493c-1.182,0.604-1.649,2.052-1.048,3.235
					c0.604,1.181,2.052,1.648,3.233,1.046L255.368,128.493z"/>
				<path fill="none" stroke="#F6F6F6" stroke-miterlimit="10" d="M267.803,127.713c0.962,0.914,2.48,0.876,3.396-0.085
					c0.915-0.96,0.878-2.481-0.082-3.396L267.803,127.713z"/>
			</g>
			<line fill="none" stroke="#F6F6F6" stroke-miterlimit="10" x1="243.275" y1="79.495" x2="243.275" y2="94.999"/>
			<path fill="none" stroke="#F6F6F6" stroke-miterlimit="10" d="M242.497,97.739"/>
			<line fill="none" stroke="#F6F6F6" stroke-miterlimit="10" x1="241.622" y1="101.024" x2="242.497" y2="97.739"/>
			<circle fill="none" stroke="#F6F6F6" stroke-miterlimit="10" cx="256.126" cy="84.083" r="2.817"/>
			<g>
				<path fill="none" stroke="#F6F6F6" stroke-miterlimit="10" d="M245.714,30.395c1.875-12.135,6.595-18.135,12.399-19.802"/>
				<path fill="none" stroke="#F6F6F6" stroke-miterlimit="10" d="M245.587,31.247c0.922-8.429,4.328-22.565,8.17-27.315"/>
				<path fill="none" stroke="#F6F6F6" stroke-miterlimit="10" d="M246.785,25.184c0.181-4.424,0.222-15.424-2.278-18.258"/>
				<circle fill="#F6F6F6" cx="244.506" cy="6.926" r="0.955"/>
				<circle fill="#F6F6F6" cx="253.756" cy="3.931" r="0.955"/>
				<circle fill="#F6F6F6" cx="258.115" cy="10.593" r="0.955"/>
			</g>
		</g>
	</g>
</g>
<g id="Icon">
</g>
<g id="Your_Icon">
	<path d="M156.605,102.157l0.215-0.195c1.052-0.954,1.654-2.316,1.654-3.735c0-1.419-0.602-2.781-1.654-3.735l-0.215-0.197
		l-0.216,0.196c-1.052,0.954-1.655,2.316-1.655,3.735c0,1.419,0.603,2.78,1.655,3.735L156.605,102.157z"/>
	<path d="M144.108,107.728l0.289,0.033l0.062-0.284c0.3-1.387,0-2.846-0.825-4.001c-0.825-1.155-2.106-1.911-3.517-2.078
		l-0.289-0.034l-0.061,0.284c-0.301,1.387,0,2.846,0.823,4.001C141.416,106.805,142.698,107.563,144.108,107.728z"/>
	<path d="M129.577,113.801c0.781,0.465,1.672,0.712,2.577,0.712c0.501,0,0.998-0.075,1.479-0.221l0.278-0.086l-0.056-0.283
		c-0.283-1.393-1.144-2.607-2.364-3.334c-1.213-0.723-2.707-0.901-4.056-0.491l-0.278,0.085l0.058,0.285
		C127.497,111.86,128.359,113.075,129.577,113.801z"/>
	<path d="M125.579,122.501c0.486,0.109,0.981,0.147,1.475,0.11l0,0c0.908-0.067,1.783-0.381,2.532-0.906l0.238-0.168l-0.144-0.253
		c-0.701-1.235-1.898-2.12-3.283-2.432c-1.382-0.31-2.852-0.016-4.007,0.799l-0.237,0.167l0.143,0.253
		C122.996,121.304,124.193,122.19,125.579,122.501z"/>
	<path d="M131.06,131.319l-0.222-0.187c-1.089-0.913-2.515-1.325-3.925-1.134c-1.407,0.19-2.674,0.972-3.478,2.143l-0.164,0.24
		l0.223,0.186c0.961,0.807,2.18,1.226,3.43,1.177c0.164-0.007,0.33-0.02,0.493-0.043c1.406-0.191,2.673-0.972,3.478-2.143
		L131.06,131.319z"/>
	<path d="M141.148,138.28c-1.215,0.732-2.069,1.952-2.345,3.345l-0.056,0.287l0.279,0.083c0.778,0.233,1.609,0.275,2.403,0.122l0,0
		c0.582-0.112,1.138-0.324,1.65-0.634c1.215-0.732,2.071-1.952,2.345-3.345l0.057-0.287l-0.279-0.083
		C143.851,137.365,142.359,137.552,141.148,138.28z"/>
	<path d="M155.944,118.016l-0.233-0.113l-0.133,0.221c-0.902,1.491-1.135,3.304-0.637,4.974c0.497,1.669,1.684,3.059,3.255,3.814
		l0.233,0.112l0.133-0.221c0.901-1.49,1.135-3.304,0.636-4.973C158.703,120.16,157.516,118.771,155.944,118.016z"/>
	<path d="M158.023,106.037l-0.133-0.216l-0.226,0.112c-1.533,0.758-2.683,2.132-3.154,3.776c-0.47,1.643-0.224,3.419,0.677,4.871
		l0.133,0.217l0.225-0.113c1.534-0.756,2.683-2.131,3.154-3.775C159.17,109.266,158.923,107.491,158.023,106.037z"/>
	<path d="M149.208,130.925c0.799-0.064,1.579-0.238,2.319-0.522l0.283-0.109l-0.089-0.256c-0.605-1.724-2.024-3.138-3.895-3.876
		c-1.859-0.736-4.052-0.737-5.944-0.015l-0.283,0.108l0.089,0.255c0.605,1.725,2.024,3.139,3.894,3.878
		C146.713,130.838,147.967,131.023,149.208,130.925L149.208,130.925z"/>
	<path d="M138.612,135.626c0.099-0.006,0.198-0.012,0.299-0.023c1.749-0.173,3.353-1.083,4.401-2.495l0.174-0.233l-0.216-0.195
		c-1.314-1.188-3.022-1.757-4.805-1.582c-1.749,0.174-3.353,1.083-4.401,2.495l-0.173,0.233l0.215,0.195
		C135.346,135.142,136.946,135.711,138.612,135.626L138.612,135.626z"/>
	<path d="M141.002,121.865l0.262-0.123l-0.098-0.274c-0.594-1.655-1.865-2.991-3.488-3.664c-1.247-0.518-2.597-0.619-3.903-0.291
		c-0.395,0.099-0.785,0.238-1.154,0.413l-0.263,0.122l0.097,0.274c0.594,1.654,1.865,2.991,3.487,3.665
		c1.248,0.518,2.598,0.617,3.904,0.291C140.243,122.178,140.631,122.039,141.002,121.865z"/>
	<path d="M137.968,127.269l0.207-0.194l-0.173-0.224c-1.048-1.359-2.628-2.218-4.336-2.356c-1.311-0.107-2.596,0.204-3.709,0.898
		c-0.338,0.211-0.658,0.456-0.949,0.728l-0.206,0.194l0.172,0.224c1.046,1.358,2.627,2.218,4.336,2.357
		c1.311,0.107,2.594-0.205,3.709-0.899C137.357,127.787,137.678,127.541,137.968,127.269z"/>
	<path d="M137.736,113.048c1.134,1.007,2.592,1.569,4.107,1.578c0.001,0,0.001,0,0.001,0c0.234,0.002,0.474-0.01,0.708-0.035
		l0.289-0.031l-0.003-0.291c-0.017-1.759-0.781-3.437-2.094-4.605c-1.134-1.008-2.593-1.57-4.109-1.58
		c-0.235-0.002-0.474,0.011-0.707,0.035l-0.289,0.031l0.002,0.29C135.658,110.198,136.422,111.877,137.736,113.048z"/>
	<path d="M151.026,109.011l0.246,0.152l0.178-0.223c1.078-1.346,1.521-3.079,1.217-4.755c-0.305-1.678-1.333-3.159-2.819-4.069
		l-0.246-0.15l-0.178,0.221c-1.077,1.346-1.521,3.079-1.217,4.756C148.511,106.62,149.538,108.102,151.026,109.011z"/>
	<path d="M144.086,118.228l-0.259,0.03l0.007,0.219c0.051,1.471,0.844,2.856,2.181,3.802c1.29,0.91,2.932,1.335,4.625,1.194l0,0
		c0.078-0.007,0.156-0.015,0.234-0.021l0.259-0.031l-0.008-0.218c-0.048-1.471-0.843-2.857-2.179-3.801
		C147.594,118.446,145.846,118.03,144.086,118.228z"/>
	<path d="M145.834,110.173l-0.243-0.024l-0.038,0.199c-0.258,1.355,0.184,2.784,1.211,3.922c0.991,1.097,2.403,1.822,3.981,2.041
		l0,0c0.071,0.011,0.144,0.019,0.217,0.026l0.243,0.027l0.038-0.201c0.257-1.354-0.185-2.783-1.212-3.922
		C148.993,111.095,147.482,110.355,145.834,110.173z"/>
	<path d="M170.389,107.728l-0.288,0.033l-0.061-0.284c-0.302-1.387,0-2.846,0.824-4.001c0.825-1.155,2.106-1.911,3.516-2.078
		l0.289-0.034l0.061,0.284c0.301,1.387,0.001,2.846-0.824,4.001C173.08,106.805,171.8,107.563,170.389,107.728z"/>
	<path d="M184.921,113.801c-0.781,0.465-1.672,0.712-2.578,0.712c-0.501,0-0.998-0.075-1.479-0.221l-0.277-0.086l0.057-0.283
		c0.282-1.393,1.143-2.607,2.364-3.334c1.212-0.723,2.705-0.901,4.055-0.491l0.278,0.085l-0.058,0.285
		C187.003,111.86,186.14,113.075,184.921,113.801z"/>
	<path d="M188.921,122.501c-0.486,0.109-0.982,0.147-1.474,0.11l0,0c-0.909-0.067-1.784-0.381-2.534-0.906l-0.238-0.168l0.145-0.253
		c0.702-1.235,1.898-2.12,3.283-2.432c1.382-0.31,2.851-0.016,4.006,0.799l0.238,0.167l-0.145,0.253
		C191.502,121.304,190.306,122.19,188.921,122.501z"/>
	<path d="M183.439,131.319l0.222-0.187c1.088-0.913,2.515-1.325,3.925-1.134c1.406,0.19,2.672,0.972,3.477,2.143l0.164,0.24
		l-0.222,0.186c-0.963,0.807-2.18,1.226-3.431,1.177c-0.163-0.007-0.33-0.02-0.493-0.043c-1.407-0.191-2.674-0.972-3.479-2.143
		L183.439,131.319z"/>
	<path d="M173.351,138.28c1.214,0.732,2.069,1.952,2.343,3.345l0.056,0.287l-0.278,0.083c-0.779,0.233-1.61,0.275-2.404,0.122l0,0
		c-0.583-0.112-1.137-0.324-1.649-0.634c-1.217-0.732-2.071-1.952-2.347-3.345l-0.056-0.287l0.279-0.083
		C170.647,137.365,172.141,137.552,173.351,138.28z"/>
	<path d="M165.289,130.925c-0.798-0.064-1.577-0.238-2.318-0.522l-0.283-0.109l0.09-0.256c0.605-1.724,2.024-3.138,3.894-3.876
		c1.859-0.736,4.053-0.737,5.943-0.015l0.283,0.108l-0.088,0.255c-0.605,1.725-2.024,3.139-3.894,3.878
		C167.786,130.838,166.531,131.023,165.289,130.925L165.289,130.925z"/>
	<path d="M175.887,135.626c-0.099-0.006-0.199-0.012-0.299-0.023c-1.749-0.173-3.353-1.083-4.401-2.495l-0.174-0.233l0.216-0.195
		c1.315-1.188,3.024-1.757,4.807-1.582c1.749,0.174,3.352,1.083,4.401,2.495l0.173,0.233l-0.216,0.195
		C179.153,135.142,177.553,135.711,175.887,135.626C175.888,135.626,175.888,135.626,175.887,135.626z"/>
	<path d="M173.498,121.865l-0.262-0.123l0.097-0.274c0.595-1.655,1.865-2.991,3.487-3.664c1.248-0.518,2.598-0.619,3.903-0.291
		c0.397,0.099,0.785,0.238,1.155,0.413l0.262,0.122l-0.097,0.274c-0.594,1.654-1.864,2.991-3.488,3.665
		c-1.247,0.518-2.597,0.617-3.902,0.291C174.256,122.178,173.868,122.039,173.498,121.865z"/>
	<path d="M176.529,127.269l-0.205-0.194l0.172-0.224c1.047-1.359,2.628-2.218,4.336-2.356c1.311-0.107,2.595,0.204,3.709,0.898
		c0.337,0.211,0.656,0.456,0.948,0.728l0.207,0.194l-0.173,0.224c-1.046,1.358-2.627,2.218-4.336,2.357
		c-1.312,0.107-2.595-0.205-3.71-0.899C177.141,127.787,176.821,127.541,176.529,127.269z"/>
	<path d="M176.763,113.048c-1.134,1.007-2.593,1.569-4.107,1.578l0,0c-0.238,0.002-0.475-0.01-0.71-0.035l-0.29-0.031l0.003-0.291
		c0.019-1.759,0.781-3.437,2.094-4.605c1.134-1.008,2.593-1.57,4.109-1.58c0.236-0.002,0.474,0.011,0.708,0.035l0.289,0.031
		l-0.003,0.29C178.839,110.198,178.076,111.877,176.763,113.048z"/>
	<path d="M163.473,109.011l-0.246,0.152l-0.178-0.223c-1.078-1.346-1.521-3.079-1.217-4.755c0.305-1.678,1.333-3.159,2.818-4.069
		l0.247-0.15l0.178,0.221c1.077,1.346,1.52,3.079,1.217,4.756S164.959,108.102,163.473,109.011z"/>
	<path d="M170.413,118.228l0.259,0.03l-0.007,0.219c-0.051,1.471-0.844,2.856-2.182,3.802c-1.289,0.91-2.931,1.335-4.623,1.194l0,0
		c-0.08-0.007-0.157-0.015-0.235-0.021l-0.258-0.031l0.007-0.218c0.05-1.471,0.844-2.857,2.18-3.801
		C166.904,118.446,168.652,118.03,170.413,118.228z"/>
	<path d="M167.487,110.962l0.266,0.005l0.016,0.221c0.102,1.502-0.564,2.993-1.828,4.09c-1.219,1.059-2.845,1.659-4.583,1.689l0,0
		c-0.078,0.001-0.159,0.001-0.239,0l-0.266-0.003l-0.016-0.221c-0.1-1.502,0.567-2.993,1.831-4.091
		C163.94,111.544,165.676,110.943,167.487,110.962z"/>
	<path d="M166.619,133.617c-0.131,0.024-0.281,0.072-0.435,0.132c-1.354,0.438-5.449,2.058-8.933,6.004
		c-3.486-3.946-7.581-5.565-8.933-6.004c-0.156-0.06-0.305-0.109-0.435-0.132c-0.585-0.216-1.355,1.008-0.621,1.514
		c2.529,1.666,4.988,3.707,5.756,7.672c0.469,2.426,0.39,5.694,0.326,8.807c-0.11,5.339-1.057,10.54-5.462,12.57
		c1.226,0.321,4.785,0.616,9.372-2.496c4.585,3.113,8.145,2.816,9.372,2.496c-4.407-2.029-5.354-7.23-5.464-12.57
		c-0.062-3.113-0.143-6.381,0.327-8.807c0.767-3.964,3.226-6.005,5.756-7.672C167.974,134.626,167.204,133.401,166.619,133.617z"/>
	<circle cx="157.25" cy="132.797" r="2.549"/>
</g>
</svg>
