<?xml version="1.0" encoding="utf-8"?>
<!-- Generator: Adobe Illustrator 17.0.0, SVG Export Plug-In . SVG Version: 6.00 Build 0)  -->
<!DOCTYPE svg PUBLIC "-//W3C//DTD SVG 1.1//EN" "http://www.w3.org/Graphics/SVG/1.1/DTD/svg11.dtd">
<svg version="1.1" id="Layer_1" xmlns="http://www.w3.org/2000/svg" xmlns:xlink="http://www.w3.org/1999/xlink" x="0px" y="0px"
	 width="100px" height="100px" viewBox="0 0 100 100" enable-background="new 0 0 100 100" xml:space="preserve">
<path fill="#B21713" d="M91.725,39.456l-0.054-0.36c-0.238-1.624-1.745-2.74-3.371-2.51c-0.121,0.018-0.233,0.056-0.348,0.087
	c-1.059-4.651-2.948-8.989-5.513-12.844c0.076-0.049,0.163-0.071,0.236-0.128c1.291-1.013,1.516-2.881,0.503-4.171l-0.25-0.313
	c-1.029-1.278-2.903-1.478-4.177-0.448c-0.062,0.05-0.11,0.111-0.167,0.165c-5.781-6.248-13.58-10.598-22.353-12.003
	c0.001-0.013,0.005-0.024,0.006-0.036c0.129-1.636-1.093-3.067-2.728-3.197l-0.38-0.029c-1.683-0.134-3.061,1.113-3.178,2.75
	c-0.001,0.007,0.001,0.014,0.001,0.022c-9.042,0.025-17.362,3.161-23.96,8.385c-0.046-0.059-0.081-0.122-0.131-0.178
	c-1.1-1.218-2.979-1.315-4.197-0.215l-0.286,0.26c-1.209,1.11-1.289,2.99-0.179,4.198c0.065,0.071,0.142,0.124,0.213,0.187
	c-5.671,6.191-9.357,14.22-10.071,23.077c-0.186-0.039-0.377-0.063-0.574-0.065c-0.012,0-0.024,0-0.036,0
	c-1.624,0-2.951,1.307-2.971,2.936l-0.002,0.397c0,1.641,1.33,2.971,2.971,2.971c0.206,0,0.408-0.021,0.602-0.062
	c0.685,8.827,4.32,16.839,9.934,23.035c-0.136,0.102-0.268,0.21-0.389,0.337c-1.126,1.194-1.069,3.075,0.125,4.2l0.293,0.271
	c0.571,0.524,1.291,0.782,2.009,0.782c0.803,0,1.604-0.324,2.189-0.962c0.111-0.121,0.201-0.253,0.288-0.385
	c3.153,2.531,6.705,4.581,10.549,6.039l-4.151,11.705c-0.285,0.803,0.135,1.688,0.94,1.973c0.171,0.062,0.345,0.089,0.516,0.089
	c0.636,0,1.233-0.395,1.457-1.029l4.171-11.761c3.269,0.948,6.712,1.478,10.271,1.526c-0.001,0.08-0.012,0.157-0.007,0.238
	c0.115,1.564,1.418,2.755,2.961,2.755c0.073,0,0.147-0.003,0.219-0.007l0.358-0.026c1.637-0.119,2.867-1.542,2.75-3.179
	c-0.005-0.066-0.024-0.127-0.033-0.192c2.415-0.358,4.755-0.944,7.005-1.726l4.838,12.419c0.237,0.61,0.822,0.984,1.439,0.984
	c0.189,0,0.376-0.034,0.562-0.107c0.794-0.309,1.187-1.206,0.877-2l-4.839-12.424c4.767-2.097,9.032-5.125,12.571-8.852
	c0.059,0.058,0.109,0.122,0.174,0.176c0.554,0.46,1.226,0.683,1.893,0.683c0.855,0,1.702-0.367,2.29-1.077l0.245-0.3
	c1.036-1.272,0.842-3.144-0.432-4.179c-0.075-0.061-0.159-0.104-0.238-0.157c4.265-6.237,6.765-13.771,6.765-21.88
	c0-0.824-0.034-1.639-0.085-2.45c0.121-0.003,0.244-0.009,0.367-0.027C90.835,42.588,91.96,41.08,91.725,39.456z M50.067,78.222
	c-3.053,0-6.006-0.426-8.813-1.207l1.124-3.168c2.457,0.663,5.026,1.049,7.689,1.049c3.269,0,6.406-0.554,9.349-1.537l1.214,3.116
	C57.311,77.602,53.761,78.222,50.067,78.222z M53.306,43.611c-1.315-1.595-3.617-1.868-5.137-0.613
	c-1.522,1.251-1.691,3.562-0.376,5.158c0.094,0.113,0.203,0.205,0.307,0.307l-7.67,21.628c-9.924-3.872-16.986-13.511-16.986-24.789
	c0-14.68,11.943-26.623,26.623-26.623S76.69,30.622,76.69,45.302c0,10.699-6.358,19.919-15.482,24.146L53.09,48.605
	C54.446,47.32,54.568,45.141,53.306,43.611z M50.588,50.697l7.75,19.895c-2.607,0.855-5.382,1.332-8.271,1.332
	c-2.315,0-4.55-0.328-6.693-0.886L50.588,50.697z M63.505,75.344l-1.216-3.121c10.231-4.664,17.373-14.963,17.373-26.92
	c0-16.319-13.276-29.595-29.595-29.595S20.472,28.984,20.472,45.303c0,12.568,7.889,23.304,18.965,27.587l-1.12,3.159
	c-12.366-4.742-21.172-16.731-21.172-30.746c0-18.153,14.768-32.922,32.922-32.922s32.921,14.768,32.921,32.922
	C82.987,58.669,74.975,70.192,63.505,75.344z"/>
</svg>
