<?xml version="1.0" encoding="utf-8"?>
<!-- Generator: Adobe Illustrator 17.0.0, SVG Export Plug-In . SVG Version: 6.00 Build 0)  -->
<!DOCTYPE svg PUBLIC "-//W3C//DTD SVG 1.1//EN" "http://www.w3.org/Graphics/SVG/1.1/DTD/svg11.dtd">
<svg version="1.1" id="Layer_1" xmlns="http://www.w3.org/2000/svg" xmlns:xlink="http://www.w3.org/1999/xlink" x="0px" y="0px"
	 width="66px" height="66px" viewBox="17 17 66 66" enable-background="new 17 17 66 66" xml:space="preserve">
<g id="XMLID_36_">
	<g>
		<g id="XMLID_37_">
			<g>
				<path fill="#B21713" d="M60.969,40.438c7.001,4.467,11.744,13.085,11.744,22.977c0,14.481-10.161,17.657-22.701,17.657
					s-22.709-3.176-22.709-17.657c0-9.893,4.743-18.51,11.753-22.977c-1.949-2.282-3.119-5.182-3.119-8.349
					c0-7.35,6.295-13.304,14.075-13.304c7.773,0,14.075,5.953,14.075,13.304C64.087,35.257,62.918,38.156,60.969,40.438z
					 M63.893,55.692c0.292-5.718-5.32-8.195-9.397-6.847c-2.502,0.837-4.248,2.851-4.483,4.979c-0.244-2.128-1.99-4.142-4.491-4.979
					c-4.077-1.348-9.681,1.129-9.389,6.847c0.357,5.263,11.265,13.474,14.108,16.106C53.082,69.166,63.527,60.955,63.893,55.692z"/>
			</g>
		</g>
	</g>
</g>
</svg>
