<?xml version="1.0" encoding="utf-8"?>
<!-- Generator: Adobe Illustrator 17.0.0, SVG Export Plug-In . SVG Version: 6.00 Build 0)  -->
<!DOCTYPE svg PUBLIC "-//W3C//DTD SVG 1.1//EN" "http://www.w3.org/Graphics/SVG/1.1/DTD/svg11.dtd">
<svg version="1.1" id="Layer_1" xmlns="http://www.w3.org/2000/svg" xmlns:xlink="http://www.w3.org/1999/xlink" x="0px" y="0px"
	 width="239.5px" height="167.275px" viewBox="0 0 239.5 167.275" enable-background="new 0 0 239.5 167.275" xml:space="preserve">
<g id="Layer_2">
</g>
<g id="Layer_1_1_">
</g>
<g id="Layer_4">
</g>
<g id="Layer_5" display="none">
	<g display="inline">
		<path fill="#E28E76" d="M2801.952,290.502h9.321V219.46h-9.321v-1.177h35.424c22.371,0,38.072,16.386,38.072,36.502
			c0,20.312-15.701,36.895-38.072,36.895h-35.424V290.502z M2823.638,290.502V219.46h-11.186v71.042H2823.638z M2814.415,221.423
			h7.262v67.116h-7.262V221.423z M2837.376,290.502c8.635,0,16.387-2.551,22.471-6.967v-57.107
			c-6.084-4.416-13.836-6.967-22.471-6.967h-12.562v71.042L2837.376,290.502L2837.376,290.502z M2874.271,254.785
			c0-11.088-5.004-20.999-13.246-27.475v55.342C2869.268,276.177,2874.271,266.068,2874.271,254.785z M2862.987,231.627
			c5.887,5.986,9.319,14.13,9.319,23.158c0,9.322-3.237,17.367-9.319,23.451V231.627z"/>
		<path fill="#E28E76" d="M2905.314,291.68c14.72,0,19.523-13.443,19.523-13.443l1.178,0.396c0,0-5.004,14.229-20.701,14.229
			c-14.133,0-24.334-11.676-24.334-25.51c0-14.328,10.691-25.709,23.939-25.709c12.658,0,21.488,10.4,22.371,23.549h-32.479v24.041
			C2897.857,290.796,2901.39,291.68,2905.314,291.68z M2893.638,245.953c-6.866,4.221-11.479,12.169-11.479,21.393
			c0,9.025,4.416,16.979,11.479,21.193V245.953z M2884.12,267.346c0-7.062,2.945-13.443,7.555-17.562v35.029
			C2886.868,280.688,2884.12,274.409,2884.12,267.346z M2912.479,264.009v-19.821c-2.354-0.883-4.808-1.373-7.556-1.373
			c-3.631,0-7.062,0.883-10.104,2.551v18.644L2912.479,264.009L2912.479,264.009z M2926.02,264.009
			c-0.781-8.731-5.396-15.993-12.361-19.232v19.232H2926.02z M2915.618,248.111c4.219,2.945,7.262,8.047,8.241,13.936h-8.241
			V248.111z"/>
		<path fill="#E28E76" d="M2944.05,290.502h9.322V219.46h-9.322v-1.177h37.582c14.031,0,23.254,8.635,23.254,19.723
			c0,7.654-4.313,14.817-12.461,18.545c8.146,3.141,11.578,9.521,11.578,17.271v17.857c6.084-0.591,10.399-5.889,10.399-12.465
			h1.179c0,7.559-5.396,13.643-12.757,13.643c-7.356,0-12.854-6.084-12.854-14.131v-21.488h-23.06v33.265h9.32v1.179h-32.186v-1.18
			L2944.05,290.502L2944.05,290.502z M2965.735,290.502V219.46h-11.188v71.042H2965.735z M2956.513,221.423h7.261v67.116h-7.261
			V221.423z M2989.972,256.061v-35.325c-2.551-0.785-5.299-1.275-8.34-1.275h-14.719v36.6H2989.972z M3003.71,238.006
			c0-7.654-4.81-14.032-12.562-16.877v34.834C2999.294,252.432,3003.71,245.464,3003.71,238.006z M3002.825,291.68v-17.855
			c0-7.457-3.531-13.643-11.677-16.485v21.394C2991.148,286.186,2996.056,291.68,3002.825,291.68z M2993.112,224.17
			c5.396,2.944,8.635,7.948,8.635,13.835c0,5.691-3.437,11.384-8.635,14.817V224.17z M2993.112,260.378
			c5.102,2.847,7.752,7.751,7.752,13.442v15.701c-4.613-0.887-7.752-5.201-7.752-10.795V260.378z"/>
		<path fill="#E28E76" d="M3042.665,241.637c14.326,0,26.103,11.774,26.103,25.708c0,13.735-11.773,25.513-26.103,25.513
			s-26.101-11.774-26.101-25.513C3016.564,253.411,3028.339,241.637,3042.665,241.637z M3029.124,246.837
			c-6.869,4.416-11.383,12.069-11.383,20.509c0,8.438,4.514,15.993,11.383,20.409V246.837z M3019.704,267.346
			c0-6.674,2.551-12.267,7.457-16.486v32.873C3022.55,279.609,3019.704,273.82,3019.704,267.346z M3042.665,291.68
			c4.514,0,8.731-1.178,12.463-3.337V246.15c-3.729-2.062-7.949-3.336-12.463-3.336s-8.731,1.177-12.363,3.336v42.292
			C3033.934,290.502,3038.15,291.68,3042.665,291.68z M3067.589,267.346c0-8.438-4.514-16.093-11.284-20.509v40.819
			C3063.075,283.241,3067.589,275.686,3067.589,267.346z M3058.268,250.859c4.612,4.121,7.358,10.009,7.358,16.485
			c0,6.378-2.746,12.165-7.358,16.285V250.859z"/>
		<path fill="#E28E76" d="M3073.575,275.293h1.178v6.771c0.687,0.883,7.457,9.614,19.035,9.614c5.688,0,10.989-1.964,14.129-5.595
			c-0.195-0.395-0.882-2.062-3.041-3.436l-20.509-13.053c-7.457-4.707-10.399-7.162-10.399-12.656
			c0-10.499,8.635-15.308,18.447-15.308c8.045,0,13.438,4.121,15.698,6.183v-5.887h1.179v15.307h-1.179v-7.652
			c-0.588-0.688-6.084-6.77-15.698-6.77c-5.691,0-10.99,1.668-14.132,5.295c0.195,0.688,1.181,2.85,3.236,4.121l21.1,13.541
			c6.183,3.929,9.42,6.674,9.42,12.168c0,9.521-8.537,14.914-18.252,14.914c-9.909,0-16.582-6.277-19.034-9.024v7.852h-1.179
			L3073.575,275.293L3073.575,275.293z M3105.466,281.67c1.668,1.081,2.648,2.454,3.236,3.436c1.375-1.963,2.16-4.416,2.16-7.162
			c0-5.104-2.552-7.161-8.832-11.188l-21.097-13.541c-1.864-1.178-3.043-2.846-3.532-4.023c-1.476,2.062-2.257,4.613-2.257,7.756
			c0,5.004,2.257,6.865,9.812,11.676L3105.466,281.67z M3077.107,256.943c0-1.471,0.099-2.648,0.488-3.826
			c0.588,0.588,1.568,1.275,2.258,1.766l21.099,13.541c5.69,3.631,7.946,5.396,7.946,9.52c0,1.18-0.196,2.453-0.489,3.531
			c0,0.101,0,0.101,0,0.101s-1.474-1.275-1.865-1.569l-20.508-13.051C3079.167,262.537,3077.107,260.966,3077.107,256.943z"/>
		<path fill="#E28E76" d="M3131.368,266.952h3.729c6.479,0,11.188-2.943,11.188-7.556V243.6c-1.769-0.492-3.729-0.785-5.789-0.785
			c-4.516,0-9.127,1.078-12.562,2.846c1.275,1.078,4.516,3.924,4.516,7.063c0,3.435-2.848,5.594-5.789,5.594
			c-3.141,0-5.789-2.354-5.789-5.791c0-5.887,10.009-10.891,19.625-10.891c11.58,0,18.938,7.26,18.938,20.213v29.239
			c5.494-0.688,9.322-5.594,9.322-11.874h1.178c0,7.264-5.006,13.149-11.773,13.149c-5.789,0-10.205-4.023-11.479-9.812
			c-0.688,2.552-1.865,4.808-3.826,6.574c-2.553,2.256-6.28,3.729-11.088,3.729c-9.909,0-14.621-5.689-14.621-12.951
			C3117.143,271.466,3123.128,266.952,3131.368,266.952z M3129.896,291.582v-23.354c-6.866,0.488-11.577,4.514-11.577,11.678
			C3118.319,286.086,3122.048,290.993,3129.896,291.582z M3127.936,270.484v18.84c-5.197-1.079-7.652-4.809-7.652-9.42
			C3120.28,274.605,3123.323,271.466,3127.936,270.484z M3131.271,252.725c0-3.041-3.633-5.888-4.416-6.477
			c-2.942,1.768-4.811,3.926-4.811,6.279c0,2.646,2.062,4.613,4.611,4.613C3129.015,257.141,3131.271,255.374,3131.271,252.725z
			 M3124.011,252.527c0-1.373,0.884-2.649,2.648-3.924c1.08,0.979,2.647,2.551,2.647,4.119c0,1.473-1.272,2.451-2.647,2.451
			C3125.188,255.177,3124.011,254.098,3124.011,252.527z M3131.763,291.68c9.713,0,14.521-6.084,14.521-13.443v-15.012
			c-0.98,1.769-2.65,3.143-4.906,3.924c-1.767,0.688-3.924,0.98-6.279,0.98h-3.729h-0.293v23.551L3131.763,291.68L3131.763,291.68z
			 M3158.157,291.188h0.098V261.85c0-9.224-4.121-15.5-10.793-17.855v34.933C3147.462,285.891,3151.878,291.188,3158.157,291.188z
			 M3149.425,247.132c4.22,2.647,6.869,7.751,6.869,14.718v27.184c-4.121-0.981-6.869-5.008-6.869-10.106V247.132z"/>
	</g>
</g>
<g>
	<circle fill="#FFFFFF" cx="71.998" cy="83.639" r="1.019"/>
	<circle fill="#FFFFFF" cx="51.021" cy="98.219" r="1.019"/>
	<circle fill="#FFFFFF" cx="167.699" cy="83.639" r="1.019"/>
	<circle fill="#FFFFFF" cx="188.479" cy="98.219" r="1.019"/>
	<circle fill="#FFFFFF" cx="216.121" cy="99.632" r="1.019"/>
	<circle fill="#FFFFFF" cx="23.517" cy="99.632" r="1.019"/>
	<path fill="none" stroke="#FFFFFF" stroke-miterlimit="10" d="M147.022,40.643"/>
	<path fill="none" stroke="#FFFFFF" stroke-miterlimit="10" d="M176.521,118.128c0,0-3.6,2.645-5.217,2.504
		c-1.615-0.138-2.814-1.56-2.68-3.176c0.14-1.616,1.562-2.812,3.179-2.678C173.419,114.915,176.521,118.128,176.521,118.128z"/>
	<path fill="none" stroke="#FFFFFF" stroke-miterlimit="10" d="M218.931,72.167c-4.571-7.642-1.196-17.892,4.179-18.517"/>
	<circle fill="#FFFFFF" cx="223.11" cy="53.651" r="0.912"/>
	<path fill="none" stroke="#FFFFFF" stroke-miterlimit="10" d="M62.979,118.128c0,0,3.6,2.645,5.217,2.504
		c1.615-0.138,2.814-1.56,2.677-3.176s-1.56-2.812-3.176-2.678C66.081,114.915,62.979,118.128,62.979,118.128z"/>
	<g>
		<path fill="#FFFFFF" d="M86.116,60.208h3.049c2.009,0.01,3.508,1.199,3.508,3.408c0,2.188-1.499,3.388-3.508,3.388h-3.049V60.208z
			 M87.796,61.668v3.878h1.299c1.1,0,1.85-0.688,1.85-1.929c0-1.26-0.75-1.949-1.85-1.949H87.796z"/>
		<path fill="#FFFFFF" d="M98.596,64.387l-2.59-4.059v-0.119h1.88l1.549,2.628l1.56-2.628h1.869v0.119l-2.589,4.048v2.63h-1.679
			L98.596,64.387L98.596,64.387z"/>
		<path fill="#FFFFFF" d="M108.526,62.876v4.128h-1.68v-6.796h1.459l3.418,4.127v-4.127h1.68v6.796h-1.449L108.526,62.876z"/>
		<path fill="#FFFFFF" d="M120.065,60.208h1.969l2.58,6.796h-1.699l-0.461-1.249h-2.848l-0.471,1.249h-1.699L120.065,60.208z
			 M120.026,64.526h2.008l-0.979-2.658L120.026,64.526z"/>
		<path fill="#FFFFFF" d="M129.866,64.076c-1.059-0.289-1.565-0.898-1.565-1.839c0-1.179,0.93-2.118,2.774-2.118
			c0.974,0,1.933,0.26,2.459,0.539l-0.479,1.488c-0.521-0.329-1.338-0.59-2.049-0.59c-0.689,0-0.998,0.229-0.998,0.561
			c0,0.3,0.196,0.42,0.616,0.54l1.199,0.358c1.25,0.371,1.818,0.938,1.818,1.881c0,1.309-1.103,2.207-2.797,2.207
			c-1.012,0-2-0.34-2.439-0.588l0.394-1.521c0.51,0.352,1.315,0.67,2.075,0.67c0.683,0,1.052-0.279,1.052-0.648
			c0-0.301-0.302-0.459-0.789-0.602L129.866,64.076z"/>
		<path fill="#FFFFFF" d="M141.284,61.889v5.117h-1.678v-5.117h-2.09v-1.68h5.797v1.68H141.284z"/>
		<path fill="#FFFFFF" d="M149.266,64.387l-2.588-4.059v-0.119h1.879l1.549,2.628l1.559-2.628h1.869v0.119l-2.588,4.048v2.63h-1.68
			L149.266,64.387L149.266,64.387z"/>
	</g>
	<g>
		<path fill="none" stroke="#FFFFFF" stroke-miterlimit="10" d="M120.924,118.285c10.021-10.789,9.883-20.743,38.763-20.743
			c29.963,0,37.967-26.269,37.967-34.478"/>
		<path fill="none" stroke="#FFFFFF" stroke-miterlimit="10" d="M119.753,119.501"/>
		<path fill="none" stroke="#FFFFFF" stroke-miterlimit="10" d="M163.371,97.401c26.279,10.604,27.719,25.384,50.496,25.384
			c22.78,0,29.963-28.73,16.008-40.02c-13.955-11.287-16.213-16.828-16.213-30.988c0-1.264-0.023-2.405-0.075-3.438l-0.052-0.212"/>
		<path fill="none" stroke="#FFFFFF" stroke-miterlimit="10" d="M137.011,101.444c15.083,0,23.904,16.005,31.706,16.005"/>
		<path fill="none" stroke="#FFFFFF" stroke-miterlimit="10" d="M186.798,111.549c5.32,0,9.64-4.312,9.64-9.639
			c0-4.26-3.453-7.713-7.712-7.713c-3.407,0-6.17,2.763-6.17,6.17c0,2.726,2.21,4.936,4.937,4.936c2.183,0,3.947-1.768,3.947-3.945
			c0-1.745-1.414-3.159-3.158-3.159"/>
		<path fill="none" stroke="#FFFFFF" stroke-miterlimit="10" d="M166.018,97.068c5.324,0,9.64-4.314,9.64-9.642
			c0-4.26-3.452-7.712-7.711-7.712c-3.408,0-6.17,2.766-6.17,6.17c0,2.729,2.21,4.938,4.938,4.938c2.181,0,3.946-1.771,3.946-3.948
			c0-1.745-1.414-3.159-3.156-3.159"/>
		<path fill="none" stroke="#FFFFFF" stroke-miterlimit="10" d="M141.879,102.009c5.207,1.112,8.681,6.188,7.566,11.394
			c-0.891,4.165-4.988,6.817-9.153,5.931c-3.332-0.712-5.456-3.99-4.741-7.322c0.566-2.665,3.188-4.362,5.855-3.796
			c2.132,0.456,3.492,2.557,3.035,4.688c-0.364,1.707-2.042,2.794-3.748,2.43"/>
		<path fill="none" stroke="#FFFFFF" stroke-miterlimit="10" d="M231.391,84.141c-7.575-7.577-19.858-7.577-27.437,0
			c-5.731,5.732-5.73,15.028,0,20.765c4.343,4.341,11.377,4.341,15.72,0c3.282-3.285,3.282-8.612,0-11.896
			c-2.487-2.483-6.521-2.483-9.007,0c-1.884,1.886-1.882,4.937,0,6.816c1.428,1.423,3.735,1.423,5.16-0.003"/>
	</g>
	<g>
		<path fill="none" stroke="#FFFFFF" stroke-miterlimit="10" d="M214.685,31.512c0,1.188-0.964,0.241-2.151,0.241
			s-2.148,0.946-2.148-0.241s2.148-4.117,2.148-4.117S214.685,30.324,214.685,31.512z"/>
		<path fill="none" stroke="#FFFFFF" stroke-miterlimit="10" d="M210.899,31.372c0.594,1.029-0.714,0.691-1.742,1.285
			s-1.39,1.895-1.98,0.867c-0.597-1.029-0.196-4.643-0.196-4.643S210.305,30.346,210.899,31.372z"/>
		<path fill="none" stroke="#FFFFFF" stroke-miterlimit="10" d="M207.551,33.147c1.026,0.594-0.272,0.955-0.866,1.983
			c-0.594,1.025-0.257,2.335-1.284,1.74c-1.029-0.595-2.491-3.922-2.491-3.922S206.523,32.553,207.551,33.147z"/>
		<path fill="none" stroke="#FFFFFF" stroke-miterlimit="10" d="M205.539,36.355c1.188,0,0.241,0.964,0.242,2.152
			c-0.001,1.187,0.944,2.147-0.241,2.147c-1.188,0-4.115-2.147-4.115-2.147S204.351,36.355,205.539,36.355z"/>
		<path fill="none" stroke="#FFFFFF" stroke-miterlimit="10" d="M205.401,40.141c1.028-0.597,0.689,0.715,1.285,1.744
			c0.592,1.024,1.893,1.389,0.866,1.979c-1.029,0.594-4.645,0.194-4.645,0.194S204.372,40.734,205.401,40.141z"/>
		<path fill="none" stroke="#FFFFFF" stroke-miterlimit="10" d="M207.173,43.488c0.594-1.028,0.951,0.273,1.982,0.867
			c1.025,0.594,2.334,0.258,1.741,1.283c-0.595,1.026-3.921,2.489-3.921,2.489S206.579,44.518,207.173,43.488z"/>
		<path fill="none" stroke="#FFFFFF" stroke-miterlimit="10" d="M210.382,45.501c0-1.187,0.964-0.239,2.15-0.241
			c1.188,0.002,2.15-0.94,2.15,0.241c-0.002,1.188-2.15,4.118-2.15,4.118S210.381,46.69,210.382,45.501z"/>
		<path fill="none" stroke="#FFFFFF" stroke-miterlimit="10" d="M214.169,45.641c-0.594-1.027,0.718-0.688,1.744-1.287
			c1.026-0.59,1.394-1.894,1.982-0.864c0.592,1.028,0.197,4.641,0.197,4.641S214.761,46.669,214.169,45.641z"/>
		<path fill="none" stroke="#FFFFFF" stroke-miterlimit="10" d="M217.516,43.867c-1.027-0.594,0.272-0.954,0.867-1.986
			c0.594-1.022,0.259-2.334,1.281-1.74c1.027,0.599,2.491,3.92,2.491,3.92S218.545,44.462,217.516,43.867z"/>
		<path fill="none" stroke="#FFFFFF" stroke-miterlimit="10" d="M219.529,40.658c-1.187-0.001-0.238-0.965-0.242-2.154
			c0.003-1.184-0.939-2.15,0.242-2.148c1.188,0.005,4.117,2.148,4.117,2.148S220.717,40.66,219.529,40.658z"/>
		<path fill="none" stroke="#FFFFFF" stroke-miterlimit="10" d="M219.668,36.872c-1.025,0.592-0.688-0.717-1.284-1.745
			c-0.592-1.026-1.895-1.392-0.864-1.981c1.028-0.592,4.64-0.195,4.64-0.195S220.698,36.279,219.668,36.872z"/>
		<path fill="none" stroke="#FFFFFF" stroke-miterlimit="10" d="M217.895,33.526c-0.595,1.025-0.955-0.277-1.987-0.868
			c-1.021-0.595-2.334-0.259-1.739-1.284c0.599-1.027,3.919-2.49,3.919-2.49S218.491,32.496,217.895,33.526z"/>
	</g>
	<circle fill="none" stroke="#FFFFFF" stroke-miterlimit="10" cx="212.534" cy="38.506" r="6.994"/>
	<circle fill="#FFFFFF" cx="212.534" cy="38.507" r="0.912"/>
	<path fill="none" stroke="#FFFFFF" stroke-miterlimit="10" d="M192.361,79.717c5.208-11.562,1.604-16.312,1.438-18.812"/>
	<path fill="none" stroke="#FFFFFF" stroke-miterlimit="10" d="M193.799,77.068c4.353-6,8.136-14.958,6.937-20.125"/>
	<path fill="none" stroke="#FFFFFF" stroke-miterlimit="10" d="M192.051,80.234c3.457-4,5.184-9.792,13.767-14.542"/>
	<path fill="none" stroke="#FFFFFF" stroke-miterlimit="10" d="M191.018,81.832c1.905-4.512,11.262-14.514,19.364-12.431"/>
	<g>
		<path fill="none" stroke="#FFFFFF" stroke-miterlimit="10" d="M118.576,118.286c-10.023-10.79-9.882-20.744-38.763-20.744
			c-29.963,0-37.967-26.269-37.967-34.478"/>
		<path fill="none" stroke="#FFFFFF" stroke-miterlimit="10" d="M119.748,119.501"/>
		<path fill="none" stroke="#FFFFFF" stroke-miterlimit="10" d="M76.129,97.401c-26.279,10.604-27.716,25.384-50.496,25.384
			S-4.33,94.055,9.625,82.765C23.58,71.478,25.838,65.937,25.838,51.777c0-1.494,0.037-2.82,0.103-3.995"/>
		<path fill="none" stroke="#FFFFFF" stroke-miterlimit="10" d="M102.489,101.444c-15.083,0-23.907,16.005-31.706,16.005"/>
		<path fill="none" stroke="#FFFFFF" stroke-miterlimit="10" d="M52.702,111.549c-5.323,0-9.64-4.312-9.64-9.639
			c0-4.26,3.453-7.713,7.712-7.713c3.407,0,6.17,2.763,6.17,6.17c0,2.726-2.21,4.936-4.937,4.936c-2.18,0-3.947-1.768-3.947-3.945
			c0-1.745,1.414-3.159,3.158-3.159"/>
		<path fill="none" stroke="#FFFFFF" stroke-miterlimit="10" d="M73.482,97.068c-5.324,0-9.64-4.314-9.64-9.642
			c0-4.26,3.452-7.712,7.711-7.712c3.408,0,6.17,2.766,6.17,6.17c0,2.729-2.21,4.938-4.936,4.938c-2.181,0-3.949-1.771-3.949-3.948
			c0-1.745,1.414-3.159,3.159-3.159"/>
		<path fill="none" stroke="#FFFFFF" stroke-miterlimit="10" d="M97.837,101.958c-5.207,1.112-8.894,6.234-7.782,11.44
			c0.891,4.165,4.988,6.817,9.153,5.931c3.332-0.712,5.456-3.99,4.744-7.322c-0.569-2.666-3.191-4.362-5.858-3.796
			c-2.132,0.456-3.492,2.557-3.035,4.688c0.364,1.707,2.042,2.794,3.748,2.43"/>
		<path fill="none" stroke="#FFFFFF" stroke-miterlimit="10" d="M8.109,84.141c7.575-7.577,19.858-7.577,27.434,0
			c5.734,5.732,5.733,15.028,0,20.765c-4.34,4.341-11.377,4.341-15.717,0c-3.285-3.285-3.285-8.612,0-11.896
			c2.487-2.483,6.519-2.483,9.004,0c1.884,1.886,1.882,4.937,0,6.816c-1.425,1.423-3.735,1.423-5.16-0.003"/>
	</g>
	<g>
		<path fill="none" stroke="#FFFFFF" stroke-miterlimit="10" d="M24.815,31.512c0,1.188,0.964,0.241,2.151,0.241
			s2.151,0.946,2.151-0.241s-2.151-4.117-2.151-4.117S24.815,30.324,24.815,31.512z"/>
		<path fill="none" stroke="#FFFFFF" stroke-miterlimit="10" d="M28.601,31.372c-0.594,1.029,0.714,0.691,1.742,1.285
			s1.39,1.895,1.983,0.867c0.594-1.029,0.196-4.643,0.196-4.643S29.195,30.346,28.601,31.372z"/>
		<path fill="none" stroke="#FFFFFF" stroke-miterlimit="10" d="M31.949,33.147c-1.029,0.594,0.272,0.955,0.866,1.983
			c0.594,1.025,0.257,2.335,1.284,1.74c1.029-0.595,2.491-3.922,2.491-3.922S32.977,32.553,31.949,33.147z"/>
		<path fill="none" stroke="#FFFFFF" stroke-miterlimit="10" d="M33.962,36.355c-1.188,0-0.241,0.964-0.242,2.152
			c0.001,1.187-0.944,2.147,0.241,2.147c1.188,0,4.118-2.147,4.118-2.147S35.149,36.355,33.962,36.355z"/>
		<path fill="none" stroke="#FFFFFF" stroke-miterlimit="10" d="M34.099,40.141c-1.028-0.597-0.689,0.715-1.285,1.744
			c-0.592,1.024-1.893,1.389-0.866,1.979c1.029,0.594,4.642,0.194,4.642,0.194S35.129,40.734,34.099,40.141z"/>
		<path fill="none" stroke="#FFFFFF" stroke-miterlimit="10" d="M32.327,43.488c-0.594-1.028-0.954,0.273-1.985,0.867
			c-1.025,0.594-2.334,0.258-1.741,1.283c0.595,1.026,3.921,2.489,3.921,2.489S32.921,44.518,32.327,43.488z"/>
		<path fill="none" stroke="#FFFFFF" stroke-miterlimit="10" d="M29.118,45.501c0-1.187-0.964-0.239-2.153-0.241
			c-1.185,0.002-2.15-0.94-2.15,0.241c0.002,1.188,2.15,4.118,2.15,4.118S29.119,46.69,29.118,45.501z"/>
		<path fill="none" stroke="#FFFFFF" stroke-miterlimit="10" d="M25.332,45.641c0.594-1.027-0.715-0.688-1.744-1.287
			c-1.026-0.59-1.391-1.894-1.982-0.864c-0.592,1.028-0.197,4.641-0.197,4.641S24.739,46.669,25.332,45.641z"/>
		<path fill="none" stroke="#FFFFFF" stroke-miterlimit="10" d="M21.984,43.867c1.027-0.594-0.275-0.954-0.867-1.986
			c-0.594-1.022-0.259-2.334-1.284-1.74c-1.027,0.599-2.491,3.92-2.491,3.92S20.956,44.462,21.984,43.867z"/>
		<path fill="none" stroke="#FFFFFF" stroke-miterlimit="10" d="M19.971,40.658c1.187-0.001,0.238-0.965,0.242-2.154
			c-0.003-1.184,0.942-2.15-0.242-2.148c-1.188,0.005-4.117,2.148-4.117,2.148S18.783,40.66,19.971,40.658z"/>
		<path fill="none" stroke="#FFFFFF" stroke-miterlimit="10" d="M19.833,36.872c1.028,0.592,0.688-0.717,1.287-1.745
			c0.589-1.026,1.892-1.392,0.864-1.981c-1.029-0.592-4.64-0.195-4.64-0.195S18.802,36.279,19.833,36.872z"/>
		<path fill="none" stroke="#FFFFFF" stroke-miterlimit="10" d="M21.605,33.526c0.595,1.025,0.955-0.277,1.987-0.868
			c1.022-0.595,2.334-0.259,1.739-1.284c-0.596-1.027-3.919-2.49-3.919-2.49S21.009,32.496,21.605,33.526z"/>
	</g>
	<circle fill="none" stroke="#FFFFFF" stroke-miterlimit="10" cx="26.966" cy="38.506" r="6.994"/>
	<path fill="none" stroke="#FFFFFF" stroke-miterlimit="10" d="M20.569,72.167c4.571-7.642,1.196-17.892-4.179-18.517"/>
	<circle fill="#FFFFFF" cx="16.39" cy="53.651" r="0.912"/>
	<circle fill="#FFFFFF" cx="26.966" cy="38.507" r="0.912"/>
	<path fill="none" stroke="#FFFFFF" stroke-miterlimit="10" d="M47.139,79.717c-5.208-11.562-1.604-16.312-1.438-18.812"/>
	<path fill="none" stroke="#FFFFFF" stroke-miterlimit="10" d="M45.701,77.068c-4.353-6-8.136-14.958-6.937-20.125"/>
	<path fill="none" stroke="#FFFFFF" stroke-miterlimit="10" d="M47.449,80.234c-3.457-4-5.184-9.792-13.767-14.542"/>
	<path fill="none" stroke="#FFFFFF" stroke-miterlimit="10" d="M48.076,81.223c-2.784-6.222-2.06-13.527,1.106-15.86"/>
	<path fill="none" stroke="#FFFFFF" stroke-miterlimit="10" d="M48.482,81.832C46.577,77.32,37.22,67.318,29.118,69.401"/>
	<circle fill="none" stroke="#FFFFFF" stroke-miterlimit="10" cx="119.753" cy="119.501" r="1.586"/>
	<path fill="none" stroke="#FFFFFF" stroke-miterlimit="10" d="M142.387,88.764c-0.794,1.062-0.577,2.568,0.482,3.364
		c1.063,0.794,2.568,0.576,3.364-0.483L142.387,88.764z"/>
	<path fill="none" stroke="#FFFFFF" stroke-miterlimit="10" d="M148.466,86.772c-0.461,1.244,0.172,2.628,1.416,3.091
		c1.242,0.461,2.627-0.173,3.09-1.417L148.466,86.772z"/>
	<path fill="none" stroke="#FFFFFF" stroke-miterlimit="10" d="M159.408,80.66c0,0-3.6,2.642-5.217,2.504
		c-1.615-0.138-2.814-1.56-2.677-3.176s1.56-2.815,3.176-2.678C156.306,77.447,159.408,80.66,159.408,80.66z"/>
	<circle fill="#FFFFFF" cx="119.821" cy="110.597" r="0.988"/>
	<circle fill="#FFFFFF" cx="119.821" cy="106.922" r="0.988"/>
	<circle fill="#FFFFFF" cx="119.821" cy="103.245" r="0.988"/>
	<circle fill="#FFFFFF" cx="119.821" cy="99.568" r="0.988"/>
	<circle fill="#FFFFFF" cx="119.821" cy="95.891" r="0.988"/>
	<circle fill="#FFFFFF" cx="119.821" cy="92.215" r="0.988"/>
	<circle fill="#FFFFFF" cx="119.821" cy="88.549" r="0.988"/>
	<circle fill="#FFFFFF" cx="122.86" cy="90.526" r="0.988"/>
	<circle fill="#FFFFFF" cx="125.86" cy="92.215" r="0.988"/>
	<circle fill="#FFFFFF" cx="125.86" cy="95.891" r="0.988"/>
	<circle fill="#FFFFFF" cx="131.297" cy="95.891" r="0.988"/>
	<circle fill="#FFFFFF" cx="125.86" cy="99.568" r="0.988"/>
	<circle fill="#FFFFFF" cx="122.86" cy="93.914" r="0.988"/>
	<circle fill="#FFFFFF" cx="128.797" cy="90.724" r="0.988"/>
	<circle fill="#FFFFFF" cx="125.797" cy="88.747" r="0.988"/>
	<circle fill="#FFFFFF" cx="122.86" cy="97.305" r="0.988"/>
	<circle fill="#FFFFFF" cx="128.797" cy="93.914" r="0.988"/>
	<circle fill="#FFFFFF" cx="128.797" cy="97.305" r="0.988"/>
	<circle fill="#FFFFFF" cx="122.86" cy="100.694" r="0.988"/>
	<circle fill="#FFFFFF" cx="122.86" cy="104.083" r="0.988"/>
	<circle fill="#FFFFFF" cx="116.653" cy="90.526" r="0.988"/>
	<circle fill="#FFFFFF" cx="113.653" cy="92.215" r="0.988"/>
	<circle fill="#FFFFFF" cx="113.653" cy="95.891" r="0.988"/>
	<circle fill="#FFFFFF" cx="108.215" cy="95.891" r="0.988"/>
	<circle fill="#FFFFFF" cx="113.653" cy="99.568" r="0.988"/>
	<circle fill="#FFFFFF" cx="116.653" cy="93.914" r="0.988"/>
	<circle fill="#FFFFFF" cx="110.444" cy="91.001" r="0.988"/>
	<circle fill="#FFFFFF" cx="113.444" cy="89.023" r="0.988"/>
	<circle fill="#FFFFFF" cx="116.653" cy="97.305" r="0.988"/>
	<circle fill="#FFFFFF" cx="110.715" cy="93.914" r="0.988"/>
	<circle fill="#FFFFFF" cx="110.715" cy="97.305" r="0.988"/>
	<circle fill="#FFFFFF" cx="116.653" cy="100.694" r="0.988"/>
	<circle fill="#FFFFFF" cx="116.653" cy="104.083" r="0.988"/>
	<path fill="none" stroke="#FFFFFF" stroke-miterlimit="10" d="M100.631,80.234c0,0,40.265,0,51.296,0"/>
	<path fill="none" stroke="#FFFFFF" stroke-miterlimit="10" d="M141.607,80.234c5.398,0,10.773,2.541,9.086,7.729"/>
	<path fill="none" stroke="#FFFFFF" stroke-miterlimit="10" d="M138.13,80.234c5.25,0,11,4.479,6.062,10.291"/>
	<circle fill="#FFFFFF" cx="100.631" cy="80.234" r="0.988"/>
	<path fill="none" stroke="#FFFFFF" stroke-miterlimit="10" d="M97.772,74.807c0.794-1.063,0.577-2.569-0.485-3.365
		c-1.063-0.794-2.568-0.576-3.364,0.483L97.772,74.807z"/>
	<path fill="none" stroke="#FFFFFF" stroke-miterlimit="10" d="M91.693,76.797c0.461-1.244-0.172-2.628-1.416-3.091
		c-1.245-0.461-2.627,0.173-3.09,1.417L91.693,76.797z"/>
	<path fill="none" stroke="#FFFFFF" stroke-miterlimit="10" d="M80.752,82.908c0,0,3.6-2.643,5.217-2.504
		c1.615,0.138,2.814,1.56,2.677,3.176s-1.56,2.815-3.176,2.678S80.752,82.908,80.752,82.908z"/>
	<g>
		<path fill="none" stroke="#FFFFFF" stroke-miterlimit="10" d="M139.529,83.333c0,0-40.266,0-51.297,0"/>
		<path fill="none" stroke="#FFFFFF" stroke-miterlimit="10" d="M98.552,83.333c-5.398,0-10.773-2.541-9.086-7.729"/>
		<path fill="none" stroke="#FFFFFF" stroke-miterlimit="10" d="M102.029,83.333c-5.25,0-11-4.479-6.062-10.291"/>
	</g>
	<circle fill="#FFFFFF" cx="139.529" cy="83.333" r="0.988"/>
	<circle fill="#FFFFFF" cx="98.552" cy="115.331" r="1.019"/>
	<circle fill="#FFFFFF" cx="140.517" cy="115.331" r="1.019"/>
	<circle fill="#FFFFFF" cx="38.8" cy="56.941" r="1.019"/>
	<circle fill="#FFFFFF" cx="41.846" cy="63.064" r="1.019"/>
	<circle fill="#FFFFFF" cx="45.701" cy="60.901" r="1.019"/>
	<circle fill="#FFFFFF" cx="49.182" cy="65.245" r="1.019"/>
	<path fill="none" stroke="#FFFFFF" stroke-miterlimit="10" d="M191.215,81.223c2.78-6.222,2.059-13.527-1.107-15.86"/>
	<circle fill="#FFFFFF" cx="190.109" cy="65.245" r="1.019"/>
	<circle fill="#FFFFFF" cx="33.682" cy="65.691" r="1.019"/>
	<circle fill="#FFFFFF" cx="29.118" cy="69.441" r="1.019"/>
	<g>
		<circle fill="#FFFFFF" cx="200.535" cy="56.941" r="1.019"/>
		<circle fill="#FFFFFF" cx="197.488" cy="63.064" r="1.019"/>
		<circle fill="#FFFFFF" cx="193.633" cy="60.901" r="1.019"/>
		<circle fill="#FFFFFF" cx="205.652" cy="65.691" r="1.019"/>
		<circle fill="#FFFFFF" cx="210.216" cy="69.441" r="1.019"/>
	</g>
	<path fill="none" stroke="#FFFFFF" stroke-miterlimit="10" d="M164.442,74.204c4.785,0,8.664-3.879,8.664-8.664
		c0-4.565-3.53-8.305-8.011-8.639l-0.018-0.065c-1.101-4.656-5.768-7.539-10.425-6.439l0,0c-2.646-3.986-8.021-5.074-12.009-2.433"
		/>
	<path fill="none" stroke="#FFFFFF" stroke-miterlimit="10" d="M75.138,74.204c-4.785,0-8.664-3.879-8.664-8.664
		c0-4.565,3.53-8.305,8.011-8.639l0.015-0.065c1.101-4.656,5.768-7.539,10.425-6.439l0,0c2.646-3.986,8.021-5.074,12.009-2.433"/>
	<path fill="none" stroke="#FFFFFF" stroke-miterlimit="10" d="M72.167,73.725c-6.291,0-11.391-5.102-11.391-11.393
		c0-6.002,4.641-10.917,10.531-11.354l0.02-0.086c1.447-6.123,7.582-9.91,13.704-8.467l0,0c3.478-5.242,10.544-6.676,15.786-3.197"
		/>
	<path fill="none" stroke="#FFFFFF" stroke-miterlimit="10" d="M167.213,73.725c6.29,0,11.392-5.102,11.392-11.393
		c0-6.002-4.644-10.917-10.53-11.354l-0.02-0.086c-1.447-6.123-7.582-9.91-13.705-8.467l0,0c-3.479-5.242-10.543-6.676-15.786-3.197
		"/>
	<path fill="none" stroke="#FFFFFF" stroke-miterlimit="10" d="M121.122,120.139c0,0.361-0.146,0.726-0.404,1.088
		c-0.256,0.359-0.613,0.724-0.978,1.085c-0.361,0.359-0.723,0.725-0.978,1.086c-0.255,0.358-0.405,0.724-0.405,1.086
		c0,0.358,0.15,0.723,0.405,1.085c0.255,0.359,0.616,0.724,0.978,1.085c0.361,0.359,0.722,0.725,0.978,1.086
		c0.258,0.358,0.404,0.724,0.404,1.086c0,0.359-0.146,0.723-0.404,1.085c-0.256,0.362-0.613,0.724-0.978,1.085
		c-0.361,0.362-0.723,0.725-0.978,1.086s-0.405,0.724-0.405,1.086c0,0.361,0.15,0.723,0.405,1.085s0.616,0.725,0.978,1.085
		c0.361,0.362,0.722,0.728,0.978,1.086c0.258,0.361,0.404,0.727,0.404,1.086c0,0.361-0.146,0.726-0.404,1.085
		c-0.256,0.362-0.613,0.727-0.978,1.085c-0.361,0.362-0.723,0.728-0.978,1.086c-0.255,0.361-0.405,0.727-0.405,1.086
		c0,0.361,0.15,0.726,0.405,1.085c0.255,0.362,0.616,0.727,0.978,1.086c0.361,0.361,0.722,0.727,0.978,1.088
		c0.258,0.358,0.404,0.724,0.404,1.086c0,0.358-0.146,0.723-0.404,1.085c-0.256,0.359-0.613,0.724-0.978,1.085
		c-0.361,0.359-0.723,0.725-0.978,1.086c-0.255,0.358-0.405,0.724-0.405,1.086c0,0.359,0.15,0.723,0.405,1.085
		s0.616,0.724,0.978,1.085"/>
	<path fill="none" stroke="#FFFFFF" stroke-miterlimit="10" d="M118.358,120.139c0,0.361,0.149,0.726,0.404,1.088
		c0.256,0.359,0.616,0.724,0.978,1.085c0.361,0.359,0.724,0.725,0.978,1.086c0.258,0.358,0.406,0.724,0.406,1.086
		c0,0.358-0.148,0.723-0.406,1.085c-0.254,0.359-0.613,0.724-0.978,1.085c-0.361,0.359-0.722,0.725-0.978,1.086
		c-0.255,0.358-0.404,0.724-0.404,1.086c0,0.359,0.149,0.723,0.404,1.085c0.256,0.362,0.616,0.724,0.978,1.085
		c0.361,0.362,0.724,0.725,0.978,1.086c0.258,0.361,0.406,0.724,0.406,1.086c0,0.361-0.148,0.723-0.406,1.085
		c-0.254,0.362-0.613,0.725-0.978,1.085c-0.361,0.362-0.722,0.728-0.978,1.086c-0.255,0.361-0.404,0.727-0.404,1.086
		c0,0.361,0.149,0.726,0.404,1.085c0.256,0.362,0.616,0.727,0.978,1.085c0.361,0.362,0.724,0.728,0.978,1.086
		c0.258,0.361,0.406,0.727,0.406,1.086c0,0.361-0.148,0.726-0.406,1.085c-0.254,0.362-0.613,0.727-0.978,1.086
		c-0.361,0.361-0.722,0.727-0.978,1.088c-0.255,0.358-0.404,0.724-0.404,1.086c0,0.358,0.149,0.723,0.404,1.085
		c0.256,0.359,0.616,0.724,0.978,1.085c0.361,0.359,0.724,0.725,0.978,1.086c0.258,0.358,0.406,0.724,0.406,1.086
		c0,0.359-0.148,0.723-0.406,1.085c-0.254,0.362-0.613,0.724-0.978,1.085l-2.43,2.43"/>
	<polyline fill="none" stroke="#FFFFFF" stroke-miterlimit="10" points="122.155,155.117 119.74,152.701 119.74,165.901 	"/>
	<line fill="none" stroke="#FFFFFF" stroke-miterlimit="10" x1="156.354" y1="63.608" x2="162.463" y2="63.608"/>
	<line fill="none" stroke="#FFFFFF" stroke-miterlimit="10" x1="75.892" y1="63.608" x2="82" y2="63.608"/>
	<g>
		<path fill="#FFFFFF" d="M41.103,30.988h3.823V1.858h-3.823V1.375h14.525c9.174,0,15.611,6.719,15.611,14.968
			c0,8.329-6.438,15.128-15.611,15.128H41.103V30.988L41.103,30.988z M49.995,30.988V1.858h-4.587v29.13H49.995z M46.213,2.662
			h2.977v27.521h-2.977V2.662L46.213,2.662z M55.628,30.988c3.541,0,6.719-1.046,9.214-2.856V4.715
			c-2.495-1.811-5.674-2.857-9.214-2.857h-5.15v29.13L55.628,30.988L55.628,30.988z M70.757,16.342c0-4.547-2.052-8.61-5.432-11.267
			v22.693C68.704,25.113,70.757,20.97,70.757,16.342z M66.129,6.848c2.414,2.453,3.823,5.793,3.823,9.495
			c0,3.822-1.328,7.121-3.823,9.615V6.848z"/>
		<path fill="#FFFFFF" d="M80.129,21.332h1.529c2.656,0,4.587-1.207,4.587-3.098v-6.479c-0.724-0.201-1.529-0.322-2.374-0.322
			c-1.851,0-3.742,0.443-5.15,1.167c0.523,0.442,1.851,1.61,1.851,2.897c0,1.408-1.167,2.293-2.374,2.293
			c-1.287,0-2.374-0.965-2.374-2.374c0-2.414,4.104-4.466,8.047-4.466c4.748,0,7.765,2.979,7.765,8.288v11.99
			c2.253-0.281,3.823-2.293,3.823-4.868h0.482c0,2.978-2.052,5.393-4.828,5.393c-2.374,0-4.184-1.651-4.707-4.025
			c-0.282,1.047-0.765,1.973-1.569,2.696c-1.046,0.926-2.575,1.529-4.547,1.529c-4.063,0-5.995-2.334-5.995-5.312
			C74.295,23.182,76.75,21.332,80.129,21.332z M79.526,31.432v-9.577c-2.817,0.201-4.748,1.852-4.748,4.788
			C74.778,29.178,76.307,31.19,79.526,31.432z M78.721,22.78v7.725c-2.133-0.442-3.139-1.972-3.139-3.862
			C75.583,24.471,76.83,23.182,78.721,22.78z M80.089,15.497c0-1.248-1.489-2.414-1.811-2.656c-1.207,0.725-1.971,1.609-1.971,2.574
			c0,1.087,0.845,1.892,1.891,1.892C79.164,17.309,80.089,16.583,80.089,15.497z M77.112,15.417c0-0.563,0.362-1.086,1.086-1.61
			c0.443,0.404,1.087,1.047,1.087,1.691c0,0.604-0.523,1.006-1.087,1.006C77.594,16.504,77.112,16.061,77.112,15.417z
			 M80.291,31.471c3.983,0,5.955-2.494,5.955-5.513v-6.155c-0.403,0.725-1.086,1.287-2.012,1.609
			c-0.725,0.282-1.61,0.402-2.575,0.402H80.13h-0.121v9.656L80.291,31.471L80.291,31.471z M91.114,31.27h0.04V19.241
			c0-3.782-1.69-6.357-4.426-7.323v14.324C86.728,29.096,88.539,31.27,91.114,31.27z M87.532,13.204
			c1.73,1.087,2.816,3.179,2.816,6.036v11.145c-1.689-0.402-2.816-2.052-2.816-4.144V13.204z"/>
		<path fill="#FFFFFF" d="M97.228,30.988h3.823V1.858h-3.823V1.375h15.41c5.754,0,9.536,3.541,9.536,8.088
			c0,3.138-1.771,6.075-5.11,7.604c3.34,1.287,4.748,3.903,4.748,7.081v7.323c2.495-0.241,4.265-2.414,4.265-5.109h0.483
			c0,3.099-2.214,5.592-5.23,5.592c-3.018,0-5.272-2.493-5.272-5.794v-8.812h-9.455v13.641h3.823v0.482H97.228L97.228,30.988
			L97.228,30.988z M106.12,30.988V1.858h-4.586v29.13H106.12z M102.338,2.662h2.977v27.521h-2.977V2.662z M116.058,16.865V2.381
			c-1.045-0.322-2.172-0.523-3.419-0.523h-6.035v15.007H116.058z M121.691,9.463c0-3.139-1.972-5.754-5.15-6.921v14.284
			C119.88,15.376,121.691,12.52,121.691,9.463z M121.329,31.471v-7.323c0-3.058-1.448-5.593-4.788-6.759v8.771
			C116.541,29.217,118.553,31.471,121.329,31.471z M117.345,3.789c2.213,1.207,3.54,3.26,3.54,5.674c0,2.333-1.407,4.666-3.54,6.075
			V3.789z M117.345,18.635c2.092,1.167,3.179,3.179,3.179,5.513v6.438c-1.891-0.362-3.179-2.133-3.179-4.427V18.635z"/>
		<path fill="#FFFFFF" d="M139.271,10.951c5.875,0,10.704,4.828,10.704,10.542c0,5.633-4.829,10.461-10.704,10.461
			c-5.874,0-10.702-4.828-10.702-10.461C128.569,15.779,133.397,10.951,139.271,10.951z M133.719,13.084
			c-2.816,1.811-4.668,4.949-4.668,8.409s1.852,6.559,4.668,8.369V13.084z M129.857,21.493c0-2.737,1.046-5.029,3.058-6.76v13.479
			C131.023,26.522,129.857,24.148,129.857,21.493z M139.271,31.471c1.851,0,3.581-0.482,5.11-1.368V12.802
			c-1.529-0.845-3.26-1.368-5.11-1.368s-3.58,0.483-5.069,1.368v17.342C135.69,30.988,137.421,31.471,139.271,31.471z
			 M149.491,21.493c0-3.46-1.851-6.599-4.627-8.409v16.737C147.64,28.012,149.491,24.911,149.491,21.493z M145.67,14.734
			c1.891,1.688,3.018,4.104,3.018,6.76c0,2.615-1.127,4.989-3.018,6.679V14.734z"/>
		<path fill="#FFFFFF" d="M152.145,31.068l12.835-19.151h-10.823v4.948h-0.482v-5.432h17.582v0.402l-12.874,19.152h12.151v-5.473
			h0.481v5.955h-18.87V31.068z M157.819,30.988l12.794-19.071h-5.068L152.75,30.988H157.819z M165.986,12.721h3.099l-11.708,17.463
			h-3.099L165.986,12.721z"/>
		<path fill="#FFFFFF" d="M179.986,21.332h1.529c2.655,0,4.587-1.207,4.587-3.098v-6.479c-0.724-0.201-1.528-0.322-2.374-0.322
			c-1.851,0-3.742,0.443-5.149,1.167c0.522,0.442,1.85,1.61,1.85,2.897c0,1.408-1.166,2.293-2.373,2.293
			c-1.287,0-2.374-0.965-2.374-2.374c0-2.414,4.104-4.466,8.047-4.466c4.748,0,7.766,2.979,7.766,8.288v11.99
			c2.253-0.281,3.823-2.293,3.823-4.868h0.482c0,2.978-2.053,5.393-4.828,5.393c-2.374,0-4.185-1.651-4.708-4.025
			c-0.282,1.047-0.765,1.973-1.568,2.696c-1.047,0.926-2.576,1.529-4.548,1.529c-4.062,0-5.994-2.334-5.994-5.312
			C174.153,23.182,176.606,21.332,179.986,21.332z M179.382,31.432v-9.577c-2.815,0.201-4.748,1.852-4.748,4.788
			C174.634,29.178,176.165,31.19,179.382,31.432z M178.578,22.78v7.725c-2.133-0.442-3.139-1.972-3.139-3.862
			C175.44,24.471,176.686,23.182,178.578,22.78z M179.946,15.497c0-1.248-1.488-2.414-1.811-2.656
			c-1.207,0.725-1.971,1.609-1.971,2.574c0,1.087,0.845,1.892,1.891,1.892C179.02,17.309,179.946,16.583,179.946,15.497z
			 M176.968,15.417c0-0.563,0.362-1.086,1.087-1.61c0.442,0.404,1.086,1.047,1.086,1.691c0,0.604-0.522,1.006-1.086,1.006
			C177.452,16.504,176.968,16.061,176.968,15.417z M180.147,31.471c3.983,0,5.955-2.494,5.955-5.513v-6.155
			c-0.402,0.725-1.087,1.287-2.011,1.609c-0.726,0.282-1.61,0.402-2.576,0.402h-1.529h-0.12v9.656L180.147,31.471L180.147,31.471z
			 M190.97,31.27h0.04V19.241c0-3.782-1.688-6.357-4.426-7.323v14.324C186.585,29.096,188.395,31.27,190.97,31.27z M187.389,13.204
			c1.73,1.087,2.816,3.179,2.816,6.036v11.145c-1.689-0.402-2.816-2.052-2.816-4.144V13.204z"/>
	</g>
</g>
</svg>
