<?xml version="1.0" encoding="utf-8"?>
<!-- Generator: Adobe Illustrator 16.0.0, SVG Export Plug-In . SVG Version: 6.00 Build 0)  -->
<!DOCTYPE svg PUBLIC "-//W3C//DTD SVG 1.1//EN" "http://www.w3.org/Graphics/SVG/1.1/DTD/svg11.dtd">
<svg version="1.1" id="Layer_1" xmlns="http://www.w3.org/2000/svg" xmlns:xlink="http://www.w3.org/1999/xlink" x="0px" y="0px"
	 width="239.5px" height="167.275px" viewBox="181.021 239.953 239.5 167.275"
	 enable-background="new 181.021 239.953 239.5 167.275" xml:space="preserve">
<g id="Layer_2">
</g>
<g id="Layer_1_1_">
</g>
<g id="Layer_4">
</g>
<g id="Layer_5" display="none">
	<g display="inline">
		<path fill="#E28E76" d="M2801.952,290.502h9.321V219.46h-9.321v-1.177h35.424c22.371,0,38.072,16.386,38.072,36.502
			c0,20.312-15.701,36.895-38.072,36.895h-35.424V290.502z M2823.638,290.502V219.46h-11.186v71.042H2823.638z M2814.415,221.423
			h7.262v67.116h-7.262V221.423z M2837.376,290.502c8.635,0,16.387-2.551,22.471-6.967v-57.107
			c-6.084-4.416-13.836-6.967-22.471-6.967h-12.562v71.042L2837.376,290.502L2837.376,290.502z M2874.271,254.785
			c0-11.088-5.004-20.999-13.246-27.475v55.342C2869.268,276.177,2874.271,266.068,2874.271,254.785z M2862.987,231.627
			c5.887,5.986,9.319,14.13,9.319,23.158c0,9.322-3.237,17.367-9.319,23.451V231.627z"/>
		<path fill="#E28E76" d="M2905.314,291.68c14.72,0,19.523-13.443,19.523-13.443l1.178,0.396c0,0-5.004,14.229-20.701,14.229
			c-14.133,0-24.334-11.676-24.334-25.51c0-14.328,10.691-25.709,23.939-25.709c12.658,0,21.488,10.4,22.371,23.549h-32.479v24.041
			C2897.857,290.796,2901.39,291.68,2905.314,291.68z M2893.638,245.953c-6.866,4.221-11.479,12.169-11.479,21.393
			c0,9.025,4.416,16.979,11.479,21.193V245.953z M2884.12,267.346c0-7.062,2.945-13.443,7.555-17.562v35.029
			C2886.868,280.688,2884.12,274.409,2884.12,267.346z M2912.479,264.009v-19.821c-2.354-0.883-4.808-1.373-7.556-1.373
			c-3.631,0-7.062,0.883-10.104,2.551v18.644L2912.479,264.009L2912.479,264.009z M2926.02,264.009
			c-0.781-8.731-5.396-15.993-12.361-19.232v19.232H2926.02z M2915.618,248.111c4.219,2.945,7.262,8.047,8.241,13.936h-8.241
			V248.111z"/>
		<path fill="#E28E76" d="M2944.05,290.502h9.322V219.46h-9.322v-1.177h37.582c14.031,0,23.254,8.635,23.254,19.723
			c0,7.654-4.313,14.817-12.461,18.545c8.146,3.141,11.578,9.521,11.578,17.271v17.857c6.084-0.591,10.399-5.889,10.399-12.465
			h1.179c0,7.559-5.396,13.643-12.757,13.643c-7.356,0-12.854-6.084-12.854-14.131v-21.488h-23.06v33.265h9.32v1.179h-32.186v-1.18
			H2944.05L2944.05,290.502z M2965.735,290.502V219.46h-11.188v71.042H2965.735z M2956.513,221.423h7.261v67.116h-7.261V221.423z
			 M2989.972,256.061v-35.325c-2.551-0.785-5.299-1.275-8.34-1.275h-14.719v36.6H2989.972z M3003.71,238.006
			c0-7.654-4.81-14.032-12.562-16.877v34.834C2999.294,252.432,3003.71,245.464,3003.71,238.006z M3002.825,291.68v-17.855
			c0-7.457-3.531-13.643-11.677-16.485v21.394C2991.148,286.186,2996.056,291.68,3002.825,291.68z M2993.112,224.17
			c5.396,2.944,8.635,7.948,8.635,13.835c0,5.691-3.437,11.384-8.635,14.817V224.17z M2993.112,260.378
			c5.102,2.847,7.752,7.751,7.752,13.442v15.701c-4.613-0.887-7.752-5.201-7.752-10.795V260.378z"/>
		<path fill="#E28E76" d="M3042.665,241.637c14.326,0,26.103,11.774,26.103,25.708c0,13.735-11.773,25.513-26.103,25.513
			s-26.101-11.774-26.101-25.513C3016.564,253.411,3028.339,241.637,3042.665,241.637z M3029.124,246.837
			c-6.869,4.416-11.383,12.069-11.383,20.509c0,8.438,4.514,15.993,11.383,20.409V246.837z M3019.704,267.346
			c0-6.674,2.551-12.267,7.457-16.486v32.873C3022.55,279.609,3019.704,273.82,3019.704,267.346z M3042.665,291.68
			c4.514,0,8.731-1.178,12.463-3.337V246.15c-3.729-2.062-7.949-3.336-12.463-3.336s-8.731,1.177-12.363,3.336v42.292
			C3033.934,290.502,3038.15,291.68,3042.665,291.68z M3067.589,267.346c0-8.438-4.514-16.093-11.284-20.509v40.819
			C3063.075,283.241,3067.589,275.686,3067.589,267.346z M3058.268,250.859c4.612,4.121,7.358,10.009,7.358,16.485
			c0,6.378-2.746,12.165-7.358,16.285V250.859z"/>
		<path fill="#E28E76" d="M3073.575,275.293h1.178v6.771c0.687,0.883,7.457,9.614,19.035,9.614c5.688,0,10.989-1.964,14.129-5.595
			c-0.195-0.395-0.882-2.062-3.041-3.436l-20.509-13.053c-7.457-4.707-10.399-7.162-10.399-12.656
			c0-10.499,8.635-15.308,18.447-15.308c8.045,0,13.438,4.121,15.698,6.183v-5.887h1.179v15.307h-1.179v-7.652
			c-0.588-0.688-6.084-6.77-15.698-6.77c-5.691,0-10.99,1.668-14.132,5.295c0.195,0.688,1.181,2.85,3.236,4.121l21.1,13.541
			c6.183,3.929,9.42,6.674,9.42,12.168c0,9.521-8.537,14.914-18.252,14.914c-9.909,0-16.582-6.277-19.034-9.024v7.852h-1.179
			L3073.575,275.293L3073.575,275.293z M3105.466,281.67c1.668,1.081,2.648,2.454,3.236,3.436c1.375-1.963,2.16-4.416,2.16-7.162
			c0-5.104-2.552-7.161-8.832-11.188l-21.097-13.541c-1.864-1.178-3.043-2.846-3.532-4.023c-1.476,2.062-2.257,4.613-2.257,7.756
			c0,5.004,2.257,6.865,9.812,11.676L3105.466,281.67z M3077.107,256.943c0-1.471,0.099-2.648,0.488-3.826
			c0.588,0.588,1.568,1.275,2.258,1.766l21.099,13.541c5.69,3.631,7.946,5.396,7.946,9.52c0,1.18-0.196,2.453-0.489,3.531
			c0,0.101,0,0.101,0,0.101s-1.474-1.275-1.865-1.569l-20.508-13.051C3079.167,262.537,3077.107,260.966,3077.107,256.943z"/>
		<path fill="#E28E76" d="M3131.368,266.952h3.729c6.479,0,11.188-2.943,11.188-7.556V243.6c-1.769-0.492-3.729-0.785-5.789-0.785
			c-4.516,0-9.127,1.078-12.562,2.846c1.275,1.078,4.516,3.924,4.516,7.063c0,3.435-2.848,5.594-5.789,5.594
			c-3.141,0-5.789-2.354-5.789-5.791c0-5.887,10.009-10.891,19.625-10.891c11.58,0,18.938,7.26,18.938,20.213v29.239
			c5.494-0.688,9.322-5.594,9.322-11.874h1.178c0,7.264-5.006,13.149-11.773,13.149c-5.789,0-10.205-4.023-11.479-9.812
			c-0.688,2.552-1.865,4.808-3.826,6.574c-2.553,2.256-6.28,3.729-11.088,3.729c-9.909,0-14.621-5.689-14.621-12.951
			C3117.143,271.466,3123.128,266.952,3131.368,266.952z M3129.896,291.582v-23.354c-6.866,0.488-11.577,4.514-11.577,11.678
			C3118.319,286.086,3122.048,290.993,3129.896,291.582z M3127.936,270.484v18.84c-5.197-1.079-7.652-4.809-7.652-9.42
			C3120.28,274.605,3123.323,271.466,3127.936,270.484z M3131.271,252.725c0-3.041-3.633-5.888-4.416-6.477
			c-2.942,1.768-4.811,3.926-4.811,6.279c0,2.646,2.062,4.613,4.611,4.613C3129.015,257.141,3131.271,255.374,3131.271,252.725z
			 M3124.011,252.527c0-1.373,0.884-2.649,2.648-3.924c1.08,0.979,2.647,2.551,2.647,4.119c0,1.473-1.272,2.451-2.647,2.451
			C3125.188,255.177,3124.011,254.098,3124.011,252.527z M3131.763,291.68c9.713,0,14.521-6.084,14.521-13.443v-15.012
			c-0.98,1.769-2.65,3.143-4.906,3.924c-1.767,0.688-3.924,0.98-6.279,0.98h-3.729h-0.293v23.551H3131.763L3131.763,291.68z
			 M3158.157,291.188h0.098V261.85c0-9.224-4.121-15.5-10.793-17.855v34.933C3147.462,285.891,3151.878,291.188,3158.157,291.188z
			 M3149.425,247.132c4.22,2.647,6.869,7.751,6.869,14.718v27.184c-4.121-0.981-6.869-5.008-6.869-10.106V247.132z"/>
	</g>
</g>
<path fill="none" stroke="#4A4747" stroke-miterlimit="10" d="M211.501,213.283"/>
<circle fill="#FFFFFF" cx="252.973" cy="324.968" r="1.019"/>
<circle fill="#FFFFFF" cx="231.996" cy="339.547" r="1.019"/>
<circle fill="#FFFFFF" cx="348.674" cy="324.968" r="1.019"/>
<circle fill="#FFFFFF" cx="369.454" cy="339.547" r="1.019"/>
<circle fill="#FFFFFF" cx="397.096" cy="340.96" r="1.019"/>
<circle fill="#FFFFFF" cx="204.492" cy="340.96" r="1.019"/>
<path fill="none" stroke="#FFFFFF" stroke-miterlimit="10" d="M327.997,281.971"/>
<path fill="none" stroke="#FFFFFF" stroke-miterlimit="10" d="M357.496,359.456c0,0-3.6,2.645-5.217,2.504
	c-1.615-0.138-2.814-1.56-2.68-3.176c0.14-1.616,1.562-2.812,3.179-2.678C354.394,356.243,357.496,359.456,357.496,359.456z"/>
<path fill="none" stroke="#FFFFFF" stroke-miterlimit="10" d="M399.906,313.495c-4.571-7.642-1.196-17.892,4.179-18.517"/>
<circle fill="#FFFFFF" cx="404.085" cy="294.979" r="0.912"/>
<path fill="none" stroke="#FFFFFF" stroke-miterlimit="10" d="M243.954,359.456c0,0,3.6,2.645,5.217,2.504
	c1.615-0.138,2.814-1.56,2.677-3.176c-0.137-1.616-1.56-2.812-3.176-2.678C247.056,356.243,243.954,359.456,243.954,359.456z"/>
<g>
	<path fill="#FFFFFF" d="M267.091,301.537h3.049c2.009,0.01,3.508,1.199,3.508,3.408c0,2.188-1.499,3.388-3.508,3.388h-3.049
		V301.537z M268.771,302.996v3.878h1.299c1.1,0,1.85-0.688,1.85-1.929c0-1.26-0.75-1.949-1.85-1.949H268.771z"/>
	<path fill="#FFFFFF" d="M279.571,305.715l-2.59-4.059v-0.119h1.88l1.549,2.628l1.56-2.628h1.869v0.119l-2.589,4.048v2.63h-1.679
		L279.571,305.715L279.571,305.715z"/>
	<path fill="#FFFFFF" d="M289.501,304.205v4.128h-1.68v-6.796h1.459l3.418,4.127v-4.127h1.68v6.796h-1.449L289.501,304.205z"/>
	<path fill="#FFFFFF" d="M301.04,301.537h1.969l2.58,6.796h-1.699l-0.461-1.249h-2.848l-0.471,1.249h-1.699L301.04,301.537z
		 M301.001,305.854h2.008l-0.979-2.658L301.001,305.854z"/>
	<path fill="#FFFFFF" d="M310.841,305.404c-1.059-0.289-1.565-0.898-1.565-1.839c0-1.179,0.93-2.118,2.774-2.118
		c0.974,0,1.933,0.26,2.459,0.539l-0.479,1.488c-0.521-0.329-1.338-0.59-2.049-0.59c-0.689,0-0.998,0.229-0.998,0.561
		c0,0.3,0.196,0.42,0.616,0.54l1.199,0.358c1.25,0.371,1.818,0.938,1.818,1.881c0,1.309-1.103,2.207-2.797,2.207
		c-1.012,0-2-0.34-2.439-0.588l0.394-1.521c0.51,0.352,1.315,0.67,2.075,0.67c0.683,0,1.052-0.279,1.052-0.648
		c0-0.301-0.302-0.459-0.789-0.602L310.841,305.404z"/>
	<path fill="#FFFFFF" d="M322.259,303.217v5.117h-1.678v-5.117h-2.09v-1.68h5.797v1.68H322.259z"/>
	<path fill="#FFFFFF" d="M330.241,305.715l-2.588-4.059v-0.119h1.879l1.549,2.628l1.559-2.628h1.869v0.119l-2.588,4.048v2.63h-1.68
		V305.715L330.241,305.715z"/>
</g>
<g>
	<path fill="none" stroke="#FFFFFF" stroke-miterlimit="10" d="M301.899,359.613c10.021-10.789,9.883-20.743,38.763-20.743
		c29.963,0,37.967-26.269,37.967-34.478"/>
	<path fill="none" stroke="#FFFFFF" stroke-miterlimit="10" d="M300.728,360.83"/>
	<path fill="none" stroke="#FFFFFF" stroke-miterlimit="10" d="M344.346,338.729c26.279,10.604,27.719,25.384,50.496,25.384
		c22.78,0,29.963-28.73,16.008-40.02c-13.955-11.287-16.213-16.828-16.213-30.988c0-1.264-0.023-2.405-0.075-3.438l-0.052-0.212"/>
	<path fill="none" stroke="#FFFFFF" stroke-miterlimit="10" d="M317.986,342.772c15.083,0,23.904,16.005,31.706,16.005"/>
	<path fill="none" stroke="#FFFFFF" stroke-miterlimit="10" d="M367.773,352.878c5.32,0,9.64-4.312,9.64-9.639
		c0-4.26-3.453-7.713-7.712-7.713c-3.407,0-6.17,2.763-6.17,6.17c0,2.726,2.21,4.936,4.937,4.936c2.183,0,3.947-1.768,3.947-3.945
		c0-1.745-1.414-3.159-3.158-3.159"/>
	<path fill="none" stroke="#FFFFFF" stroke-miterlimit="10" d="M346.993,338.396c5.324,0,9.64-4.314,9.64-9.642
		c0-4.26-3.452-7.712-7.711-7.712c-3.408,0-6.17,2.766-6.17,6.17c0,2.729,2.21,4.938,4.938,4.938c2.181,0,3.946-1.771,3.946-3.948
		c0-1.745-1.414-3.159-3.156-3.159"/>
	<path fill="none" stroke="#FFFFFF" stroke-miterlimit="10" d="M322.854,343.337c5.207,1.112,8.681,6.188,7.566,11.394
		c-0.891,4.165-4.988,6.817-9.153,5.931c-3.332-0.712-5.456-3.99-4.741-7.322c0.566-2.665,3.188-4.362,5.855-3.796
		c2.132,0.456,3.492,2.557,3.035,4.688c-0.364,1.707-2.042,2.794-3.748,2.43"/>
	<path fill="none" stroke="#FFFFFF" stroke-miterlimit="10" d="M412.366,325.469c-7.575-7.577-19.858-7.577-27.437,0
		c-5.731,5.732-5.73,15.028,0,20.765c4.343,4.341,11.377,4.341,15.72,0c3.282-3.285,3.282-8.612,0-11.896
		c-2.487-2.483-6.521-2.483-9.007,0c-1.884,1.886-1.882,4.937,0,6.816c1.428,1.423,3.735,1.423,5.16-0.003"/>
</g>
<g>
	<path fill="none" stroke="#FFFFFF" stroke-miterlimit="10" d="M395.66,272.84c0,1.188-0.964,0.241-2.151,0.241
		c-1.187,0-2.148,0.946-2.148-0.241c0-1.187,2.148-4.117,2.148-4.117S395.66,271.652,395.66,272.84z"/>
	<path fill="none" stroke="#FFFFFF" stroke-miterlimit="10" d="M391.874,272.701c0.594,1.029-0.714,0.691-1.742,1.285
		s-1.39,1.895-1.98,0.867c-0.597-1.029-0.196-4.643-0.196-4.643S391.28,271.674,391.874,272.701z"/>
	<path fill="none" stroke="#FFFFFF" stroke-miterlimit="10" d="M388.526,274.475c1.026,0.594-0.272,0.955-0.866,1.983
		c-0.594,1.025-0.257,2.335-1.284,1.74c-1.029-0.595-2.491-3.922-2.491-3.922S387.498,273.881,388.526,274.475z"/>
	<path fill="none" stroke="#FFFFFF" stroke-miterlimit="10" d="M386.514,277.684c1.188,0,0.241,0.964,0.242,2.152
		c-0.001,1.187,0.944,2.147-0.241,2.147c-1.188,0-4.115-2.147-4.115-2.147S385.326,277.684,386.514,277.684z"/>
	<path fill="none" stroke="#FFFFFF" stroke-miterlimit="10" d="M386.376,281.469c1.028-0.597,0.689,0.715,1.285,1.744
		c0.592,1.024,1.893,1.389,0.866,1.979c-1.029,0.594-4.645,0.194-4.645,0.194S385.347,282.062,386.376,281.469z"/>
	<path fill="none" stroke="#FFFFFF" stroke-miterlimit="10" d="M388.148,284.816c0.594-1.028,0.951,0.273,1.982,0.867
		c1.025,0.594,2.334,0.258,1.741,1.283c-0.595,1.026-3.921,2.489-3.921,2.489S387.554,285.846,388.148,284.816z"/>
	<path fill="none" stroke="#FFFFFF" stroke-miterlimit="10" d="M391.357,286.829c0-1.187,0.964-0.239,2.15-0.241
		c1.188,0.002,2.15-0.94,2.15,0.241c-0.002,1.188-2.15,4.118-2.15,4.118S391.356,288.018,391.357,286.829z"/>
	<path fill="none" stroke="#FFFFFF" stroke-miterlimit="10" d="M395.144,286.969c-0.594-1.027,0.718-0.688,1.744-1.287
		c1.026-0.59,1.394-1.894,1.982-0.864c0.592,1.028,0.197,4.641,0.197,4.641S395.736,287.998,395.144,286.969z"/>
	<path fill="none" stroke="#FFFFFF" stroke-miterlimit="10" d="M398.491,285.195c-1.027-0.594,0.272-0.954,0.867-1.986
		c0.594-1.022,0.259-2.334,1.281-1.74c1.027,0.599,2.491,3.92,2.491,3.92S399.52,285.791,398.491,285.195z"/>
	<path fill="none" stroke="#FFFFFF" stroke-miterlimit="10" d="M400.504,281.986c-1.187-0.001-0.238-0.965-0.242-2.154
		c0.003-1.184-0.939-2.15,0.242-2.148c1.188,0.005,4.117,2.148,4.117,2.148S401.692,281.988,400.504,281.986z"/>
	<path fill="none" stroke="#FFFFFF" stroke-miterlimit="10" d="M400.643,278.201c-1.025,0.592-0.688-0.717-1.284-1.745
		c-0.592-1.026-1.895-1.392-0.864-1.981c1.028-0.592,4.64-0.195,4.64-0.195S401.673,277.607,400.643,278.201z"/>
	<path fill="none" stroke="#FFFFFF" stroke-miterlimit="10" d="M398.87,274.854c-0.595,1.025-0.955-0.277-1.987-0.868
		c-1.021-0.595-2.334-0.259-1.739-1.284c0.599-1.027,3.919-2.49,3.919-2.49S399.466,273.824,398.87,274.854z"/>
</g>
<circle fill="none" stroke="#FFFFFF" stroke-miterlimit="10" cx="393.509" cy="279.834" r="6.994"/>
<circle fill="#FFFFFF" cx="393.509" cy="279.835" r="0.912"/>
<path fill="none" stroke="#FFFFFF" stroke-miterlimit="10" d="M373.336,321.045c5.208-11.562,1.604-16.312,1.438-18.812"/>
<path fill="none" stroke="#FFFFFF" stroke-miterlimit="10" d="M374.774,318.396c4.353-6,8.136-14.958,6.937-20.125"/>
<path fill="none" stroke="#FFFFFF" stroke-miterlimit="10" d="M373.026,321.562c3.457-4,5.184-9.792,13.767-14.542"/>
<path fill="none" stroke="#FFFFFF" stroke-miterlimit="10" d="M371.993,323.16c1.905-4.512,11.262-14.514,19.364-12.431"/>
<g>
	<path fill="none" stroke="#FFFFFF" stroke-miterlimit="10" d="M299.551,359.614c-10.023-10.79-9.882-20.744-38.763-20.744
		c-29.963,0-37.967-26.269-37.967-34.478"/>
	<path fill="none" stroke="#FFFFFF" stroke-miterlimit="10" d="M300.723,360.83"/>
	<path fill="none" stroke="#FFFFFF" stroke-miterlimit="10" d="M257.104,338.729c-26.279,10.604-27.716,25.384-50.496,25.384
		c-22.78,0-29.963-28.73-16.008-40.02c13.955-11.287,16.213-16.828,16.213-30.988c0-1.494,0.037-2.82,0.103-3.995"/>
	<path fill="none" stroke="#FFFFFF" stroke-miterlimit="10" d="M283.464,342.772c-15.083,0-23.907,16.005-31.706,16.005"/>
	<path fill="none" stroke="#FFFFFF" stroke-miterlimit="10" d="M233.677,352.878c-5.323,0-9.64-4.312-9.64-9.639
		c0-4.26,3.453-7.713,7.712-7.713c3.407,0,6.17,2.763,6.17,6.17c0,2.726-2.21,4.936-4.937,4.936c-2.18,0-3.947-1.768-3.947-3.945
		c0-1.745,1.414-3.159,3.158-3.159"/>
	<path fill="none" stroke="#FFFFFF" stroke-miterlimit="10" d="M254.457,338.396c-5.324,0-9.64-4.314-9.64-9.642
		c0-4.26,3.452-7.712,7.711-7.712c3.408,0,6.17,2.766,6.17,6.17c0,2.729-2.21,4.938-4.936,4.938c-2.181,0-3.949-1.771-3.949-3.948
		c0-1.745,1.414-3.159,3.159-3.159"/>
	<path fill="none" stroke="#FFFFFF" stroke-miterlimit="10" d="M278.812,343.287c-5.207,1.112-8.894,6.234-7.782,11.44
		c0.891,4.165,4.988,6.817,9.153,5.931c3.332-0.712,5.456-3.99,4.744-7.322c-0.569-2.666-3.191-4.362-5.858-3.796
		c-2.132,0.456-3.492,2.557-3.035,4.688c0.364,1.707,2.042,2.794,3.748,2.43"/>
	<path fill="none" stroke="#FFFFFF" stroke-miterlimit="10" d="M189.084,325.469c7.575-7.577,19.858-7.577,27.434,0
		c5.734,5.732,5.733,15.028,0,20.765c-4.34,4.341-11.377,4.341-15.717,0c-3.285-3.285-3.285-8.612,0-11.896
		c2.487-2.483,6.519-2.483,9.004,0c1.884,1.886,1.882,4.937,0,6.816c-1.425,1.423-3.735,1.423-5.16-0.003"/>
</g>
<g>
	<path fill="none" stroke="#FFFFFF" stroke-miterlimit="10" d="M205.79,272.84c0,1.188,0.964,0.241,2.151,0.241
		s2.151,0.946,2.151-0.241c0-1.187-2.151-4.117-2.151-4.117S205.79,271.652,205.79,272.84z"/>
	<path fill="none" stroke="#FFFFFF" stroke-miterlimit="10" d="M209.576,272.701c-0.594,1.029,0.714,0.691,1.742,1.285
		c1.028,0.594,1.39,1.895,1.983,0.867c0.594-1.029,0.196-4.643,0.196-4.643S210.17,271.674,209.576,272.701z"/>
	<path fill="none" stroke="#FFFFFF" stroke-miterlimit="10" d="M212.924,274.475c-1.029,0.594,0.272,0.955,0.866,1.983
		c0.594,1.025,0.257,2.335,1.284,1.74c1.029-0.595,2.491-3.922,2.491-3.922S213.952,273.881,212.924,274.475z"/>
	<path fill="none" stroke="#FFFFFF" stroke-miterlimit="10" d="M214.937,277.684c-1.188,0-0.241,0.964-0.242,2.152
		c0.001,1.187-0.944,2.147,0.241,2.147c1.188,0,4.118-2.147,4.118-2.147S216.124,277.684,214.937,277.684z"/>
	<path fill="none" stroke="#FFFFFF" stroke-miterlimit="10" d="M215.074,281.469c-1.028-0.597-0.689,0.715-1.285,1.744
		c-0.592,1.024-1.893,1.389-0.866,1.979c1.029,0.594,4.642,0.194,4.642,0.194S216.104,282.062,215.074,281.469z"/>
	<path fill="none" stroke="#FFFFFF" stroke-miterlimit="10" d="M213.302,284.816c-0.594-1.028-0.954,0.273-1.985,0.867
		c-1.025,0.594-2.334,0.258-1.741,1.283c0.595,1.026,3.921,2.489,3.921,2.489S213.896,285.846,213.302,284.816z"/>
	<path fill="none" stroke="#FFFFFF" stroke-miterlimit="10" d="M210.093,286.829c0-1.187-0.964-0.239-2.153-0.241
		c-1.185,0.002-2.15-0.94-2.15,0.241c0.002,1.188,2.15,4.118,2.15,4.118S210.094,288.018,210.093,286.829z"/>
	<path fill="none" stroke="#FFFFFF" stroke-miterlimit="10" d="M206.307,286.969c0.594-1.027-0.715-0.688-1.744-1.287
		c-1.026-0.59-1.391-1.894-1.982-0.864c-0.592,1.028-0.197,4.641-0.197,4.641S205.714,287.998,206.307,286.969z"/>
	<path fill="none" stroke="#FFFFFF" stroke-miterlimit="10" d="M202.959,285.195c1.027-0.594-0.275-0.954-0.867-1.986
		c-0.594-1.022-0.259-2.334-1.284-1.74c-1.027,0.599-2.491,3.92-2.491,3.92S201.931,285.791,202.959,285.195z"/>
	<path fill="none" stroke="#FFFFFF" stroke-miterlimit="10" d="M200.946,281.986c1.187-0.001,0.238-0.965,0.242-2.154
		c-0.003-1.184,0.942-2.15-0.242-2.148c-1.188,0.005-4.117,2.148-4.117,2.148S199.758,281.988,200.946,281.986z"/>
	<path fill="none" stroke="#FFFFFF" stroke-miterlimit="10" d="M200.808,278.201c1.028,0.592,0.688-0.717,1.287-1.745
		c0.589-1.026,1.892-1.392,0.864-1.981c-1.029-0.592-4.64-0.195-4.64-0.195S199.777,277.607,200.808,278.201z"/>
	<path fill="none" stroke="#FFFFFF" stroke-miterlimit="10" d="M202.58,274.854c0.595,1.025,0.955-0.277,1.987-0.868
		c1.022-0.595,2.334-0.259,1.739-1.284c-0.596-1.027-3.919-2.49-3.919-2.49S201.984,273.824,202.58,274.854z"/>
</g>
<circle fill="none" stroke="#FFFFFF" stroke-miterlimit="10" cx="207.941" cy="279.834" r="6.994"/>
<path fill="none" stroke="#FFFFFF" stroke-miterlimit="10" d="M201.544,313.495c4.571-7.642,1.196-17.892-4.179-18.517"/>
<circle fill="#FFFFFF" cx="197.365" cy="294.979" r="0.912"/>
<circle fill="#FFFFFF" cx="207.941" cy="279.835" r="0.912"/>
<path fill="none" stroke="#FFFFFF" stroke-miterlimit="10" d="M228.114,321.045c-5.208-11.562-1.604-16.312-1.438-18.812"/>
<path fill="none" stroke="#FFFFFF" stroke-miterlimit="10" d="M226.676,318.396c-4.353-6-8.136-14.958-6.937-20.125"/>
<path fill="none" stroke="#FFFFFF" stroke-miterlimit="10" d="M228.424,321.562c-3.457-4-5.184-9.792-13.767-14.542"/>
<path fill="none" stroke="#FFFFFF" stroke-miterlimit="10" d="M229.051,322.551c-2.784-6.222-2.06-13.527,1.106-15.86"/>
<path fill="none" stroke="#FFFFFF" stroke-miterlimit="10" d="M229.457,323.16c-1.905-4.512-11.262-14.514-19.364-12.431"/>
<circle fill="none" stroke="#FFFFFF" stroke-miterlimit="10" cx="300.728" cy="360.83" r="1.586"/>
<path fill="none" stroke="#FFFFFF" stroke-miterlimit="10" d="M323.362,330.092c-0.794,1.062-0.577,2.568,0.482,3.364
	c1.063,0.794,2.568,0.576,3.364-0.483L323.362,330.092z"/>
<path fill="none" stroke="#FFFFFF" stroke-miterlimit="10" d="M329.441,328.1c-0.461,1.244,0.172,2.628,1.416,3.091
	c1.242,0.461,2.627-0.173,3.09-1.417L329.441,328.1z"/>
<path fill="none" stroke="#FFFFFF" stroke-miterlimit="10" d="M340.383,321.988c0,0-3.6,2.642-5.217,2.504
	c-1.615-0.138-2.814-1.56-2.677-3.176c0.137-1.616,1.56-2.815,3.176-2.678C337.281,318.775,340.383,321.988,340.383,321.988z"/>
<circle fill="#FFFFFF" cx="300.796" cy="351.926" r="0.988"/>
<circle fill="#FFFFFF" cx="300.796" cy="348.25" r="0.988"/>
<circle fill="#FFFFFF" cx="300.796" cy="344.573" r="0.988"/>
<circle fill="#FFFFFF" cx="300.796" cy="340.896" r="0.988"/>
<circle fill="#FFFFFF" cx="300.796" cy="337.219" r="0.988"/>
<circle fill="#FFFFFF" cx="300.796" cy="333.543" r="0.988"/>
<circle fill="#FFFFFF" cx="300.796" cy="329.877" r="0.988"/>
<circle fill="#FFFFFF" cx="303.835" cy="331.854" r="0.988"/>
<circle fill="#FFFFFF" cx="306.835" cy="333.543" r="0.988"/>
<circle fill="#FFFFFF" cx="306.835" cy="337.219" r="0.988"/>
<circle fill="#FFFFFF" cx="312.272" cy="337.219" r="0.988"/>
<circle fill="#FFFFFF" cx="306.835" cy="340.896" r="0.988"/>
<circle fill="#FFFFFF" cx="303.835" cy="335.243" r="0.988"/>
<circle fill="#FFFFFF" cx="309.772" cy="332.052" r="0.988"/>
<circle fill="#FFFFFF" cx="306.772" cy="330.076" r="0.988"/>
<circle fill="#FFFFFF" cx="303.835" cy="338.633" r="0.988"/>
<circle fill="#FFFFFF" cx="309.772" cy="335.243" r="0.988"/>
<circle fill="#FFFFFF" cx="309.772" cy="338.633" r="0.988"/>
<circle fill="#FFFFFF" cx="303.835" cy="342.022" r="0.988"/>
<circle fill="#FFFFFF" cx="303.835" cy="345.412" r="0.988"/>
<circle fill="#FFFFFF" cx="297.628" cy="331.854" r="0.988"/>
<circle fill="#FFFFFF" cx="294.628" cy="333.543" r="0.988"/>
<circle fill="#FFFFFF" cx="294.628" cy="337.219" r="0.988"/>
<circle fill="#FFFFFF" cx="289.19" cy="337.219" r="0.988"/>
<circle fill="#FFFFFF" cx="294.628" cy="340.896" r="0.988"/>
<circle fill="#FFFFFF" cx="297.628" cy="335.243" r="0.988"/>
<circle fill="#FFFFFF" cx="291.419" cy="332.329" r="0.988"/>
<circle fill="#FFFFFF" cx="294.419" cy="330.352" r="0.988"/>
<circle fill="#FFFFFF" cx="297.628" cy="338.633" r="0.988"/>
<circle fill="#FFFFFF" cx="291.69" cy="335.243" r="0.988"/>
<circle fill="#FFFFFF" cx="291.69" cy="338.633" r="0.988"/>
<circle fill="#FFFFFF" cx="297.628" cy="342.022" r="0.988"/>
<circle fill="#FFFFFF" cx="297.628" cy="345.412" r="0.988"/>
<path fill="none" stroke="#FFFFFF" stroke-miterlimit="10" d="M281.606,321.562c0,0,40.265,0,51.296,0"/>
<path fill="none" stroke="#FFFFFF" stroke-miterlimit="10" d="M322.582,321.562c5.398,0,10.773,2.541,9.086,7.729"/>
<path fill="none" stroke="#FFFFFF" stroke-miterlimit="10" d="M319.105,321.562c5.25,0,11,4.479,6.062,10.291"/>
<circle fill="#FFFFFF" cx="281.606" cy="321.562" r="0.988"/>
<path fill="none" stroke="#FFFFFF" stroke-miterlimit="10" d="M278.747,316.135c0.794-1.063,0.577-2.569-0.485-3.365
	c-1.063-0.794-2.568-0.576-3.364,0.483L278.747,316.135z"/>
<path fill="none" stroke="#FFFFFF" stroke-miterlimit="10" d="M272.668,318.125c0.461-1.244-0.172-2.628-1.416-3.091
	c-1.245-0.461-2.627,0.173-3.09,1.417L272.668,318.125z"/>
<path fill="none" stroke="#FFFFFF" stroke-miterlimit="10" d="M261.727,324.236c0,0,3.6-2.643,5.217-2.504
	c1.615,0.138,2.814,1.56,2.677,3.176c-0.137,1.616-1.56,2.815-3.176,2.678C264.829,327.449,261.727,324.236,261.727,324.236z"/>
<g>
	<path fill="none" stroke="#FFFFFF" stroke-miterlimit="10" d="M320.504,324.662c0,0-40.266,0-51.297,0"/>
	<path fill="none" stroke="#FFFFFF" stroke-miterlimit="10" d="M279.527,324.662c-5.398,0-10.773-2.541-9.086-7.729"/>
	<path fill="none" stroke="#FFFFFF" stroke-miterlimit="10" d="M283.004,324.662c-5.25,0-11-4.479-6.062-10.291"/>
</g>
<circle fill="#FFFFFF" cx="320.504" cy="324.662" r="0.988"/>
<circle fill="#FFFFFF" cx="279.527" cy="356.659" r="1.019"/>
<circle fill="#FFFFFF" cx="321.492" cy="356.659" r="1.019"/>
<circle fill="#FFFFFF" cx="219.775" cy="298.27" r="1.019"/>
<circle fill="#FFFFFF" cx="222.821" cy="304.392" r="1.019"/>
<circle fill="#FFFFFF" cx="226.676" cy="302.229" r="1.019"/>
<circle fill="#FFFFFF" cx="230.157" cy="306.573" r="1.019"/>
<path fill="none" stroke="#FFFFFF" stroke-miterlimit="10" d="M372.19,322.551c2.78-6.222,2.059-13.527-1.107-15.86"/>
<circle fill="#FFFFFF" cx="371.084" cy="306.573" r="1.019"/>
<circle fill="#FFFFFF" cx="214.657" cy="307.02" r="1.019"/>
<circle fill="#FFFFFF" cx="210.093" cy="310.77" r="1.019"/>
<g>
	<circle fill="#FFFFFF" cx="381.51" cy="298.27" r="1.019"/>
	<circle fill="#FFFFFF" cx="378.463" cy="304.392" r="1.019"/>
	<circle fill="#FFFFFF" cx="374.608" cy="302.229" r="1.019"/>
	<circle fill="#FFFFFF" cx="386.627" cy="307.02" r="1.019"/>
	<circle fill="#FFFFFF" cx="391.191" cy="310.77" r="1.019"/>
</g>
<path fill="none" stroke="#FFFFFF" stroke-miterlimit="10" d="M345.417,315.532c4.785,0,8.664-3.879,8.664-8.664
	c0-4.565-3.53-8.305-8.011-8.639l-0.018-0.065c-1.101-4.656-5.768-7.539-10.425-6.439l0,0c-2.646-3.986-8.021-5.074-12.009-2.433"/>
<path fill="none" stroke="#FFFFFF" stroke-miterlimit="10" d="M256.113,315.532c-4.785,0-8.664-3.879-8.664-8.664
	c0-4.565,3.53-8.305,8.011-8.639l0.015-0.065c1.101-4.656,5.768-7.539,10.425-6.439l0,0c2.646-3.986,8.021-5.074,12.009-2.433"/>
<path fill="none" stroke="#FFFFFF" stroke-miterlimit="10" d="M253.142,315.053c-6.291,0-11.391-5.102-11.391-11.393
	c0-6.002,4.641-10.917,10.531-11.354l0.02-0.086c1.447-6.123,7.582-9.91,13.704-8.467l0,0c3.478-5.242,10.544-6.676,15.786-3.197"/>
<path fill="none" stroke="#FFFFFF" stroke-miterlimit="10" d="M348.188,315.053c6.29,0,11.392-5.102,11.392-11.393
	c0-6.002-4.644-10.917-10.53-11.354l-0.02-0.086c-1.447-6.123-7.582-9.91-13.705-8.467l0,0c-3.479-5.242-10.543-6.676-15.786-3.197"
	/>
<path fill="none" stroke="#FFFFFF" stroke-miterlimit="10" d="M302.097,361.467c0,0.361-0.146,0.726-0.404,1.088
	c-0.256,0.359-0.613,0.724-0.978,1.085c-0.361,0.359-0.723,0.725-0.978,1.086c-0.255,0.358-0.405,0.724-0.405,1.086
	c0,0.358,0.15,0.723,0.405,1.085c0.255,0.359,0.616,0.724,0.978,1.085c0.361,0.359,0.722,0.725,0.978,1.086
	c0.258,0.358,0.404,0.724,0.404,1.086c0,0.359-0.146,0.723-0.404,1.085c-0.256,0.362-0.613,0.724-0.978,1.085
	c-0.361,0.362-0.723,0.725-0.978,1.086c-0.255,0.361-0.405,0.724-0.405,1.086c0,0.361,0.15,0.723,0.405,1.085
	c0.255,0.362,0.616,0.725,0.978,1.085c0.361,0.362,0.722,0.728,0.978,1.086c0.258,0.361,0.404,0.727,0.404,1.086
	c0,0.361-0.146,0.726-0.404,1.085c-0.256,0.362-0.613,0.727-0.978,1.085c-0.361,0.362-0.723,0.728-0.978,1.086
	c-0.255,0.361-0.405,0.727-0.405,1.086c0,0.361,0.15,0.726,0.405,1.085c0.255,0.362,0.616,0.727,0.978,1.086
	c0.361,0.361,0.722,0.727,0.978,1.088c0.258,0.358,0.404,0.724,0.404,1.086c0,0.358-0.146,0.723-0.404,1.085
	c-0.256,0.359-0.613,0.724-0.978,1.085c-0.361,0.359-0.723,0.725-0.978,1.086c-0.255,0.358-0.405,0.724-0.405,1.086
	c0,0.359,0.15,0.723,0.405,1.085c0.255,0.362,0.616,0.724,0.978,1.085"/>
<path fill="none" stroke="#FFFFFF" stroke-miterlimit="10" d="M299.333,361.467c0,0.361,0.149,0.726,0.404,1.088
	c0.256,0.359,0.616,0.724,0.978,1.085c0.361,0.359,0.724,0.725,0.978,1.086c0.258,0.358,0.406,0.724,0.406,1.086
	c0,0.358-0.148,0.723-0.406,1.085c-0.254,0.359-0.613,0.724-0.978,1.085c-0.361,0.359-0.722,0.725-0.978,1.086
	c-0.255,0.358-0.404,0.724-0.404,1.086c0,0.359,0.149,0.723,0.404,1.085c0.256,0.362,0.616,0.724,0.978,1.085
	c0.361,0.362,0.724,0.725,0.978,1.086c0.258,0.361,0.406,0.724,0.406,1.086c0,0.361-0.148,0.723-0.406,1.085
	c-0.254,0.362-0.613,0.725-0.978,1.085c-0.361,0.362-0.722,0.728-0.978,1.086c-0.255,0.361-0.404,0.727-0.404,1.086
	c0,0.361,0.149,0.726,0.404,1.085c0.256,0.362,0.616,0.727,0.978,1.085c0.361,0.362,0.724,0.728,0.978,1.086
	c0.258,0.361,0.406,0.727,0.406,1.086c0,0.361-0.148,0.726-0.406,1.085c-0.254,0.362-0.613,0.727-0.978,1.086
	c-0.361,0.361-0.722,0.727-0.978,1.088c-0.255,0.358-0.404,0.724-0.404,1.086c0,0.358,0.149,0.723,0.404,1.085
	c0.256,0.359,0.616,0.724,0.978,1.085c0.361,0.359,0.724,0.725,0.978,1.086c0.258,0.358,0.406,0.724,0.406,1.086
	c0,0.359-0.148,0.723-0.406,1.085c-0.254,0.362-0.613,0.724-0.978,1.085l-2.43,2.43"/>
<polyline fill="none" stroke="#FFFFFF" stroke-miterlimit="10" points="303.13,396.445 300.715,394.029 300.715,407.229 "/>
<line fill="none" stroke="#FFFFFF" stroke-miterlimit="10" x1="337.329" y1="304.936" x2="343.438" y2="304.936"/>
<line fill="none" stroke="#FFFFFF" stroke-miterlimit="10" x1="256.867" y1="304.936" x2="262.975" y2="304.936"/>
<g>
	<path fill="#FFFFFF" d="M222.078,272.316h3.823v-29.13h-3.823v-0.483h14.525c9.174,0,15.611,6.719,15.611,14.968
		c0,8.329-6.438,15.128-15.611,15.128h-14.525V272.316L222.078,272.316z M230.97,272.316v-29.13h-4.587v29.13H230.97z
		 M227.188,243.99h2.977v27.521h-2.977V243.99L227.188,243.99z M236.603,272.316c3.541,0,6.719-1.046,9.214-2.856v-23.417
		c-2.495-1.811-5.674-2.857-9.214-2.857h-5.15v29.13H236.603z M251.732,257.671c0-4.547-2.052-8.61-5.432-11.267v22.693
		C249.679,266.442,251.732,262.298,251.732,257.671z M247.104,248.176c2.414,2.453,3.823,5.793,3.823,9.495
		c0,3.822-1.328,7.121-3.823,9.615V248.176z"/>
	<path fill="#FFFFFF" d="M261.104,262.66h1.529c2.656,0,4.587-1.207,4.587-3.098v-6.479c-0.724-0.201-1.529-0.322-2.374-0.322
		c-1.851,0-3.742,0.443-5.15,1.167c0.523,0.442,1.851,1.61,1.851,2.897c0,1.408-1.167,2.293-2.374,2.293
		c-1.287,0-2.374-0.965-2.374-2.374c0-2.414,4.104-4.466,8.047-4.466c4.748,0,7.765,2.979,7.765,8.288v11.99
		c2.253-0.281,3.823-2.293,3.823-4.868h0.482c0,2.978-2.052,5.393-4.828,5.393c-2.374,0-4.184-1.651-4.707-4.025
		c-0.282,1.047-0.765,1.973-1.569,2.696c-1.046,0.926-2.575,1.529-4.547,1.529c-4.063,0-5.995-2.334-5.995-5.312
		C255.27,264.511,257.725,262.66,261.104,262.66z M260.501,272.76v-9.577c-2.817,0.201-4.748,1.852-4.748,4.788
		C255.753,270.506,257.282,272.518,260.501,272.76z M259.696,264.108v7.725c-2.133-0.442-3.139-1.972-3.139-3.862
		C256.558,265.799,257.805,264.511,259.696,264.108z M261.064,256.826c0-1.248-1.489-2.414-1.811-2.656
		c-1.207,0.725-1.971,1.609-1.971,2.574c0,1.087,0.845,1.892,1.891,1.892C260.139,258.637,261.064,257.912,261.064,256.826z
		 M258.087,256.745c0-0.563,0.362-1.086,1.086-1.61c0.443,0.404,1.087,1.047,1.087,1.691c0,0.604-0.523,1.006-1.087,1.006
		C258.569,257.832,258.087,257.389,258.087,256.745z M261.266,272.799c3.983,0,5.955-2.494,5.955-5.513v-6.155
		c-0.403,0.725-1.086,1.287-2.012,1.609c-0.725,0.282-1.61,0.402-2.575,0.402h-1.529h-0.121v9.656H261.266z M272.089,272.598h0.04
		v-12.029c0-3.782-1.69-6.357-4.426-7.323v14.324C267.703,270.425,269.514,272.598,272.089,272.598z M268.507,254.532
		c1.73,1.087,2.816,3.179,2.816,6.036v11.145c-1.689-0.402-2.816-2.052-2.816-4.144V254.532z"/>
	<path fill="#FFFFFF" d="M278.203,272.316h3.823v-29.13h-3.823v-0.483h15.41c5.754,0,9.536,3.541,9.536,8.088
		c0,3.138-1.771,6.075-5.11,7.604c3.34,1.287,4.748,3.903,4.748,7.081v7.323c2.495-0.241,4.265-2.414,4.265-5.109h0.483
		c0,3.099-2.214,5.592-5.23,5.592c-3.018,0-5.272-2.493-5.272-5.794v-8.812h-9.455v13.641h3.823v0.482h-13.198V272.316
		L278.203,272.316z M287.095,272.316v-29.13h-4.586v29.13H287.095z M283.313,243.99h2.977v27.521h-2.977V243.99z M297.033,258.193
		v-14.484c-1.045-0.322-2.172-0.523-3.419-0.523h-6.035v15.007H297.033z M302.666,250.791c0-3.139-1.972-5.754-5.15-6.921v14.284
		C300.855,256.705,302.666,253.848,302.666,250.791z M302.304,272.799v-7.323c0-3.058-1.448-5.593-4.788-6.759v8.771
		C297.516,270.546,299.528,272.799,302.304,272.799z M298.32,245.117c2.213,1.207,3.54,3.26,3.54,5.674
		c0,2.333-1.407,4.666-3.54,6.075V245.117z M298.32,259.964c2.092,1.167,3.179,3.179,3.179,5.513v6.438
		c-1.891-0.362-3.179-2.133-3.179-4.427V259.964z"/>
	<path fill="#FFFFFF" d="M320.246,252.279c5.875,0,10.704,4.828,10.704,10.542c0,5.633-4.829,10.461-10.704,10.461
		c-5.874,0-10.702-4.828-10.702-10.461C309.544,257.107,314.372,252.279,320.246,252.279z M314.694,254.412
		c-2.816,1.811-4.668,4.949-4.668,8.409s1.852,6.559,4.668,8.369V254.412z M310.832,262.821c0-2.737,1.046-5.029,3.058-6.76v13.479
		C311.998,267.85,310.832,265.477,310.832,262.821z M320.246,272.799c1.851,0,3.581-0.482,5.11-1.368V254.13
		c-1.529-0.845-3.26-1.368-5.11-1.368s-3.58,0.483-5.069,1.368v17.342C316.665,272.316,318.396,272.799,320.246,272.799z
		 M330.466,262.821c0-3.46-1.851-6.599-4.627-8.409v16.737C328.615,269.34,330.466,266.24,330.466,262.821z M326.645,256.062
		c1.891,1.688,3.018,4.104,3.018,6.76c0,2.615-1.127,4.989-3.018,6.679V256.062z"/>
	<path fill="#FFFFFF" d="M333.12,272.396l12.835-19.151h-10.823v4.948h-0.482v-5.432h17.582v0.402l-12.874,19.152h12.151v-5.473
		h0.481v5.955h-18.87V272.396z M338.794,272.316l12.794-19.071h-5.068l-12.795,19.071H338.794z M346.961,254.049h3.099
		l-11.708,17.463h-3.099L346.961,254.049z"/>
	<path fill="#FFFFFF" d="M360.961,262.66h1.529c2.655,0,4.587-1.207,4.587-3.098v-6.479c-0.724-0.201-1.528-0.322-2.374-0.322
		c-1.851,0-3.742,0.443-5.149,1.167c0.522,0.442,1.85,1.61,1.85,2.897c0,1.408-1.166,2.293-2.373,2.293
		c-1.287,0-2.374-0.965-2.374-2.374c0-2.414,4.104-4.466,8.047-4.466c4.748,0,7.766,2.979,7.766,8.288v11.99
		c2.253-0.281,3.823-2.293,3.823-4.868h0.482c0,2.978-2.053,5.393-4.828,5.393c-2.374,0-4.185-1.651-4.708-4.025
		c-0.282,1.047-0.765,1.973-1.568,2.696c-1.047,0.926-2.576,1.529-4.548,1.529c-4.062,0-5.994-2.334-5.994-5.312
		C355.128,264.511,357.581,262.66,360.961,262.66z M360.357,272.76v-9.577c-2.815,0.201-4.748,1.852-4.748,4.788
		C355.609,270.506,357.14,272.518,360.357,272.76z M359.553,264.108v7.725c-2.133-0.442-3.139-1.972-3.139-3.862
		C356.415,265.799,357.661,264.511,359.553,264.108z M360.921,256.826c0-1.248-1.488-2.414-1.811-2.656
		c-1.207,0.725-1.971,1.609-1.971,2.574c0,1.087,0.845,1.892,1.891,1.892C359.995,258.637,360.921,257.912,360.921,256.826z
		 M357.943,256.745c0-0.563,0.362-1.086,1.087-1.61c0.442,0.404,1.086,1.047,1.086,1.691c0,0.604-0.522,1.006-1.086,1.006
		C358.427,257.832,357.943,257.389,357.943,256.745z M361.122,272.799c3.983,0,5.955-2.494,5.955-5.513v-6.155
		c-0.402,0.725-1.087,1.287-2.011,1.609c-0.726,0.282-1.61,0.402-2.576,0.402h-1.529h-0.12v9.656H361.122z M371.945,272.598h0.04
		v-12.029c0-3.782-1.688-6.357-4.426-7.323v14.324C367.56,270.425,369.37,272.598,371.945,272.598z M368.364,254.532
		c1.73,1.087,2.816,3.179,2.816,6.036v11.145c-1.689-0.402-2.816-2.052-2.816-4.144V254.532z"/>
</g>
</svg>
