<?xml version="1.0" encoding="utf-8"?>
<!-- Generator: Adobe Illustrator 16.0.3, SVG Export Plug-In . SVG Version: 6.00 Build 0)  -->
<!DOCTYPE svg PUBLIC "-//W3C//DTD SVG 1.1//EN" "http://www.w3.org/Graphics/SVG/1.1/DTD/svg11.dtd">
<svg version="1.1" id="Layer_1" xmlns="http://www.w3.org/2000/svg" xmlns:xlink="http://www.w3.org/1999/xlink" x="0px" y="0px"
	 width="167.783px" height="105.906px" viewBox="0 0 167.783 105.906" enable-background="new 0 0 167.783 105.906"
	 xml:space="preserve">
<g>
	<g>
		<circle fill="#AE1D22" cx="121.212" cy="78.614" r="1.167"/>
		<circle fill="#AE1D22" cx="137.431" cy="78.77" r="1.167"/>
		<g>
			<g>
				<path fill="#AE1D22" d="M125.583,88.828c-3.548-2.811-4.87-7.728-4.87-10.166h1c0,2.252,1.219,6.79,4.491,9.382
					c2.364,1.873,5.361,2.4,8.91,1.565c3.343-0.789,5.753-2.674,7.163-5.602c1.492-3.098,1.572-6.731,1.188-9.3
					c-0.954,0.215-1.925,0.059-2.781-0.485c-1.482-0.941-1.396-2.092-1.291-2.543c0.206-0.88,0.981-1.562,1.886-1.657
					c0.462-0.047,1.629,0.008,2.379,1.592c0.197,0.418,0.391,1.007,0.554,1.722c0.201-0.122,0.399-0.268,0.591-0.438
					c1.298-1.145,2.141-3.299,1.243-5.201c-1.447-3.057-7.455-1.829-8.725-1.53c-0.527,1.308-1.386,3.877-1.462,5.806
					c0.561,0.063,1.064,0.22,1.466,0.501c0.73,0.51,1.053,1.337,0.958,2.458l-0.034,0.409l-0.408,0.046
					c-1.323,0.153-2.023-0.384-2.378-0.858c-0.316-0.422-0.49-0.971-0.562-1.589c-1.986,0.11-4.66,1.141-5.817,1.677l-0.421-0.906
					c0.468-0.218,3.625-1.642,6.202-1.764c0.085-2.642,1.422-5.909,1.628-6.398l0.095-0.225l0.235-0.064
					c0.332-0.089,8.155-2.147,10.125,2.01c1.162,2.458,0.044,5.029-1.485,6.379c-0.335,0.296-0.689,0.536-1.055,0.719
					c0.439,2.765,0.383,6.725-1.23,10.074c-1.548,3.213-4.184,5.279-7.835,6.141c-1.172,0.276-2.29,0.414-3.353,0.414
					C129.551,90.995,127.405,90.271,125.583,88.828z M136.263,73.929c0.227,0.303,0.566,0.462,1.031,0.481
					c-0.029-0.517-0.208-0.884-0.543-1.118c-0.228-0.159-0.516-0.26-0.847-0.313C135.964,73.359,136.079,73.684,136.263,73.929z
					 M142.752,72.042c-0.339-0.719-0.819-1.083-1.369-1.025c-0.48,0.052-0.909,0.426-1.018,0.891
					c-0.122,0.521,0.181,1.044,0.853,1.472c0.639,0.407,1.355,0.517,2.065,0.347C143.13,73.022,142.943,72.445,142.752,72.042z"/>
			</g>
			<g>
				<path fill="#AE1D22" d="M133.278,84.854c1.501,0,2.946-0.667,3.921-1.632c1.43-1.416,1.692-3.268,0.684-4.831l-0.841,0.541
					c0.749,1.161,0.544,2.499-0.547,3.579c-1.242,1.23-3.535,1.896-5.341,0.706c-3.209-2.117-1.807-8.882-1.793-8.95l-0.321-0.068
					l-0.247-0.549l-0.357,0.16l-0.053,0.248c-0.065,0.305-1.559,7.501,2.22,9.994C131.456,84.614,132.377,84.854,133.278,84.854z"/>
			</g>
		</g>
	</g>
	<g>
		<path fill="none" stroke="#AE1D22" stroke-miterlimit="10" d="M82.287,84.31"/>
		<path fill="#AE1D22" d="M90.251,82.22c-0.196-0.325-0.51-0.864-0.843-1.504c-0.341,0.695-0.655,1.25-0.798,1.497l-0.865-0.502
			c0.36-0.62,0.755-1.391,1.097-2.161c-0.65-1.45-1.146-3.051-0.669-3.876c0.131-0.228,0.434-0.596,1.165-0.593
			c0.673,0.013,1.006,0.357,1.167,0.644c0.47,0.833,0.026,2.405-0.559,3.81c0.302,0.641,0.652,1.304,1.018,1.928h1.83
			c0.23-0.405,0.453-0.827,0.66-1.249c-0.453-1.593-0.854-3.673-0.216-4.595c0.243-0.352,0.605-0.537,1.05-0.537
			c0.675,0,1.011,0.337,1.173,0.62c0.562,0.979-0.193,3.03-0.936,4.598c0.121,0.405,0.25,0.8,0.381,1.163h27.08v1H94.21
			l-0.122-0.323c-0.047-0.124-0.12-0.322-0.208-0.575c-0.158,0.29-0.287,0.516-0.366,0.651l-0.145,0.247h-2.973L90.251,82.22z
			 M94.061,76.187c-0.27,0.39-0.187,1.396,0.057,2.535c0.458-1.163,0.691-2.148,0.476-2.523c-0.022-0.038-0.067-0.117-0.305-0.117
			C94.158,76.082,94.106,76.12,94.061,76.187z M89.039,76.174c-0.18,0.311-0.018,1.078,0.338,2.028
			c0.305-0.892,0.447-1.648,0.257-1.987c-0.025-0.045-0.073-0.129-0.316-0.134c-0.007,0-0.013,0-0.02,0
			C89.093,76.082,89.055,76.146,89.039,76.174z"/>
		<path fill="none" stroke="#AE1D22" stroke-miterlimit="10" d="M73.6,84.31"/>
		<g>
			<path fill="#AE1D22" d="M70.287,105.906c-0.398-0.008-0.732-0.188-0.967-0.519c-0.783-1.105-0.275-4.201,0.389-6.911
				c-0.341-1.284-0.736-2.585-1.121-3.727h-1.757c-0.23,0.405-0.453,0.827-0.66,1.25c0.453,1.593,0.854,3.674,0.216,4.596
				c-0.243,0.352-0.605,0.537-1.05,0.537c-0.675,0-1.01-0.337-1.173-0.62c-0.562-0.979,0.193-3.031,0.936-4.6
				c-0.158-0.527-0.331-1.038-0.5-1.486l0.936-0.354c0.047,0.124,0.12,0.322,0.208,0.575c0.158-0.29,0.287-0.516,0.366-0.651
				l0.145-0.247h3.046l0.117,0.337c0.149,0.432,0.457,1.345,0.797,2.48c0.322-1.134,0.615-2.045,0.757-2.475l0.949,0.314
				c-0.402,1.216-0.819,2.65-1.17,4.065c0.719,2.741,1.288,5.877,0.508,6.949c-0.228,0.313-0.563,0.484-0.948,0.484
				C70.304,105.906,70.295,105.906,70.287,105.906z M70.135,104.809c0.057,0.08,0.104,0.096,0.171,0.097
				c0.061,0,0.104-0.015,0.145-0.072c0.372-0.511,0.21-2.136-0.201-4.096C69.883,102.669,69.758,104.276,70.135,104.809z
				 M65.031,100.015c0.022,0.038,0.067,0.117,0.305,0.117c0.129,0,0.181-0.038,0.227-0.105c0.27-0.39,0.186-1.396-0.057-2.536
				C65.048,98.654,64.816,99.639,65.031,100.015z"/>
		</g>
		<path fill="#AE1D22" d="M72.956,100.583c-0.587-0.897-0.103-2.691,0.686-4.677c-0.161-0.404-0.331-0.797-0.498-1.156h-1.696
			v-0.452l-0.476-0.203l0.112-0.345h2.688l0.137,0.28c0.061,0.124,0.157,0.325,0.273,0.583c0.023-0.055,0.047-0.109,0.071-0.164
			l0.169-0.392c0.315-0.757,1.286-1.246,2.208-1.108c0.61,0.091,2.06,0.601,2.342,3.379l-0.995,0.102
			c-0.149-1.465-0.693-2.373-1.493-2.491c-0.512-0.075-1.015,0.204-1.14,0.504l-0.175,0.406c-0.166,0.38-0.315,0.733-0.448,1.062
			c0.591,1.556,1.159,3.603,0.54,4.594c-0.179,0.287-0.535,0.629-1.214,0.629C73.442,101.132,73.12,100.833,72.956,100.583z
			 M73.792,100.035c0.022,0.034,0.064,0.098,0.253,0.098c0.235,0,0.315-0.076,0.366-0.158c0.265-0.425,0.099-1.448-0.248-2.586
			C73.59,99.08,73.618,99.769,73.792,100.035z"/>
		<path fill="#AE1D22" d="M77.976,96.415l0.997-0.072c0.259,3.577,3.227,6.274,6.905,6.274c3.806,0,6.902-3.098,6.902-6.904
			c0-1.99-0.638-3.685-1.796-4.772c-1.038-0.976-2.451-1.442-4.085-1.334c-0.759,0.048-1.472,0.459-2.075,1.067
			c1.029,0.882,1.892,1.772,2.435,2.435c1.281,1.563,1.509,3.879,0.507,5.161c-0.376,0.482-1.493,1.492-3.727,0.438
			c-1.647-0.779-2.373-2.593-1.94-4.85c0.202-1.05,0.662-2.131,1.307-3.038c-1.769-1.373-3.801-2.492-5.302-2.453
			c-0.077,0.214-0.163,0.417-0.257,0.609c-0.552,1.123-1.373,1.791-2.376,1.931l-0.747,0.104l0.195-0.729
			c0.416-1.555,1.229-2.498,2.417-2.809c0.418-1.58,0.384-3.653-0.042-5.688c-1.967-1.035-3.01-3.008-3.26-4.47
			c-0.167-0.981,0.039-1.653,0.566-1.842c0.905-0.324,1.743,1.135,2.017,1.615c0.688,1.203,1.21,2.586,1.55,4.004
			c0.574,0.236,1.25,0.388,2.042,0.393c2.292,0.016,3.644-0.004,4.207-0.016c0.17-0.379,0.335-0.771,0.488-1.163
			c-0.592-1.556-1.161-3.604-0.542-4.597c0.179-0.287,0.535-0.629,1.214-0.629c0.439,0,0.802,0.19,1.022,0.536
			c0.592,0.931-0.015,3.069-0.62,4.683c0.161,0.406,0.332,0.801,0.5,1.162h1.696v0.355l0.518,0.17l-0.156,0.475h-2.686l-0.137-0.28
			c-0.06-0.122-0.154-0.319-0.268-0.571c-0.108,0.247-0.197,0.441-0.254,0.563l-0.13,0.277l-0.307,0.011
			c-0.014,0-1.405,0.045-4.554,0.023c-0.656-0.004-1.256-0.096-1.803-0.255c0.31,1.82,0.316,3.634-0.011,5.137
			c1.8,0.07,3.897,1.286,5.662,2.672c0.782-0.812,1.738-1.365,2.785-1.432c1.916-0.121,3.588,0.435,4.832,1.603
			c1.361,1.279,2.111,3.233,2.111,5.502c0,4.358-3.545,7.904-7.902,7.904C81.669,103.617,78.272,100.52,77.976,96.415z
			 M83.082,94.046c-0.164,0.854-0.357,2.933,1.385,3.757c1.129,0.533,2.021,0.479,2.512-0.149c0.639-0.819,0.594-2.586-0.493-3.911
			c-0.558-0.681-1.371-1.5-2.303-2.292C83.643,92.23,83.252,93.16,83.082,94.046z M76.36,89.39c0.132-0.131,0.256-0.286,0.371-0.465
			C76.595,89.057,76.471,89.211,76.36,89.39z M75.605,78.749c0.257,0.465,0.679,1.074,1.32,1.6
			c-0.302-0.982-0.696-1.924-1.175-2.763c-0.361-0.632-0.618-0.923-0.766-1.055C74.947,76.907,75.056,77.757,75.605,78.749z
			 M85.212,76.24c-0.261,0.417-0.104,1.415,0.231,2.53c0.374-1.224,0.543-2.255,0.314-2.615c-0.021-0.032-0.047-0.073-0.179-0.073
			C85.344,76.082,85.264,76.158,85.212,76.24z"/>
		
			<rect x="64.606" y="94.243" transform="matrix(-0.9397 0.3419 -0.3419 -0.9397 158.5467 160.7604)" fill="#AE1D22" width="1" height="0.22"/>
	</g>
	<g>
		<g>
			<path fill="#AE1D22" d="M1.338,88.656h16.213c0.448-0.859,0.917-1.858,1.324-2.847c-0.699-1.896-1.29-4.162-0.633-5.213
				c0.184-0.293,0.547-0.644,1.233-0.644c0.711,0,1.078,0.361,1.259,0.664c0.622,1.038,0.005,3.244-0.776,5.208
				c0.285,0.749,0.602,1.488,0.91,2.142h2.199c0.524-1.252,1.095-2.754,1.603-4.274c-0.903-3.181-1.621-6.881-0.628-8.329
				c0.323-0.47,0.803-0.719,1.39-0.719c0.561,0,1.014,0.237,1.311,0.687c0.941,1.425,0.027,5.193-1.021,8.378
				c0.46,1.601,0.997,3.189,1.494,4.505l1.419-0.035c0.534-0.804,1.104-1.764,1.583-2.699c-0.619-1.738-1.039-3.542-0.526-4.366
				c0.214-0.344,0.569-0.533,1.001-0.533c0.866,0,1.266,0.413,1.449,0.759c0.496,0.937-0.065,2.629-0.825,4.195
				c0.361,0.97,0.804,2.006,1.272,2.978h43.468v1H31.967l-0.138-0.278c-0.255-0.517-0.699-1.447-1.133-2.511
				c-0.578,1.035-1.143,1.888-1.376,2.23l-0.145,0.212l-2.639,0.066l-0.127-0.328c-0.147-0.382-0.681-1.787-1.247-3.574
				c-0.603,1.67-1.148,2.971-1.303,3.334l-0.129,0.304h-3.489l-0.137-0.281c-0.132-0.272-0.4-0.836-0.703-1.551
				c-0.471,1.044-0.912,1.891-1.108,2.257l-0.141,0.265H1.338V88.656z M19.09,81.126c-0.314,0.502-0.096,1.766,0.347,3.198
				c0.495-1.445,0.742-2.689,0.439-3.193c-0.056-0.093-0.143-0.179-0.401-0.179C19.232,80.953,19.147,81.037,19.09,81.126z
				 M30.542,81.641c-0.215,0.346-0.063,1.295,0.301,2.498c0.428-1.035,0.637-1.914,0.416-2.333c-0.033-0.062-0.12-0.227-0.565-0.227
				C30.581,81.58,30.561,81.611,30.542,81.641z M24.867,75.928c-0.6,0.876-0.288,3.293,0.369,5.965
				c0.793-2.701,1.235-5.16,0.672-6.012c-0.11-0.166-0.252-0.237-0.476-0.237C25.177,75.644,25.002,75.732,24.867,75.928z"/>
		</g>
	</g>
</g>
<g>
	<g>
		<g>
			<path fill="#AE1D22" d="M159.448,72.088c-0.803-0.433-1.733-0.886-2.658-1.283c-1.875,0.682-4.081,1.242-5.115,0.597
				c-0.293-0.184-0.644-0.546-0.644-1.232c0-0.724,0.365-1.091,0.671-1.272c1.035-0.611,3.202,0.029,5.112,0.822
				c0.779-0.293,1.551-0.623,2.23-0.943v-2.2c-1.251-0.523-2.754-1.095-4.273-1.602c-3.182,0.902-6.882,1.621-8.33,0.627
				c-0.471-0.323-0.719-0.803-0.719-1.39c0-0.561,0.237-1.014,0.686-1.311c1.424-0.94,5.194-0.027,8.379,1.021
				c1.6-0.46,3.189-0.997,4.504-1.494l-0.035-1.42c-0.804-0.534-1.763-1.104-2.698-1.583c-1.74,0.619-3.542,1.039-4.367,0.526
				c-0.344-0.214-0.534-0.569-0.534-1.001c0-0.865,0.413-1.265,0.758-1.448c0.938-0.496,2.629,0.065,4.197,0.825
				c0.97-0.361,2.006-0.805,2.979-1.273V34.084h1v23.592l-0.279,0.138c-0.517,0.255-1.448,0.699-2.511,1.134
				c1.035,0.578,1.886,1.142,2.229,1.375l0.212,0.145l0.066,2.641l-0.329,0.127c-0.381,0.147-1.786,0.681-3.573,1.247
				c1.67,0.603,2.97,1.148,3.333,1.303l0.304,0.129v3.49l-0.281,0.137c-0.286,0.139-0.894,0.428-1.663,0.75
				c0.966,0.454,1.746,0.874,2.088,1.063l0.258,0.143v9.79h-1V72.088z M152.211,69.759c-0.058,0.034-0.179,0.105-0.179,0.411
				c0,0.243,0.083,0.328,0.174,0.385c0.494,0.31,1.725,0.103,3.128-0.325C153.927,69.725,152.71,69.465,152.211,69.759z
				 M146.961,63.735c-0.167,0.11-0.238,0.252-0.238,0.476c0,0.256,0.088,0.43,0.285,0.565c0.875,0.6,3.292,0.288,5.965-0.369
				C150.271,63.615,147.812,63.172,146.961,63.735z M152.886,58.385c-0.062,0.033-0.227,0.12-0.227,0.564
				c0,0.114,0.031,0.133,0.062,0.152c0.346,0.214,1.295,0.063,2.499-0.301C154.186,58.373,153.306,58.162,152.886,58.385z"/>
		</g>
	</g>
	<path fill="#AE1D22" d="M125.632,20.528c-0.64-0.02-1.081-0.429-1.209-1.122c-0.167-0.9,0.21-2.417,0.908-4.098
		c-0.743-2.54-2.064-5.682-3.195-8.027h-19.597v-1h20.222l0.137,0.28c0.301,0.616,1.967,4.073,3.052,7.38
		c1.527-3.119,3.891-6.382,5.794-7.18c0.981-0.413,1.838-0.186,2.414,0.637l-0.819,0.573c-0.213-0.304-0.521-0.575-1.208-0.288
		c-1.812,0.76-4.352,4.56-5.743,7.709c0.481,1.771,0.696,3.361,0.312,4.26c-0.183,0.428-0.494,0.722-0.899,0.852l-0.082,0.026
		L125.632,20.528z M125.406,19.224c0.039,0.209,0.101,0.273,0.169,0.294c0.068-0.039,0.142-0.111,0.205-0.258
		c0.198-0.465,0.166-1.257-0.024-2.243C125.453,17.942,125.313,18.723,125.406,19.224z"/>
	<path fill="#AE1D22" d="M139.633,59.216c0.787-8.322,6.05-11.671,11.623-15.217c1.338-0.851,2.721-1.731,4.018-2.676l-0.589-0.809
		c-1.271,0.927-2.641,1.798-3.965,2.641c-5.531,3.519-11.25,7.157-12.082,15.967L139.633,59.216z"/>
	<circle fill="#AE1D22" cx="139.136" cy="59.169" r="1.167"/>
	<circle fill="#AE1D22" cx="151.289" cy="16.781" r="1.339"/>
	<circle fill="#AE1D22" cx="1.338" cy="89.156" r="1.339"/>
	<g>
		<path fill="#AE1D22" d="M141.052,13.021c0.123,0,0.246-0.002,0.37-0.008l0.415,0.007h14.82c1.051,0,1.906-0.855,1.906-1.906
			s-0.855-1.906-1.906-1.906s-1.906,0.855-1.906,1.906v0.338h1v-0.338c0-0.5,0.407-0.906,0.906-0.906s0.906,0.407,0.906,0.906
			s-0.407,0.906-0.906,0.906l-15.249-0.007c-2.012,0.087-3.916-0.608-5.381-1.953c-1.465-1.345-2.318-3.179-2.403-5.166
			c-0.088-2.059,1.516-3.806,3.575-3.894c0.463-0.013,0.92,0.144,1.266,0.462c0.346,0.318,0.548,0.752,0.568,1.222
			c0.017,0.389-0.286,0.719-0.676,0.736l0.044,0.999c0.94-0.042,1.672-0.839,1.631-1.778c-0.032-0.737-0.348-1.417-0.891-1.916
			c-0.543-0.499-1.251-0.758-1.985-0.724c-2.609,0.112-4.642,2.327-4.531,4.936c0.096,2.253,1.064,4.334,2.727,5.859
			C136.921,12.24,138.934,13.021,141.052,13.021z"/>
		<path fill="#AE1D22" d="M163.048,34.918c2.521,0,4.624-1.994,4.732-4.535c0.032-0.737-0.226-1.442-0.724-1.985
			c-0.499-0.543-1.179-0.859-1.916-0.891c-0.454-0.016-0.89,0.139-1.226,0.446c-0.336,0.308-0.532,0.729-0.551,1.186l0.999,0.042
			c0.008-0.189,0.089-0.363,0.228-0.491c0.139-0.127,0.324-0.197,0.506-0.184c0.471,0.021,0.905,0.222,1.223,0.568
			c0.318,0.347,0.482,0.796,0.462,1.266c-0.088,2.059-1.864,3.679-3.894,3.575c-1.986-0.085-3.821-0.938-5.166-2.403
			c-1.344-1.465-2.038-3.366-1.953-5.352l-0.006-4.702V13.56h-1l0.007,12.584c-0.096,2.226,0.691,4.382,2.216,6.043
			c1.525,1.662,3.606,2.63,5.859,2.727C162.912,34.917,162.98,34.918,163.048,34.918z"/>
	</g>
	<path fill="#AE1D22" d="M147.834,44.108c6.271,0,11.373-5.102,11.373-11.373h-1c0,5.72-4.653,10.373-10.373,10.373
		c-4.521,0-8.198-3.678-8.198-8.198c0-3.562,2.897-6.459,6.459-6.459c2.793,0,5.066,2.273,5.066,5.067
		c0,2.18-1.773,3.953-3.953,3.953c-1.688,0-3.062-1.374-3.062-3.062c0-1.296,1.054-2.351,2.35-2.351v-1
		c-1.847,0-3.35,1.503-3.35,3.351c0,2.24,1.822,4.062,4.062,4.062c2.731,0,4.953-2.222,4.953-4.953c0-3.346-2.721-6.067-6.066-6.067
		c-4.113,0-7.459,3.346-7.459,7.459C138.636,39.981,142.762,44.108,147.834,44.108z"/>
	<circle fill="#AE1D22" cx="138.379" cy="3.921" r="1.019"/>
	<circle fill="#AE1D22" cx="102.537" cy="6.785" r="1.019"/>
	<circle fill="#AE1D22" cx="163.861" cy="29.16" r="1.019"/>
	<circle fill="#AE1D22" cx="159.948" cy="81.287" r="1.019"/>
</g>
</svg>
