<?xml version="1.0" encoding="utf-8"?>
<!-- Generator: Adobe Illustrator 16.0.3, SVG Export Plug-In . SVG Version: 6.00 Build 0)  -->
<!DOCTYPE svg PUBLIC "-//W3C//DTD SVG 1.1//EN" "http://www.w3.org/Graphics/SVG/1.1/DTD/svg11.dtd">
<svg version="1.1" id="Layer_1" xmlns="http://www.w3.org/2000/svg" xmlns:xlink="http://www.w3.org/1999/xlink" x="0px" y="0px"
	 width="167.783px" height="105.906px" viewBox="0 0 167.783 105.906" enable-background="new 0 0 167.783 105.906"
	 xml:space="preserve">
<g>
	<g>
		<circle fill="#AE1D22" cx="46.57" cy="78.614" r="1.167"/>
		<circle fill="#AE1D22" cx="30.351" cy="78.77" r="1.167"/>
		<g>
			<g>
				<path fill="#AE1D22" d="M35.792,90.996c-1.062,0-2.181-0.138-3.353-0.414c-3.651-0.861-6.287-2.928-7.835-6.141
					c-1.613-3.35-1.669-7.31-1.23-10.074c-0.365-0.183-0.719-0.423-1.055-0.719c-1.529-1.35-2.646-3.921-1.485-6.379
					c1.97-4.158,9.792-2.1,10.125-2.01l0.235,0.064l0.095,0.225c0.206,0.489,1.543,3.756,1.628,6.398
					c2.577,0.122,5.734,1.546,6.202,1.764l-0.421,0.906c-1.157-0.536-3.831-1.566-5.817-1.677c-0.072,0.618-0.246,1.167-0.562,1.589
					c-0.354,0.475-1.055,1.012-2.378,0.858l-0.408-0.046L29.5,74.931c-0.094-1.121,0.229-1.948,0.958-2.458
					c0.402-0.281,0.906-0.438,1.466-0.501c-0.077-1.929-0.936-4.498-1.462-5.806c-1.27-0.298-7.278-1.527-8.725,1.53
					c-0.898,1.902-0.055,4.057,1.243,5.201c0.192,0.17,0.39,0.315,0.591,0.438c0.163-0.715,0.356-1.304,0.554-1.722
					c0.75-1.584,1.917-1.639,2.379-1.592c0.904,0.096,1.68,0.777,1.886,1.657c0.105,0.451,0.191,1.602-1.291,2.543
					c-0.856,0.544-1.827,0.7-2.781,0.485c-0.384,2.568-0.305,6.202,1.188,9.3c1.41,2.928,3.82,4.812,7.163,5.602
					c3.549,0.835,6.545,0.308,8.91-1.565c3.272-2.592,4.491-7.13,4.491-9.382h1c0,2.438-1.322,7.355-4.87,10.166
					C40.377,90.271,38.231,90.995,35.792,90.996z M31.878,72.979c-0.331,0.054-0.619,0.154-0.847,0.313
					c-0.334,0.234-0.514,0.602-0.543,1.118c0.465-0.02,0.805-0.179,1.031-0.481C31.703,73.684,31.818,73.359,31.878,72.979z
					 M24.499,73.725c0.709,0.17,1.426,0.061,2.065-0.347c0.672-0.428,0.975-0.95,0.853-1.472c-0.109-0.465-0.537-0.839-1.018-0.891
					c-0.55-0.058-1.03,0.307-1.369,1.025C24.839,72.445,24.652,73.022,24.499,73.725z"/>
			</g>
			<g>
				<path fill="#AE1D22" d="M34.504,84.854c-1.501,0-2.946-0.667-3.921-1.632c-1.43-1.416-1.692-3.268-0.684-4.831l0.841,0.541
					c-0.749,1.161-0.544,2.499,0.547,3.579c1.242,1.23,3.535,1.896,5.341,0.706c3.209-2.117,1.807-8.882,1.793-8.95l0.321-0.068
					l0.247-0.549l0.357,0.16l0.053,0.248c0.065,0.305,1.559,7.501-2.22,9.994C36.327,84.614,35.405,84.854,34.504,84.854z"/>
			</g>
		</g>
	</g>
	<g>
		<path fill="none" stroke="#AE1D22" stroke-miterlimit="10" d="M85.496,84.31"/>
		<path fill="#AE1D22" d="M77.386,82.462h-2.973l-0.145-0.247c-0.079-0.136-0.208-0.361-0.366-0.651
			c-0.088,0.253-0.161,0.451-0.208,0.575l-0.122,0.323H45.797v-1h27.08c0.13-0.363,0.26-0.758,0.381-1.163
			c-0.743-1.567-1.498-3.618-0.936-4.598c0.162-0.283,0.498-0.62,1.173-0.62c0.444,0,0.807,0.186,1.05,0.537
			c0.638,0.922,0.237,3.002-0.216,4.595c0.207,0.422,0.43,0.844,0.66,1.249h1.83c0.366-0.624,0.716-1.287,1.018-1.928
			c-0.585-1.404-1.029-2.977-0.559-3.81c0.161-0.286,0.495-0.631,1.167-0.644c0.731-0.003,1.033,0.365,1.165,0.593
			C80.086,76.5,79.59,78.1,78.94,79.55c0.342,0.771,0.737,1.541,1.097,2.161l-0.865,0.502c-0.143-0.247-0.457-0.802-0.798-1.497
			c-0.333,0.64-0.647,1.179-0.843,1.504L77.386,82.462z M73.495,76.082c-0.238,0-0.283,0.079-0.305,0.117
			c-0.215,0.375,0.018,1.36,0.476,2.523c0.243-1.14,0.326-2.146,0.057-2.535C73.676,76.12,73.624,76.082,73.495,76.082z
			 M78.484,76.082c-0.007,0-0.013,0-0.02,0c-0.243,0.005-0.291,0.089-0.316,0.134c-0.19,0.339-0.048,1.096,0.257,1.987
			c0.356-0.95,0.518-1.718,0.338-2.028C78.727,76.146,78.689,76.082,78.484,76.082z"/>
		<path fill="none" stroke="#AE1D22" stroke-miterlimit="10" d="M94.182,84.31"/>
		<g>
			<path fill="#AE1D22" d="M97.47,105.906c-0.384,0-0.72-0.171-0.948-0.484c-0.78-1.072-0.21-4.208,0.508-6.949
				c-0.351-1.415-0.768-2.85-1.17-4.065l0.949-0.314c0.142,0.43,0.436,1.341,0.757,2.475c0.34-1.136,0.648-2.049,0.797-2.48
				l0.117-0.337h3.046l0.145,0.247c0.079,0.136,0.208,0.361,0.366,0.651c0.088-0.253,0.161-0.451,0.208-0.575l0.936,0.354
				c-0.169,0.448-0.342,0.959-0.5,1.486c0.743,1.568,1.498,3.62,0.936,4.6c-0.163,0.283-0.498,0.62-1.173,0.62
				c-0.444,0-0.807-0.186-1.05-0.537c-0.638-0.922-0.237-3.003,0.216-4.596c-0.207-0.423-0.43-0.845-0.66-1.25h-1.757
				c-0.385,1.142-0.78,2.442-1.121,3.727c0.665,2.71,1.172,5.806,0.389,6.911c-0.235,0.331-0.569,0.511-0.967,0.519
				C97.487,105.906,97.479,105.906,97.47,105.906z M97.532,100.738c-0.411,1.96-0.572,3.585-0.201,4.096
				c0.042,0.058,0.084,0.072,0.145,0.072c0.067-0.001,0.114-0.017,0.171-0.097C98.024,104.276,97.899,102.669,97.532,100.738z
				 M102.275,97.491c-0.243,1.141-0.326,2.146-0.057,2.536c0.046,0.067,0.098,0.105,0.227,0.105c0.238,0,0.283-0.079,0.305-0.117
				C102.966,99.639,102.734,98.654,102.275,97.491z"/>
		</g>
		<path fill="#AE1D22" d="M93.737,101.132c-0.679,0-1.035-0.342-1.214-0.629c-0.619-0.991-0.052-3.038,0.54-4.594
			c-0.133-0.328-0.282-0.682-0.448-1.062l-0.175-0.406c-0.125-0.3-0.627-0.579-1.14-0.504c-0.8,0.118-1.344,1.026-1.493,2.491
			l-0.995-0.102c0.283-2.778,1.732-3.288,2.342-3.379c0.923-0.138,1.894,0.352,2.208,1.108l0.169,0.392
			c0.024,0.055,0.048,0.109,0.071,0.164c0.116-0.258,0.212-0.459,0.273-0.583l0.137-0.28h2.688l0.112,0.345l-0.476,0.203v0.452
			h-1.696c-0.167,0.359-0.337,0.752-0.498,1.156c0.789,1.985,1.273,3.779,0.686,4.677C94.663,100.833,94.34,101.132,93.737,101.132z
			 M93.618,97.388c-0.347,1.138-0.513,2.161-0.248,2.586c0.051,0.082,0.131,0.158,0.366,0.158c0.189,0,0.231-0.063,0.253-0.098
			C94.164,99.769,94.192,99.08,93.618,97.388z"/>
		<path fill="#AE1D22" d="M81.905,103.617c-4.357,0-7.902-3.546-7.902-7.904c0-2.269,0.75-4.223,2.111-5.502
			c1.244-1.168,2.917-1.724,4.832-1.603c1.047,0.066,2.003,0.62,2.785,1.432c1.765-1.386,3.862-2.602,5.662-2.672
			c-0.328-1.503-0.321-3.316-0.011-5.137c-0.547,0.159-1.147,0.251-1.803,0.255c-3.149,0.021-4.54-0.023-4.554-0.023l-0.307-0.011
			l-0.13-0.277c-0.057-0.122-0.146-0.316-0.254-0.563c-0.114,0.252-0.208,0.449-0.268,0.571l-0.137,0.28h-2.686l-0.156-0.475
			l0.518-0.17v-0.355h1.696c0.168-0.361,0.339-0.756,0.5-1.162c-0.605-1.613-1.212-3.752-0.62-4.683
			c0.22-0.346,0.583-0.536,1.022-0.536c0.679,0,1.035,0.342,1.214,0.629c0.62,0.992,0.051,3.041-0.542,4.597
			c0.153,0.392,0.318,0.784,0.488,1.163c0.563,0.012,1.915,0.031,4.207,0.016c0.792-0.005,1.469-0.156,2.042-0.393
			c0.34-1.418,0.862-2.801,1.55-4.004c0.274-0.48,1.112-1.939,2.017-1.615c0.527,0.188,0.733,0.86,0.566,1.842
			c-0.25,1.462-1.292,3.435-3.26,4.47c-0.427,2.035-0.46,4.108-0.042,5.688c1.188,0.311,2.001,1.254,2.417,2.809l0.195,0.729
			l-0.747-0.104c-1.003-0.14-1.824-0.808-2.376-1.931c-0.094-0.192-0.18-0.396-0.257-0.609c-1.5-0.039-3.533,1.08-5.302,2.453
			c0.645,0.907,1.105,1.988,1.307,3.038c0.433,2.257-0.292,4.07-1.94,4.85c-2.234,1.054-3.351,0.044-3.727-0.438
			c-1.001-1.282-0.774-3.598,0.507-5.161c0.543-0.662,1.406-1.553,2.435-2.435c-0.603-0.608-1.315-1.02-2.075-1.067
			c-1.634-0.108-3.047,0.358-4.085,1.334c-1.158,1.088-1.796,2.782-1.796,4.772c0,3.807,3.096,6.904,6.902,6.904
			c3.678,0,6.646-2.697,6.905-6.274l0.997,0.072C89.51,100.52,86.113,103.617,81.905,103.617z M83.599,91.451
			c-0.932,0.792-1.745,1.611-2.303,2.292c-1.086,1.325-1.132,3.092-0.493,3.911c0.491,0.629,1.383,0.683,2.512,0.149
			c1.742-0.824,1.549-2.902,1.385-3.757C84.53,93.16,84.139,92.23,83.599,91.451z M91.051,88.925
			c0.115,0.179,0.239,0.334,0.371,0.465C91.311,89.211,91.188,89.057,91.051,88.925z M92.798,76.531
			c-0.148,0.132-0.405,0.423-0.766,1.055c-0.479,0.839-0.874,1.78-1.175,2.763c0.641-0.525,1.062-1.135,1.32-1.6
			C92.726,77.757,92.835,76.907,92.798,76.531z M82.204,76.082c-0.132,0-0.158,0.041-0.179,0.073
			c-0.229,0.36-0.06,1.392,0.314,2.615c0.335-1.115,0.492-2.113,0.231-2.53C82.519,76.158,82.438,76.082,82.204,76.082z"/>
		
			<rect x="102.177" y="94.243" transform="matrix(0.9397 0.3419 -0.3419 0.9397 38.447 -29.4191)" fill="#AE1D22" width="1" height="0.22"/>
	</g>
	<g>
		<g>
			<path fill="#AE1D22" d="M166.444,89.656H149.63l-0.141-0.265c-0.196-0.366-0.637-1.213-1.108-2.257
				c-0.303,0.715-0.57,1.278-0.703,1.551l-0.137,0.281h-3.489l-0.129-0.304c-0.155-0.363-0.7-1.664-1.303-3.334
				c-0.566,1.787-1.1,3.192-1.247,3.574l-0.127,0.328l-2.639-0.066l-0.145-0.212c-0.233-0.343-0.798-1.195-1.376-2.23
				c-0.435,1.063-0.878,1.994-1.133,2.511l-0.138,0.278H91.724v-1h43.468c0.468-0.972,0.912-2.008,1.272-2.978
				c-0.759-1.566-1.32-3.259-0.825-4.195c0.183-0.346,0.583-0.759,1.449-0.759c0.432,0,0.787,0.189,1.001,0.533
				c0.512,0.824,0.093,2.628-0.526,4.366c0.479,0.936,1.049,1.896,1.583,2.699l1.419,0.035c0.497-1.315,1.034-2.904,1.494-4.505
				c-1.048-3.185-1.962-6.953-1.021-8.378c0.297-0.449,0.75-0.687,1.311-0.687c0.587,0,1.067,0.249,1.39,0.719
				c0.993,1.448,0.275,5.148-0.628,8.329c0.507,1.521,1.079,3.022,1.603,4.274h2.199c0.309-0.653,0.625-1.393,0.91-2.142
				c-0.782-1.964-1.398-4.17-0.776-5.208c0.182-0.303,0.548-0.664,1.259-0.664c0.687,0,1.05,0.351,1.233,0.644
				c0.656,1.051,0.065,3.317-0.633,5.213c0.407,0.988,0.876,1.987,1.324,2.847h16.213V89.656z M148.307,80.953
				c-0.259,0-0.346,0.086-0.401,0.179c-0.302,0.504-0.055,1.748,0.439,3.193c0.443-1.433,0.661-2.696,0.347-3.198
				C148.635,81.037,148.55,80.953,148.307,80.953z M137.088,81.58c-0.445,0-0.532,0.164-0.565,0.227
				c-0.222,0.419-0.012,1.298,0.416,2.333c0.365-1.203,0.516-2.152,0.301-2.498C137.221,81.611,137.202,81.58,137.088,81.58z
				 M142.35,75.644c-0.224,0-0.366,0.071-0.476,0.237c-0.562,0.852-0.121,3.311,0.672,6.012c0.657-2.672,0.969-5.089,0.369-5.965
				C142.78,75.732,142.605,75.644,142.35,75.644z"/>
		</g>
	</g>
</g>
<g>
	<g>
		<g>
			<path fill="#AE1D22" d="M8.334,81.287h-1v-9.79l0.258-0.143c0.342-0.189,1.122-0.609,2.088-1.063
				c-0.769-0.321-1.376-0.61-1.663-0.75l-0.281-0.137v-3.49l0.304-0.129c0.363-0.155,1.663-0.7,3.333-1.303
				c-1.787-0.566-3.191-1.099-3.573-1.247l-0.329-0.127l0.066-2.641l0.212-0.145c0.343-0.233,1.195-0.797,2.229-1.375
				c-1.063-0.435-1.995-0.879-2.511-1.134l-0.279-0.138V34.084h1v22.969c0.972,0.469,2.009,0.912,2.979,1.273
				c1.567-0.76,3.259-1.321,4.197-0.825c0.346,0.183,0.758,0.583,0.758,1.448c0,0.432-0.189,0.788-0.534,1.001
				c-0.825,0.513-2.626,0.093-4.367-0.526c-0.936,0.479-1.895,1.049-2.698,1.583l-0.035,1.42c1.315,0.497,2.904,1.033,4.504,1.494
				c3.185-1.048,6.955-1.961,8.379-1.021c0.449,0.297,0.686,0.75,0.686,1.311c0,0.587-0.249,1.067-0.719,1.39
				c-1.448,0.993-5.148,0.275-8.33-0.627c-1.52,0.507-3.022,1.079-4.273,1.602v2.2c0.679,0.32,1.452,0.65,2.23,0.943
				c1.91-0.793,4.077-1.433,5.112-0.822c0.306,0.181,0.671,0.548,0.671,1.272c0,0.687-0.35,1.049-0.644,1.232
				c-1.034,0.646-3.24,0.085-5.115-0.597c-0.925,0.397-1.854,0.851-2.658,1.283V81.287z M12.448,70.229
				c1.403,0.428,2.634,0.635,3.128,0.325c0.09-0.057,0.174-0.142,0.174-0.385c0-0.305-0.121-0.376-0.179-0.411
				C15.072,69.465,13.855,69.725,12.448,70.229z M14.809,64.408c2.672,0.657,5.09,0.969,5.965,0.369
				c0.197-0.135,0.285-0.31,0.285-0.565c0-0.224-0.071-0.366-0.238-0.476C19.97,63.172,17.511,63.615,14.809,64.408z M12.562,58.801
				c1.204,0.364,2.153,0.516,2.499,0.301c0.031-0.019,0.062-0.039,0.062-0.152c0-0.445-0.165-0.532-0.227-0.564
				C14.476,58.162,13.597,58.373,12.562,58.801z"/>
		</g>
	</g>
	<path fill="#AE1D22" d="M42.064,20.53l-0.082-0.026c-0.406-0.129-0.717-0.424-0.899-0.852c-0.384-0.899-0.169-2.488,0.312-4.26
		c-1.391-3.149-3.931-6.949-5.743-7.709c-0.687-0.287-0.996-0.016-1.208,0.288l-0.819-0.573c0.576-0.823,1.433-1.049,2.414-0.637
		c1.904,0.797,4.268,4.061,5.794,7.18c1.084-3.307,2.75-6.764,3.052-7.38l0.137-0.28h20.222v1H45.647
		c-1.131,2.345-2.453,5.487-3.195,8.027c0.697,1.682,1.074,3.198,0.908,4.098c-0.128,0.693-0.569,1.102-1.209,1.122L42.064,20.53z
		 M42.027,17.017c-0.19,0.986-0.223,1.777-0.024,2.243c0.063,0.147,0.137,0.219,0.205,0.258c0.068-0.021,0.13-0.085,0.169-0.294
		C42.469,18.723,42.33,17.942,42.027,17.017z"/>
	<path fill="#AE1D22" d="M28.149,59.216C27.362,50.894,22.099,47.545,16.526,44c-1.338-0.851-2.721-1.731-4.018-2.676l0.589-0.809
		c1.271,0.927,2.641,1.798,3.965,2.641c5.531,3.519,11.25,7.157,12.082,15.967L28.149,59.216z"/>
	<circle fill="#AE1D22" cx="28.646" cy="59.169" r="1.167"/>
	<circle fill="#AE1D22" cx="16.493" cy="16.781" r="1.339"/>
	<circle fill="#AE1D22" cx="166.444" cy="89.156" r="1.339"/>
	<g>
		<path fill="#AE1D22" d="M26.73,13.021c-0.123,0-0.246-0.002-0.37-0.008l-0.415,0.007h-14.82c-1.051,0-1.906-0.855-1.906-1.906
			s0.855-1.906,1.906-1.906s1.906,0.855,1.906,1.906v0.338h-1v-0.338c0-0.5-0.407-0.906-0.906-0.906s-0.906,0.407-0.906,0.906
			s0.407,0.906,0.906,0.906l15.249-0.007c2.012,0.087,3.916-0.608,5.381-1.953c1.465-1.345,2.318-3.179,2.403-5.166
			c0.088-2.059-1.516-3.806-3.575-3.894c-0.463-0.013-0.92,0.144-1.266,0.462c-0.346,0.318-0.548,0.752-0.568,1.222
			c-0.017,0.389,0.286,0.719,0.676,0.736l-0.044,0.999c-0.94-0.042-1.672-0.839-1.631-1.778c0.032-0.737,0.348-1.417,0.891-1.916
			c0.543-0.499,1.251-0.758,1.985-0.724c2.609,0.112,4.642,2.327,4.531,4.936c-0.096,2.253-1.064,4.334-2.727,5.859
			C30.861,12.24,28.848,13.021,26.73,13.021z"/>
		<path fill="#AE1D22" d="M4.734,34.918c-2.521,0-4.624-1.994-4.732-4.535c-0.032-0.737,0.226-1.442,0.724-1.985
			c0.499-0.543,1.179-0.859,1.916-0.891c0.454-0.016,0.89,0.139,1.226,0.446c0.336,0.308,0.532,0.729,0.551,1.186L3.42,29.181
			c-0.008-0.189-0.089-0.363-0.228-0.491c-0.139-0.127-0.324-0.197-0.506-0.184c-0.471,0.021-0.905,0.222-1.223,0.568
			c-0.318,0.347-0.482,0.796-0.462,1.266c0.088,2.059,1.864,3.679,3.894,3.575c1.986-0.085,3.821-0.938,5.166-2.403
			c1.344-1.465,2.038-3.366,1.953-5.352l0.006-4.702V13.56h1l-0.007,12.584c0.096,2.226-0.691,4.382-2.216,6.043
			c-1.525,1.662-3.606,2.63-5.859,2.727C4.87,34.917,4.802,34.918,4.734,34.918z"/>
	</g>
	<path fill="#AE1D22" d="M19.948,44.108c-6.271,0-11.373-5.102-11.373-11.373h1c0,5.72,4.653,10.373,10.373,10.373
		c4.521,0,8.198-3.678,8.198-8.198c0-3.562-2.897-6.459-6.459-6.459c-2.793,0-5.066,2.273-5.066,5.067
		c0,2.18,1.773,3.953,3.953,3.953c1.688,0,3.062-1.374,3.062-3.062c0-1.296-1.054-2.351-2.35-2.351v-1
		c1.847,0,3.35,1.503,3.35,3.351c0,2.24-1.822,4.062-4.062,4.062c-2.731,0-4.953-2.222-4.953-4.953c0-3.346,2.721-6.067,6.066-6.067
		c4.113,0,7.459,3.346,7.459,7.459C29.146,39.981,25.02,44.108,19.948,44.108z"/>
	<circle fill="#AE1D22" cx="29.403" cy="3.921" r="1.019"/>
	<circle fill="#AE1D22" cx="65.245" cy="6.785" r="1.019"/>
	<circle fill="#AE1D22" cx="3.921" cy="29.16" r="1.019"/>
	<circle fill="#AE1D22" cx="7.834" cy="81.287" r="1.019"/>
</g>
</svg>
